<?xml version="1.0" encoding="utf-8"?>
<svg id="master-artboard" viewBox="0 0 1280 720" version="1.1" xmlns="http://www.w3.org/2000/svg" x="0px" y="0px" style="enable-background:new 0 0 1096 780;" width="1280px" height="720px" xmlns:xlink="http://www.w3.org/1999/xlink"><defs><path d="M 0 -205 H 1400 V 1185 H 0 V -205 Z" id="SVGID_1_"/></defs><g transform="matrix(0.9153907895088196, 0, 0, 0.9153907895088196, -46.55513763427737, 0.3357127010822296)"><clipPath id="path-2">
			<use style="overflow:visible;" xlink:href="#SVGID_1_"/>
		</clipPath><g transform="matrix(1, 0, 0, 1, 46.330596923828125, -49.98827362060547)"><path class="st5" d="M1431.3,401.3c-73.8,2-141.4,30.3-209.8,55.1c-63,22.8-121.7,35.2-188.7,35.2c-110.8,0-221.6,0-332.4,0&#10;&#9;&#9;&#9;&#9;c-114.6,0-229.2,0-343.8,0c-67.2,0-127.1-16.7-189.8-39.8c-64.3-23.6-128.1-48.7-197.4-50.6c0-37.9,0-75.9,0-113.8&#10;&#9;&#9;&#9;&#9;c76.6,4.2,138.2,57.7,197.4,101.2c59.2,43.6,114.5,79.5,189.8,79.5c114.6,0,229.2,0,343.8,0c110.8,0,221.6,0,332.4,0&#10;&#9;&#9;&#9;&#9;c32.3,0,61.7-0.5,92.2-12.7c34.9-14,66.3-35.8,96.6-57.8c63.2-45.7,128.2-105.8,209.8-110.3&#10;&#9;&#9;&#9;&#9;C1431.3,325.5,1431.3,363.4,1431.3,401.3z" style="fill: rgb(117, 115, 59); clip-path: url('#path-2');" transform="matrix(1, 0, 0, 1, 4.8769049644470215, -127.70913217224114)"/><path class="st6" d="M1431.3,515.1c-487.3,0-974.7,0-1462,0c0-37.9,0-75.9,0-113.8c69.3,1.9,133.1,27,197.4,50.6&#10;&#9;&#9;&#9;&#9;c62.8,23.1,122.6,39.8,189.8,39.8c114.6,0,229.2,0,343.8,0c110.8,0,221.6,0,332.4,0c67,0,125.7-12.4,188.7-35.2&#10;&#9;&#9;&#9;&#9;c68.5-24.8,136-53.1,209.8-55.1C1431.3,439.3,1431.3,477.2,1431.3,515.1z" style="fill: rgb(59, 99, 117); clip-path: url('#path-2');" transform="matrix(1, 0, 0, 1, 4.8769049644470215, -127.70913217224114)"/><path class="st7" d="M1431.3,628.9c-73.8-2-141.4-30.4-209.8-55.1c-63-22.8-121.7-35.2-188.7-35.2c-110.8,0-221.6,0-332.4,0&#10;&#9;&#9;&#9;&#9;c-114.6,0-229.2,0-343.8,0c-67.2,0-127.1,16.7-189.8,39.7C102.4,602,38.6,627-30.7,628.9c0-37.9,0-75.9,0-113.8&#10;&#9;&#9;&#9;&#9;c487.3,0,974.7,0,1462,0C1431.3,553.1,1431.3,591,1431.3,628.9z" style="fill: rgb(160, 53, 67); clip-path: url('#path-2');" transform="matrix(1, 0, 0, 1, 4.8769049644470215, -128.0187530517578)"/><path class="st8" d="M1431.3,742.7c-81.7-4.5-146.7-64.6-209.8-110.3c-30.3-21.9-61.7-43.8-96.6-57.8&#10;&#9;&#9;&#9;&#9;c-30.5-12.2-59.9-12.7-92.2-12.7c-110.8,0-221.6,0-332.4,0c-114.6,0-229.2,0-343.8,0c-75.3,0-130.6,35.9-189.8,79.5&#10;&#9;&#9;&#9;&#9;c-59.2,43.5-120.8,97-197.4,101.2c0-37.9,0-75.9,0-113.8c69.3-1.9,133.1-27,197.4-50.6c62.8-23.1,122.6-39.7,189.8-39.7&#10;&#9;&#9;&#9;&#9;c114.6,0,229.2,0,343.8,0c110.8,0,221.6,0,332.4,0c67,0,125.7,12.4,188.7,35.2c68.5,24.8,136,53.1,209.8,55.1&#10;&#9;&#9;&#9;&#9;C1431.3,666.9,1431.3,704.8,1431.3,742.7z" style="fill: rgb(245, 45, 45); clip-path: url('#path-2');" transform="matrix(1, 0, 0, 1, 4.8769049644470215, -129.23797607421875)"/><path class="st9" d="M1431.3,856.5c-89.8-7.4-153.9-104.7-209.8-165.4c-29-31.5-59.5-64.4-96.6-86.6c-30.1-18-58.2-19-92.2-19&#10;&#9;&#9;&#9;&#9;c-110.8,0-221.6,0-332.4,0c-114.6,0-229.2,0-343.8,0c-35.5,0-62.9,6.1-92.7,26.7c-36.8,25.5-67.3,59.6-97.2,92.6&#10;&#9;&#9;&#9;&#9;c-52.3,57.7-113,144.8-197.4,151.8c0-37.9,0-75.9,0-113.8c76.6-4.2,138.3-57.7,197.4-101.2C225.9,598,281.2,562,356.6,562&#10;&#9;&#9;&#9;&#9;c114.6,0,229.2,0,343.8,0c110.8,0,221.6,0,332.4,0c32.3,0,61.7,0.4,92.2,12.7c34.9,14,66.3,35.8,96.6,57.8&#10;&#9;&#9;&#9;&#9;c63.2,45.7,128.2,105.8,209.8,110.3C1431.3,780.7,1431.3,818.6,1431.3,856.5z" style="fill: rgb(245, 235, 0); clip-path: url('#path-2');" transform="matrix(1, 0, 0, 1, 4.8769049644470215, -129.23797607421875)"/></g></g></svg>