<?xml version="1.0" encoding="utf-8"?>
<svg id="master-artboard" viewBox="0 0 1280 720" version="1.1" xmlns="http://www.w3.org/2000/svg" x="0px" y="0px" style="enable-background:new 0 0 1096 780;" width="1280px" height="720px"><g transform="matrix(0.22759601706970128, 0, 0, 0.22759601706970128, -0.000005871056600881275, 0.3983217128771912)"><path fill-rule="nonzero" fill="rgb(41.967773%, 71.679688%, 65.039062%)" fill-opacity="1" d="M 2689.941406 2396.316406 L 2600.140625 2397.179688 C 2098.800781 2409.152344 1697.769531 2484.492188 1397.070312 2623.199219 C 1278.890625 2680.308594 1181.398438 2747.25 1104.601562 2824.019531 C 1038.121094 2876.246094 967.371094 2987.128906 892.355469 3156.671875 L 1181.761719 3156.667969 C 1229.941406 3075.863281 1278.339844 3019.640625 1326.960938 2987.992188 C 1444.578125 2914.039062 1565.359375 2857.570312 1689.308594 2818.589844 C 1879.230469 2763.167969 2049.171875 2728.015625 2199.101562 2713.125 C 2362.609375 2694.097656 2532.609375 2684.769531 2709.128906 2685.152344 C 3084.480469 2688.4375 3412.429688 2724.472656 3692.949219 2793.265625 C 4082.160156 2887.378906 4320.609375 3008.453125 4408.308594 3156.492188 L 4703.871094 3156.492188 C 4298.441406 2656.183594 3627.128906 2402.789062 2689.941406 2396.316406 " transform="matrix(1.0020530807679164, 0, 0, 1.0020530807679164, -11.524664138480405, -3.1977775540375974)" style="fill: rgb(59, 99, 117);"/><path fill-rule="nonzero" fill="rgb(80.859375%, 30.200195%, 23.925781%)" fill-opacity="1" d="M 2854.820312 1557.550781 L 2840.070312 1557.589844 C 1947.660156 1558.628906 1272.589844 1699.859375 814.871094 1981.289062 C 634.511719 2072.578125 448.890625 2248.359375 258.015625 2508.628906 C 142.558594 2679.578125 59.238281 2895.59375 8.054688 3156.679688 L 211.355469 3156.679688 L 268.183594 3158.757812 L 211.398438 3156.679688 L 294.800781 2922.355469 C 371.882812 2723.320312 450.867188 2569.097656 531.753906 2459.691406 C 642.78125 2295.703125 789.070312 2163.359375 970.621094 2062.648438 C 1156.339844 1956.949219 1385.660156 1872.890625 1658.570312 1810.46875 C 1795.03125 1779.261719 1942.390625 1753.460938 2100.640625 1733.070312 C 2403.070312 1696.839844 2644.191406 1680.050781 2824 1682.710938 C 3449.121094 1678.378906 4020.191406 1815.53125 4537.210938 2094.171875 C 5089.660156 2399.988281 5394.628906 2754.097656 5452.121094 3156.492188 L 5613.351562 3156.496094 C 5593.941406 2975.585938 5476.878906 2731.238281 5262.191406 2423.457031 C 5134.628906 2262.195312 4956.320312 2112.539062 4727.269531 1974.5 C 4699.621094 1950.039062 4539.019531 1884.929688 4245.480469 1779.179688 C 4209.839844 1758.769531 4095.679688 1727.28125 3902.988281 1684.691406 C 3560.960938 1609.871094 3211.570312 1567.488281 2854.820312 1557.550781 Z M 2854.820312 1557.550781 " transform="matrix(1.0046193344229664, 0, 0, 1.0046193344229664, -11.545334769114502, -7.194938829910166)" style="fill: rgb(245, 45, 45);"/><path fill-rule="nonzero" fill="rgb(94.139099%, 65.818787%, 25.87738%)" fill-opacity="1" d="M 2844.289062 1738.910156 L 2831.761719 1738.929688 C 2597.488281 1736.640625 2272 1766.921875 1855.308594 1829.78125 C 1516.210938 1889.621094 1241.078125 1975.96875 1029.929688 2088.828125 C 674.789062 2275.339844 421.109375 2631.289062 268.886719 3156.679688 L 490.589844 3156.675781 L 613.996094 3158.757812 L 490.628906 3156.675781 C 542.984375 2938.5625 621.789062 2759.800781 727.035156 2620.386719 C 870.039062 2443.121094 1023.710938 2317.867188 1188.039062 2244.625 C 1365.941406 2154.570312 1581.648438 2082.898438 1835.160156 2029.621094 C 2119.230469 1971.199219 2424.679688 1941.101562 2751.5 1939.320312 C 3056.980469 1939.320312 3348.890625 1970.429688 3627.261719 2032.671875 C 3938.609375 2110.230469 4170.429688 2188.246094 4322.738281 2266.722656 C 4851.871094 2517.800781 5151.28125 2814.390625 5220.949219 3156.492188 L 5396.398438 3156.496094 C 5372.21875 2982.601562 5297.691406 2817.667969 5172.808594 2661.699219 C 5110.371094 2583.714844 5035.339844 2507.96875 4947.71875 2434.464844 C 4919.648438 2394.910156 4759.910156 2289.695312 4468.488281 2118.820312 C 4004.230469 1869.859375 3462.839844 1743.21875 2844.289062 1738.910156 " transform="matrix(1.0020530807679164, 0, 0, 1.0020530807679164, -11.524664138480405, -3.1977775540375974)" style="fill: rgb(245, 235, 0);"/><path fill-rule="nonzero" fill="rgb(49.804688%, 52.929688%, 32.93457%)" fill-opacity="1" d="M 2744.550781 2059.140625 L 2738.820312 2059.148438 C 1456.191406 2082.171875 748.105469 2448.007812 614.578125 3156.675781 L 801.480469 3156.671875 L 800.824219 3158.757812 L 891.648438 3158.761719 L 892.355469 3156.671875 L 801.515625 3156.671875 C 839.507812 3028.613281 916.378906 2901.824219 1032.121094 2776.296875 C 1093.640625 2700.191406 1221.390625 2614.394531 1415.378906 2518.914062 C 1572.390625 2451.179688 1771.828125 2399.390625 2013.699219 2363.550781 C 2234.96875 2328.5 2457.488281 2310.972656 2681.25 2310.972656 C 3150.761719 2312.101562 3558.800781 2377.636719 3905.371094 2507.574219 C 4138.941406 2594.128906 4337.53125 2701.855469 4501.109375 2830.753906 C 4690.28125 3001.132812 4793.289062 3109.714844 4810.121094 3156.492188 L 5097.058594 3156.496094 C 5028.390625 2986.46875 4976.558594 2887.664062 4941.558594 2860.085938 C 4893.71875 2798.234375 4837.019531 2739.058594 4771.449219 2682.566406 C 4640.320312 2569.574219 4473.738281 2467.296875 4271.730469 2375.730469 C 4170.550781 2328.828125 4066.71875 2287.136719 3960.230469 2250.660156 L 3798.519531 2199.851562 C 3689.371094 2168.582031 3577.570312 2142.53125 3463.128906 2121.679688 C 3234.21875 2079.988281 2994.691406 2059.140625 2744.550781 2059.140625 " transform="matrix(1.0020530807679164, 0, 0, 1.0020530807679164, -11.524664138480405, -3.1977775540375974)" style="fill: rgb(117, 115, 59);"/></g></svg>