<?xml version="1.0" encoding="utf-8"?>
<svg id="master-artboard" viewBox="0 0 1280 720" version="1.1" xmlns="http://www.w3.org/2000/svg" x="0px" y="0px" style="enable-background:new 0 0 1096 780;" width="1280px" height="720px" xmlns:xlink="http://www.w3.org/1999/xlink"><defs><path d="M 0 0 H 1096 V 780 H 0 V 0 Z" id="SVGID_1_"/></defs><rect id="ee-background" x="0" y="0" width="1280" height="720" style="fill: white; fill-opacity: 0; pointer-events: none;"/><g transform="matrix(1.166218032308376, 0, 0, 1.166218032308376, -44.20981493515281, -37.88480903806007)"><clipPath id="path-1">
		<use style="overflow:visible;" xlink:href="#SVGID_1_"/>
	</clipPath><g transform="matrix(1, 0, 0, 1, -6, 81)"><g transform="matrix(1, 0, 0, 1, 44, -168)" style="clip-path: url('#path-1');">
			
				
			
			
			<path style="fill-rule: evenodd; clip-rule: evenodd; fill: rgb(245, 45, 45);" d="M1102.467,239.134&#10;&#9;&#9;&#9;&#9;c-83.63-44.181-166.006-69.456-257.52-42.001c-22.04,6.612-44.069,15.499-65.309,25.327&#10;&#9;&#9;&#9;&#9;c-25.336,11.723-44.755,29.454-67.059,45.79c-40.036,29.324-86.433,51.221-135.613,49.848&#10;&#9;&#9;&#9;&#9;c-52.048-1.453-93.756-39.185-133.983-69.771c-19.929-15.153-41.115-31.418-65.294-39.077&#10;&#9;&#9;&#9;&#9;c-20.457-6.48-41.999-2.461-62.307,2.265c-44.969,10.465-88.53,29.571-134.586,36.926c-45.624,7.286-87.906-0.578-130.752-16.7&#10;&#9;&#9;&#9;&#9;c-1.318,27.51-2.388,55.029-3.396,82.551c96.546,46.802,182.2-27.941,267.395-62.809c20.984-8.588,43.55-17.511,66.793-11.478&#10;&#9;&#9;&#9;&#9;c23.063,5.986,43.555,20.127,62.834,33.504c42.002,29.144,82.037,61.656,132.812,63.773&#10;&#9;&#9;&#9;&#9;c47.445,1.978,94.327-18.597,134.215-47.117c21.445-15.333,40.366-33.699,63.981-45.899&#10;&#9;&#9;&#9;&#9;c21.51-11.112,45.704-16.764,68.953-21.178c90.732-17.228,172.471,10.827,258.826,40.839&#10;&#9;&#9;&#9;&#9;C1102.462,253.145,1102.464,248.707,1102.467,239.134z"/>
			
			
			<path style="fill-rule: evenodd; clip-rule: evenodd; fill: rgb(117, 115, 59);" d="M1102.442,428.78&#10;&#9;&#9;&#9;&#9;c-69.181-36.698-138.031-84.721-212.458-104.002c-58.62-15.186-108.214-1.857-160.569,29.885&#10;&#9;&#9;&#9;&#9;c-49.572,30.055-105.345,47.512-161.524,43.039c-59.638-4.748-103.088-52.012-161.147-65.853&#10;&#9;&#9;&#9;&#9;c-33.325-7.944-56.212,8.28-81.043,29.052c-29.403,24.596-55.294,53.303-80.871,81.643&#10;&#9;&#9;&#9;&#9;c-39.815,44.117-78.721,90.763-125.017,128.527C84.571,599.819,37.86,628.285-8.909,610.335c0,12.005,0,24.01,0,36.014&#10;&#9;&#9;&#9;&#9;c47.29,12.378,93.768-20.247,128.221-48.73c47.155-38.984,85.892-87.019,124.733-133.793&#10;&#9;&#9;&#9;&#9;c25.911-31.204,53.017-62.26,83.557-89.211c23.098-20.384,45.659-37.512,78.147-31.68c28.149,5.053,53.377,22.023,78.196,35.335&#10;&#9;&#9;&#9;&#9;c27.066,14.518,53.758,25.542,83.719,27.979c55.317,4.501,112.687-10.239,162.147-39.008&#10;&#9;&#9;&#9;&#9;c52.185-30.353,102.598-40.579,159.451-23.105c76.114,23.394,144.866,76.743,213.18,120.171&#10;&#9;&#9;&#9;&#9;C1102.442,452.464,1102.442,440.622,1102.442,428.78z"/>
			<path style="fill-rule: evenodd; clip-rule: evenodd; fill: rgb(245, 235, 0);" d="M1102.442,432.241c-1.393-0.938-2.787-1.911-4.182-2.845&#10;&#9;&#9;&#9;&#9;c-57.57-38.582-116.529-80.132-179.73-105.912c-57.378-23.405-117.65-25.089-173.366,7.913&#10;&#9;&#9;&#9;&#9;c-56.31,33.354-112.029,57.975-176.539,50.858c-32.795-3.618-61.279-18.598-89.858-36.799&#10;&#9;&#9;&#9;&#9;c-26.701-17.005-53.41-38.509-84.761-46.054c-34.872-8.393-63.536,12.625-90.671,32.34&#10;&#9;&#9;&#9;&#9;c-28.957,21.038-55.834,45.236-83.476,67.549c-50.393,40.679-114.054,88.749-179.563,60.183&#10;&#9;&#9;&#9;&#9;c-19.161-8.355-34.82-24.177-49.207-39.632c0,17.464,0,34.929,0,52.393c13.954,13.221,28.989,25.891,47.49,32.158&#10;&#9;&#9;&#9;&#9;c67.917,23.006,134.189-39.385,180.197-80.44c28.809-25.707,56.892-53.064,87.575-76.889&#10;&#9;&#9;&#9;&#9;c25.359-19.691,53.769-42.328,87.774-35.459c32.14,6.492,60.174,28.533,87.451,45.259c27.52,16.876,55.351,30.294,86.605,33.802&#10;&#9;&#9;&#9;&#9;c64.238,7.211,120.218-14.852,177.378-46.381c56.125-30.958,116.31-26.86,171.951-1.26&#10;&#9;&#9;&#9;&#9;c64.18,29.529,122.542,76.299,179.109,120.36c1.942,1.513,3.881,3.04,5.82,4.559&#10;&#9;&#9;&#9;&#9;C1102.442,456.042,1102.442,444.141,1102.442,432.241z"/>
			<path style="fill-rule: evenodd; clip-rule: evenodd; fill: rgb(59, 99, 117);" d="M1102.442,531.395&#10;&#9;&#9;&#9;&#9;c-15.593-15.002-31.262-30.013-47.056-44.708c-49.595-46.145-102.649-95.72-164.113-123.509&#10;&#9;&#9;&#9;&#9;c-53.674-24.266-104.557-20.901-157.726,5.824c-52.433,26.355-108.808,39.224-165.605,32.389&#10;&#9;&#9;&#9;&#9;c-60.515-7.282-103.118-55.326-161.201-72.787c-62.912-18.912-123.276,56.24-163.479,94.661&#10;&#9;&#9;&#9;&#9;C177.7,485.919,82.907,586.143-8.909,511.813c0,28.929,0,57.857,0,86.786c96.251,48.002,193.009-73.773,250.205-135.661&#10;&#9;&#9;&#9;&#9;c27.095-29.317,54.622-58.931,85.476-84.437c23.607-19.515,46.447-35.819,78.576-29.36c28.207,5.671,53.333,23.154,78.028,37.063&#10;&#9;&#9;&#9;&#9;c26.938,15.173,53.571,27.111,83.65,30.83c54.143,6.694,110.777-3.644,161.359-25.135&#10;&#9;&#9;&#9;&#9;c56.261-23.903,108.797-18.791,161.046,11.396c62.094,35.875,113.448,92.695,163.075,144.965&#10;&#9;&#9;&#9;&#9;c16.675,17.563,33.297,35.258,49.936,52.896C1102.442,577.904,1102.442,554.649,1102.442,531.395z"/>
			<path style="fill-rule: evenodd; clip-rule: evenodd; fill: rgb(160, 53, 67);" d="M1102.461,257.847c-69.366-28.472-138.02-58-212.782-52.879&#10;&#9;&#9;&#9;&#9;c-57.462,3.936-112.285,22.369-159.015,58.455c-47.131,36.396-101.382,66.507-159.741,60.512&#10;&#9;&#9;&#9;&#9;c-60.14-6.177-106.53-56.169-155.908-89.066c-25.657-17.093-47.6-26.643-79.273-22.739c-25.767,3.176-50.771,10.89-75.601,17.997&#10;&#9;&#9;&#9;&#9;c-52.739,15.095-104.047,25.068-156.932,11.666c-41.455-10.506-78.869-28.198-112.117-57.089c0,35.465,0,70.931,0,106.396&#10;&#9;&#9;&#9;&#9;c35.9,37.47,78.354,69.476,132.933,65.245c48.618-3.769,92.418-31.485,133.406-55.44c24.565-14.357,49.174-29.449,75.809-39.81&#10;&#9;&#9;&#9;&#9;c29.145-11.337,50.802-9.306,78.287,5.227c54.38,28.754,96.85,77.975,158.362,84.107c43.844,4.371,89.923-6.013,130.674-27.169&#10;&#9;&#9;&#9;&#9;c45.032-23.379,79.594-54.856,132.493-59.71c91.034-8.353,180.896,36.983,269.392,50.995&#10;&#9;&#9;&#9;&#9;C1102.45,295.646,1102.454,276.747,1102.461,257.847z"/>
			
				
			
				
			
				
			<path style="fill-rule: evenodd; clip-rule: evenodd; fill: rgb(59, 99, 117);" d="M1102.475,217.386&#10;&#9;&#9;&#9;&#9;c-46.202-30.331-95.523-56.228-149.695-60.763c-68.403-5.726-131.956,25.08-190.927,59.738&#10;&#9;&#9;&#9;&#9;c-60.778,35.72-110.793,87.217-185.575,84.29c-72.214-2.827-123.909-74.97-181.667-108.964&#10;&#9;&#9;&#9;&#9;c-53.881-31.712-120.206-11.107-180.141-6.569c-61.495,4.655-133.821,5.906-185.613-26.751&#10;&#9;&#9;&#9;&#9;c-13.543-8.539-25.848-19.689-37.766-31.273c0,5.653,0,8.479,0,14.134c11.625,10.858,23.564,21.561,37.054,29.447&#10;&#9;&#9;&#9;&#9;c53.411,31.226,124.767,32.267,185.916,25.763c59.597-6.339,126.724-30.604,180.365,0.581&#10;&#9;&#9;&#9;&#9;c56.926,33.094,110.252,104.712,181.752,107.324c75.31,2.751,124.636-49.681,185.498-84.716&#10;&#9;&#9;&#9;&#9;c58.464-33.654,122.731-62.594,190.695-56.68c54.087,4.707,103.503,30.075,150.102,59.612&#10;&#9;&#9;&#9;&#9;C1102.474,220.538,1102.474,219.507,1102.475,217.386z"/>
			<path style="fill-rule: evenodd; clip-rule: evenodd; fill: rgb(245, 235, 0);" d="M1102.475,234.958&#10;&#9;&#9;&#9;&#9;c-46.202-30.331-95.523-56.228-149.695-60.763c-68.403-5.726-131.956,25.08-190.927,59.738&#10;&#9;&#9;&#9;&#9;c-60.778,35.72-110.793,87.217-185.575,84.29c-72.214-2.827-123.909-74.97-181.667-108.964&#10;&#9;&#9;&#9;&#9;c-53.881-31.712-120.206-11.107-180.141-6.569c-61.495,4.655-133.821,5.906-185.613-26.751&#10;&#9;&#9;&#9;&#9;c-13.543-8.539-25.848-19.689-37.766-31.273c0,5.653,0,8.479,0,14.134c11.625,10.858,23.564,21.561,37.054,29.447&#10;&#9;&#9;&#9;&#9;c53.411,31.226,124.767,32.267,185.916,25.763c59.597-6.339,126.724-30.604,180.365,0.581&#10;&#9;&#9;&#9;&#9;c56.926,33.094,110.252,104.712,181.752,107.324c75.31,2.751,124.636-49.681,185.498-84.716&#10;&#9;&#9;&#9;&#9;c58.464-33.654,122.731-62.594,190.695-56.68c54.087,4.707,103.503,30.075,150.102,59.612&#10;&#9;&#9;&#9;&#9;C1102.474,238.11,1102.474,237.079,1102.475,234.958z"/>
			<path style="fill-rule: evenodd; clip-rule: evenodd; fill: rgb(160, 53, 67);" d="M1102.442,580.813&#10;&#9;&#9;&#9;&#9;c-51.405-48.049-102.123-98.561-157.93-140.249c-55.249-41.271-122.059-75.04-188.936-52.995&#10;&#9;&#9;&#9;&#9;c-62.025,20.446-120.968,45.041-188.768,38.194c-36.947-3.731-68.454-20.702-101.81-38.225&#10;&#9;&#9;&#9;&#9;c-26.934-14.15-59.43-31.052-90.376-19.568c-41.245,15.307-71.864,62.955-95.887,97.003&#10;&#9;&#9;&#9;&#9;c-30.759,43.594-60.349,88.823-95.735,127.686C134.886,645.502,68.098,696.652-8.909,687.36c0,3.374,0,5.053,0,8.403&#10;&#9;&#9;&#9;&#9;c76.858,9.195,143.211-38.229,191.576-91.277c35.822-39.291,65.373-85.416,95.675-130.148&#10;&#9;&#9;&#9;&#9;c24.227-35.763,53.458-85.386,95.867-102.324c30.786-12.295,63.388,4.144,90.446,18.199&#10;&#9;&#9;&#9;&#9;c33.487,17.395,65.039,34.409,102.053,38.19c67.481,6.893,126.69-16.859,188.716-36.302&#10;&#9;&#9;&#9;&#9;c67.368-21.117,134.031,14.623,188.777,56.774c55.845,42.997,106.592,94.581,158.241,143.556&#10;&#9;&#9;&#9;&#9;C1102.442,587.816,1102.442,585.491,1102.442,580.813z"/>
			
				
		</g></g></g></svg>