<?xml version="1.0" encoding="utf-8"?>
<svg id="master-artboard" viewBox="0 0 1280 720" version="1.1" xmlns="http://www.w3.org/2000/svg" x="0px" y="0px" style="enable-background:new 0 0 1096 780;" width="1280px" height="720px"><defs><clipPath id="clip-0">
<path clip-rule="nonzero" d="M 0 0 L 3000 0 L 3000 2999.988281 L 0 2999.988281 Z M 0 0 "/>
</clipPath><radialGradient id="radial-pattern-0" gradientUnits="userSpaceOnUse" cx="0" cy="0" fx="0" fy="0" r="1730.04" gradientTransform="matrix(-0.867015, 0, 0, 1.132985, 1500, 1499.99)">
<stop offset="0" stop-color="rgb(94.064331%, 92.457581%, 82.615662%)" stop-opacity="1"/>
<stop offset="0.0625" stop-color="rgb(93.943787%, 92.245483%, 82.312012%)" stop-opacity="1"/>
<stop offset="0.121094" stop-color="rgb(93.807983%, 92.007446%, 81.971741%)" stop-opacity="1"/>
<stop offset="0.175781" stop-color="rgb(93.681335%, 91.786194%, 81.655884%)" stop-opacity="1"/>
<stop offset="0.226562" stop-color="rgb(93.563843%, 91.5802%, 81.362915%)" stop-opacity="1"/>
<stop offset="0.273438" stop-color="rgb(93.455505%, 91.392517%, 81.092834%)" stop-opacity="1"/>
<stop offset="0.316406" stop-color="rgb(93.357849%, 91.220093%, 80.845642%)" stop-opacity="1"/>
<stop offset="0.355469" stop-color="rgb(93.263245%, 91.055298%, 80.612183%)" stop-opacity="1"/>
<stop offset="0.394531" stop-color="rgb(93.174744%, 90.898132%, 80.387878%)" stop-opacity="1"/>
<stop offset="0.429688" stop-color="rgb(93.089294%, 90.750122%, 80.177307%)" stop-opacity="1"/>
<stop offset="0.464844" stop-color="rgb(93.009949%, 90.611267%, 79.977417%)" stop-opacity="1"/>
<stop offset="0.496094" stop-color="rgb(92.897034%, 90.414429%, 79.696655%)" stop-opacity="1"/>
<stop offset="0.558594" stop-color="rgb(92.756653%, 90.167236%, 79.344177%)" stop-opacity="1"/>
<stop offset="0.613281" stop-color="rgb(92.634583%, 89.953613%, 79.039001%)" stop-opacity="1"/>
<stop offset="0.660156" stop-color="rgb(92.544556%, 89.785767%, 78.794861%)" stop-opacity="1"/>
<stop offset="0.679688" stop-color="rgb(92.462158%, 89.590454%, 78.503418%)" stop-opacity="1"/>
<stop offset="0.699219" stop-color="rgb(92.373657%, 89.36615%, 78.167725%)" stop-opacity="1"/>
<stop offset="0.714844" stop-color="rgb(92.292786%, 89.16626%, 77.868652%)" stop-opacity="1"/>
<stop offset="0.730469" stop-color="rgb(92.21344%, 88.96637%, 77.56958%)" stop-opacity="1"/>
<stop offset="0.746094" stop-color="rgb(92.134094%, 88.768005%, 77.268982%)" stop-opacity="1"/>
<stop offset="0.761719" stop-color="rgb(92.063904%, 88.592529%, 77.006531%)" stop-opacity="1"/>
<stop offset="0.773438" stop-color="rgb(92.004395%, 88.442993%, 76.782227%)" stop-opacity="1"/>
<stop offset="0.785156" stop-color="rgb(91.943359%, 88.293457%, 76.557922%)" stop-opacity="1"/>
<stop offset="0.796875" stop-color="rgb(91.88385%, 88.143921%, 76.333618%)" stop-opacity="1"/>
<stop offset="0.808594" stop-color="rgb(91.824341%, 87.994385%, 76.109314%)" stop-opacity="1"/>
<stop offset="0.820312" stop-color="rgb(91.744995%, 87.794495%, 75.810242%)" stop-opacity="1"/>
<stop offset="0.839844" stop-color="rgb(91.644287%, 87.545776%, 75.436401%)" stop-opacity="1"/>
<stop offset="0.859375" stop-color="rgb(91.555786%, 87.321472%, 75.100708%)" stop-opacity="1"/>
<stop offset="0.875" stop-color="rgb(91.474915%, 87.121582%, 74.801636%)" stop-opacity="1"/>
<stop offset="0.890625" stop-color="rgb(91.404724%, 86.947632%, 74.539185%)" stop-opacity="1"/>
<stop offset="0.902344" stop-color="rgb(91.345215%, 86.798096%, 74.31488%)" stop-opacity="1"/>
<stop offset="0.914062" stop-color="rgb(91.265869%, 86.598206%, 74.015808%)" stop-opacity="1"/>
<stop offset="0.933594" stop-color="rgb(91.175842%, 86.373901%, 73.680115%)" stop-opacity="1"/>
<stop offset="0.949219" stop-color="rgb(91.105652%, 86.199951%, 73.417664%)" stop-opacity="1"/>
<stop offset="0.960938" stop-color="rgb(91.027832%, 86.003113%, 73.121643%)" stop-opacity="1"/>
<stop offset="1" stop-color="rgb(90.979004%, 85.881042%, 72.940063%)" stop-opacity="1"/>
</radialGradient></defs><g transform="matrix(0.4905003011226654, -0.053482722491025925, 0.053482722491025925, 0.4905003011226654, -61.05796317614883, -28.03987038623349)"><path fill-rule="nonzero" fill="rgb(78.90625%, 57.226562%, 13.719177%)" fill-opacity="1" d="M 1888.050781 1372.128906 C 1259.789062 1113.488281 630.386719 857.441406 0 604.039062 L 0 464.21875 C 611.59375 724.488281 1222.890625 985.851562 1831.761719 1252.429688 C 1955.558594 925.570312 2119.300781 513.730469 2538.46875 800.539062 C 2771.558594 960.019531 2842.679688 1242.148438 2808.28125 1512.671875 C 2765.820312 1846.539062 2720.359375 2179.820312 2672.671875 2513 L 3000 2547.269531 L 3000 2636.03125 L 2598.058594 2604.46875 C 2655.058594 2234.921875 2710.621094 1864.851562 2762.570312 1494.539062 C 2797.648438 1244.300781 2739.550781 978.5 2508.460938 839.589844 C 2105.589844 597.441406 1986.949219 1097.390625 1888.050781 1372.128906 " style="fill: rgb(59, 99, 117);"/><path fill-rule="nonzero" fill="rgb(78.90625%, 78.90625%, 13.719177%)" fill-opacity="1" d="M 1960.28125 1523.230469 C 1307.871094 1275.101562 654.414062 1029.511719 0 786.710938 L 0 641.679688 C 635.855469 893.398438 1270.988281 1147.140625 1904.609375 1404.449219 C 1997.648438 1141.808594 2110.78125 628.171875 2494.371094 847.351562 C 2725.710938 979.539062 2786.191406 1232.46875 2750.5 1481.050781 C 2695.421875 1864.421875 2636.828125 2247.199219 2576.171875 2629.730469 L 3000 2660.101562 L 3000 2751.410156 L 2491.820312 2731.210938 C 2564.890625 2309.929688 2635.378906 1888.199219 2701.628906 1465.78125 C 2737.171875 1239.109375 2697.558594 1007.199219 2474.480469 894.539062 C 2135.890625 723.519531 2040.121094 1283.660156 1960.28125 1523.230469 " style="fill: rgb(117, 115, 59);"/><path fill-rule="nonzero" fill="rgb(61.521912%, 78.90625%, 13.719177%)" fill-opacity="1" d="M 2030.21875 1674.878906 C 1354.121094 1441.339844 677.746094 1208.5 0 979.769531 L 0 829.148438 C 659.710938 1068.75 1318.308594 1311.828125 1976.101562 1556.648438 C 2050.710938 1328.46875 2138.929688 751.589844 2464.210938 905.898438 C 2658.761719 998.191406 2725.921875 1218.480469 2692.21875 1427.828125 C 2620.550781 1872.878906 2545.550781 2317.539062 2465.738281 2761.191406 L 3000 2777.511719 L 3000 2871.828125 L 2370.859375 2874.578125 C 2467.140625 2386.210938 2556.921875 1896.671875 2641.960938 1406.238281 C 2671.910156 1233.519531 2623.140625 1028.160156 2439.171875 964.328125 C 2176.261719 873.101562 2091.25 1478.558594 2030.21875 1674.878906 " style="fill: rgb(245, 235, 0);"/><path fill-rule="nonzero" fill="rgb(78.90625%, 13.330078%, 15.281677%)" fill-opacity="1" d="M 1741.148438 1067.210938 C 1163.25 792.5 580.890625 525.769531 0 257.359375 L 0 125.410156 C 560.847656 397.671875 1124.449219 665.96875 1682.121094 944.550781 C 1878.601562 527.699219 2216.761719 388.75 2594.171875 693.128906 C 2847.898438 897.75 2952.511719 1224.601562 2919.101562 1548.089844 C 2892.671875 1803.929688 2865.78125 2059.488281 2837.871094 2315.210938 L 3000 2336.371094 L 3000 2418.640625 L 2776.398438 2389.789062 C 2811.371094 2105.878906 2844.46875 1821.53125 2876.539062 1537.25 C 2911.390625 1228.300781 2819.570312 919.371094 2566.75 731.390625 C 2162.46875 430.808594 1905.929688 677.28125 1741.148438 1067.210938 " style="fill: rgb(245, 45, 45);"/><path fill-rule="nonzero" fill="rgb(78.90625%, 39.598083%, 13.719177%)" fill-opacity="1" d="M 1816.011719 1220.871094 C 1213.078125 951.578125 606.160156 690.050781 0 428.078125 L 0 292.398438 C 586.671875 560.058594 1174.761719 825.628906 1758.511719 1099.578125 C 1915.75 721.898438 2154.828125 441.96875 2562.109375 742.921875 C 2805.800781 923.011719 2900.03125 1228.53125 2865.789062 1525.199219 C 2831.78125 1819.929688 2796.53125 2114.300781 2759.640625 2408.691406 L 3000 2439.089844 L 3000 2524.558594 L 2691.890625 2490.410156 C 2737.171875 2163.710938 2780.078125 1836.929688 2821.710938 1509.769531 C 2857.050781 1231.949219 2775.410156 945.050781 2536.308594 783.511719 C 2116.089844 499.558594 1946.390625 885.070312 1816.011719 1220.871094 " style="fill: rgb(160, 53, 67);"/></g></svg>