<?xml version="1.0" encoding="UTF-8" standalone="no"?>
<svg
   xmlns:dc="http://purl.org/dc/elements/1.1/"
   xmlns:cc="http://creativecommons.org/ns#"
   xmlns:rdf="http://www.w3.org/1999/02/22-rdf-syntax-ns#"
   xmlns:svg="http://www.w3.org/2000/svg"
   xmlns="http://www.w3.org/2000/svg"
   viewBox="0 0 302.36267 302.36267"
   height="302.36267"
   width="302.36267"
   xml:space="preserve"
   id="svg2"
   version="1.1"><metadata
     id="metadata8"><rdf:RDF><cc:Work
         rdf:about=""><dc:format>image/svg+xml</dc:format><dc:type
           rdf:resource="http://purl.org/dc/dcmitype/StillImage" /></cc:Work></rdf:RDF></metadata><defs
     id="defs6"><clipPath
       id="clipPath18"
       clipPathUnits="userSpaceOnUse"><path
         id="path16"
         d="M 0,226.772 H 226.772 V 0 H 0 Z" /></clipPath></defs><g
     transform="matrix(1.3333333,0,0,-1.3333333,0,302.36267)"
     id="g10"><g
       id="g12"><g
         clip-path="url(#clipPath18)"
         id="g14"><g
           transform="translate(226.7712,113.3853)"
           id="g20"><path
             id="path22"
             style="fill:#231f20;fill-opacity:1;fill-rule:nonzero;stroke:none"
             d="m 0,0 c 0,-62.621 -50.764,-113.386 -113.386,-113.386 -62.621,0 -113.385,50.765 -113.385,113.386 0,62.622 50.764,113.387 113.385,113.387 C -50.764,113.387 0,62.622 0,0" /></g><g
           transform="translate(36.6238,178.067)"
           id="g24"><path
             id="path26"
             style="fill:#ffffff;fill-opacity:1;fill-rule:nonzero;stroke:none"
             d="M 0,0 C -0.881,0.784 -0.907,2.114 -0.122,2.967 0.664,3.82 1.978,3.889 2.831,3.103 3.699,2.303 3.752,1.003 2.953,0.135 2.167,-0.718 0.868,-0.8 0,0" /></g><g
           transform="translate(48.2702,196.8941)"
           id="g28"><path
             id="path30"
             style="fill:#ffffff;fill-opacity:1;fill-rule:nonzero;stroke:none"
             d="M 0,0 C 0.098,-0.06 0.152,-0.152 0.166,-0.277 0.167,-0.344 0.158,-0.409 0.142,-0.474 0.139,-0.492 0.133,-0.506 0.122,-0.514 0.111,-0.522 0.1,-0.54 0.087,-0.566 0.074,-0.594 0.055,-0.617 0.028,-0.638 0.002,-0.658 -0.022,-0.687 -0.046,-0.722 L -0.109,-0.771 C -0.144,-0.814 -0.191,-0.86 -0.255,-0.909 l -0.3,-0.234 -0.378,-0.295 C -0.738,-1.709 -0.541,-1.974 -0.34,-2.231 -0.139,-2.489 0.062,-2.759 0.266,-3.04 0.46,-3.312 0.66,-3.578 0.864,-3.841 L 1.479,-4.629 C 1.693,-4.903 1.9,-5.168 2.101,-5.426 2.302,-5.684 2.51,-5.939 2.726,-6.194 2.843,-6.323 2.953,-6.448 3.057,-6.57 3.16,-6.692 3.271,-6.817 3.388,-6.946 3.494,-7.083 3.632,-7.254 3.802,-7.46 3.971,-7.667 4.104,-7.832 4.203,-7.959 4.312,-8.077 4.415,-8.198 4.514,-8.325 4.612,-8.451 4.711,-8.577 4.809,-8.703 L 5.338,-9.382 C 5.414,-9.458 5.441,-9.555 5.421,-9.672 5.4,-9.79 5.347,-9.882 5.26,-9.949 5.174,-10.017 5.076,-10.042 4.968,-10.025 4.859,-10.008 4.772,-9.958 4.707,-9.874 4.59,-9.745 4.48,-9.615 4.378,-9.483 c -0.103,0.13 -0.207,0.264 -0.315,0.402 -0.114,0.146 -0.261,0.336 -0.442,0.567 -0.181,0.232 -0.333,0.416 -0.458,0.556 -0.099,0.126 -0.2,0.25 -0.304,0.372 -0.103,0.122 -0.213,0.247 -0.331,0.376 -0.108,0.118 -0.216,0.24 -0.325,0.368 -0.107,0.127 -0.215,0.259 -0.321,0.396 -0.11,0.118 -0.215,0.243 -0.318,0.374 -0.101,0.132 -0.202,0.26 -0.3,0.386 l -0.627,0.805 c -0.214,0.273 -0.418,0.54 -0.614,0.802 -0.196,0.262 -0.396,0.524 -0.601,0.787 -0.096,0.145 -0.197,0.286 -0.304,0.423 -0.106,0.136 -0.208,0.277 -0.304,0.422 L -1.579,-1.942 -1.8,-2.114 -1.958,-2.237 c -0.053,-0.041 -0.109,-0.077 -0.17,-0.108 -0.082,-0.047 -0.156,-0.093 -0.224,-0.136 -0.067,-0.044 -0.14,-0.081 -0.219,-0.108 -0.101,-0.045 -0.201,-0.047 -0.3,-0.006 -0.11,0.032 -0.182,0.103 -0.216,0.212 -0.054,0.112 -0.056,0.211 -0.006,0.3 0.017,0.064 0.058,0.121 0.12,0.17 0.011,0.009 0.024,0.014 0.038,0.017 0.015,0.002 0.033,0.012 0.054,0.029 0.04,0.014 0.075,0.034 0.107,0.058 0.032,0.025 0.067,0.044 0.107,0.058 0.092,0.055 0.186,0.12 0.28,0.193 0.095,0.075 0.184,0.144 0.268,0.209 l 0.258,0.202 c 0.026,0.054 0.061,0.098 0.104,0.131 0.011,0.009 0.057,0.028 0.138,0.057 l 0.081,0.063 0.523,0.409 0.269,0.209 c 0.084,0.065 0.142,0.12 0.177,0.163 l 0.031,0.024 c 0.041,0.1 0.128,0.151 0.261,0.153 C -0.179,0.088 -0.086,0.067 0,0" /></g><g
           transform="translate(63.2663,202.5641)"
           id="g32"><path
             id="path34"
             style="fill:#ffffff;fill-opacity:1;fill-rule:nonzero;stroke:none"
             d="m 0,0 c -0.316,0.495 -0.703,1.036 -1.16,1.622 0.106,-0.307 0.208,-0.616 0.303,-0.929 0.094,-0.313 0.199,-0.629 0.312,-0.946 0.1,0.039 0.191,0.081 0.273,0.126 C -0.19,-0.082 -0.1,-0.04 0,0 M 5.254,-5.607 C 5.339,-5.652 5.391,-5.727 5.41,-5.83 5.429,-5.934 5.409,-6.031 5.354,-6.123 5.304,-6.227 5.225,-6.284 5.118,-6.297 5.011,-6.311 4.909,-6.298 4.812,-6.26 4.733,-6.227 4.619,-6.122 4.47,-5.945 4.32,-5.769 4.165,-5.576 4.006,-5.367 3.846,-5.158 3.695,-4.959 3.554,-4.771 3.413,-4.582 3.313,-4.45 3.258,-4.374 2.729,-3.797 2.246,-3.198 1.809,-2.579 1.371,-1.96 0.92,-1.321 0.454,-0.664 0.331,-0.717 0.211,-0.774 0.094,-0.838 c -0.117,-0.064 -0.246,-0.12 -0.388,-0.167 0.047,-0.141 0.091,-0.284 0.132,-0.429 0.041,-0.145 0.085,-0.288 0.132,-0.429 0.143,-0.485 0.291,-0.962 0.442,-1.434 0.151,-0.472 0.308,-0.952 0.469,-1.441 0.124,-0.449 0.265,-0.897 0.425,-1.341 0.16,-0.444 0.329,-0.914 0.508,-1.409 0.035,-0.118 0.014,-0.22 -0.06,-0.307 -0.085,-0.122 -0.202,-0.179 -0.352,-0.169 -0.15,0.009 -0.275,0.108 -0.378,0.295 -0.107,0.307 -0.213,0.612 -0.32,0.919 -0.106,0.307 -0.208,0.616 -0.303,0.929 -0.201,0.619 -0.393,1.235 -0.578,1.849 -0.183,0.614 -0.401,1.262 -0.652,1.946 -0.124,0.448 -0.269,0.921 -0.433,1.416 -0.164,0.495 -0.32,0.975 -0.468,1.441 -0.054,0.153 -0.106,0.304 -0.156,0.451 -0.051,0.147 -0.102,0.297 -0.155,0.45 -0.053,0.123 -0.102,0.242 -0.147,0.353 -0.046,0.112 -0.089,0.232 -0.13,0.362 -0.013,0.024 -0.022,0.061 -0.027,0.112 -0.005,0.05 0,0.132 0.014,0.246 -0.035,0.148 0.015,0.278 0.151,0.39 0.136,0.113 0.284,0.121 0.443,0.026 C -1.555,3.107 -1.38,2.983 -1.214,2.846 -1.048,2.709 -0.901,2.553 -0.776,2.379 -0.241,1.79 0.241,1.149 0.673,0.458 1.104,-0.233 1.57,-0.928 2.073,-1.625 2.399,-2.055 2.724,-2.467 3.045,-2.86 3.367,-3.254 3.697,-3.663 4.034,-4.086 4.26,-4.358 4.459,-4.606 4.635,-4.829 4.81,-5.053 5.017,-5.312 5.254,-5.607" /></g><g
           transform="translate(76.8757,212.8736)"
           id="g36"><path
             id="path38"
             style="fill:#ffffff;fill-opacity:1;fill-rule:nonzero;stroke:none"
             d="M 0,0 C 0.009,0.017 0.025,0.03 0.051,0.038 0.076,0.047 0.099,0.062 0.12,0.083 0.146,0.092 0.168,0.106 0.189,0.128 0.215,0.136 0.234,0.139 0.25,0.137 0.265,0.135 0.284,0.139 0.31,0.146 c 0.085,0 0.16,-0.016 0.227,-0.049 0.094,-0.068 0.156,-0.13 0.191,-0.189 0.038,-0.03 0.066,-0.062 0.085,-0.098 0.019,-0.036 0.04,-0.064 0.061,-0.085 0.025,-0.034 0.051,-0.068 0.076,-0.101 0.026,-0.034 0.051,-0.067 0.076,-0.102 0.11,-0.117 0.215,-0.24 0.315,-0.368 0.098,-0.129 0.191,-0.256 0.275,-0.382 0.17,-0.252 0.348,-0.488 0.534,-0.707 0.042,-0.042 0.08,-0.082 0.115,-0.12 0.033,-0.038 0.071,-0.078 0.114,-0.12 0.004,0.072 0.01,0.138 0.017,0.196 0.009,0.059 0.015,0.125 0.019,0.197 l 0.167,1.196 c 0.034,0.151 0.064,0.299 0.094,0.442 C 2.705,0 2.729,0.146 2.751,0.293 2.759,0.353 2.773,0.413 2.794,0.477 2.815,0.54 2.829,0.602 2.838,0.66 2.862,0.753 2.884,0.816 2.9,0.851 2.938,0.905 2.972,0.951 3.001,0.99 3.031,1.027 3.077,1.058 3.141,1.079 3.305,1.134 3.441,1.103 3.552,0.985 3.615,0.922 3.659,0.853 3.686,0.776 L 3.704,0.72 C 3.713,0.694 3.717,0.672 3.717,0.65 3.717,0.629 3.722,0.606 3.729,0.581 3.76,0.492 3.776,0.421 3.781,0.366 3.807,0.29 3.829,0.213 3.849,0.136 3.867,0.058 3.89,-0.02 3.915,-0.096 c 0.039,-0.155 0.076,-0.308 0.112,-0.458 0.036,-0.149 0.08,-0.3 0.131,-0.451 0.052,-0.152 0.103,-0.304 0.154,-0.455 0.05,-0.152 0.108,-0.302 0.171,-0.449 0.064,-0.148 0.121,-0.297 0.173,-0.448 0.051,-0.152 0.104,-0.31 0.159,-0.474 0.068,-0.16 0.125,-0.32 0.172,-0.481 0.047,-0.16 0.105,-0.32 0.173,-0.479 0.047,-0.14 0.099,-0.284 0.156,-0.434 0.057,-0.149 0.118,-0.297 0.182,-0.445 0.067,-0.16 0.13,-0.314 0.188,-0.464 0.057,-0.149 0.118,-0.298 0.181,-0.445 0.064,-0.148 0.12,-0.294 0.169,-0.44 C 6.085,-6.164 6.142,-6.31 6.205,-6.457 6.443,-7.039 6.697,-7.607 6.969,-8.163 7.054,-8.331 7.135,-8.497 7.211,-8.661 7.287,-8.826 7.368,-8.992 7.453,-9.16 7.479,-9.236 7.471,-9.338 7.429,-9.464 7.378,-9.565 7.303,-9.633 7.201,-9.667 7.075,-9.71 6.974,-9.701 6.897,-9.643 c -0.05,0.026 -0.101,0.072 -0.152,0.139 -0.02,0.021 -0.038,0.051 -0.051,0.088 -0.05,0.109 -0.101,0.219 -0.152,0.329 -0.051,0.109 -0.1,0.212 -0.146,0.31 -0.17,0.336 -0.329,0.67 -0.475,1.001 -0.147,0.33 -0.292,0.668 -0.436,1.013 -0.059,0.135 -0.115,0.278 -0.166,0.43 -0.05,0.151 -0.108,0.301 -0.172,0.448 -0.064,0.148 -0.128,0.298 -0.194,0.451 -0.066,0.155 -0.131,0.305 -0.194,0.453 -0.064,0.147 -0.124,0.295 -0.182,0.445 -0.057,0.149 -0.114,0.306 -0.169,0.471 -0.064,0.147 -0.119,0.3 -0.166,0.461 -0.047,0.16 -0.097,0.322 -0.153,0.486 C 4.025,-2.971 3.968,-2.821 3.917,-2.669 3.866,-2.518 3.809,-2.368 3.745,-2.221 3.681,-2.073 3.624,-1.924 3.572,-1.772 3.521,-1.621 3.471,-1.469 3.42,-1.317 3.373,-1.179 3.345,-1.075 3.336,-1.008 3.29,-1.206 3.258,-1.4 3.237,-1.59 3.217,-1.78 3.198,-1.976 3.182,-2.179 3.178,-2.25 3.174,-2.322 3.17,-2.394 3.166,-2.465 3.162,-2.537 3.157,-2.608 3.158,-2.65 3.157,-2.689 3.155,-2.726 3.152,-2.762 3.151,-2.801 3.152,-2.843 3.156,-2.897 3.161,-2.952 3.165,-3.007 3.17,-3.062 3.165,-3.112 3.153,-3.159 3.145,-3.26 3.088,-3.343 2.983,-3.406 2.928,-3.453 2.865,-3.474 2.794,-3.47 2.718,-3.495 2.65,-3.483 2.591,-3.433 2.545,-3.42 2.496,-3.38 2.445,-3.313 c -0.021,0.021 -0.042,0.04 -0.06,0.054 -0.019,0.015 -0.039,0.032 -0.061,0.054 -0.062,0.02 -0.111,0.06 -0.145,0.119 L 1.894,-2.802 C 1.771,-2.688 1.655,-2.565 1.548,-2.433 1.439,-2.301 1.328,-2.169 1.214,-2.039 1.168,-1.984 1.129,-1.931 1.097,-1.878 1.065,-1.825 1.032,-1.77 0.998,-1.711 0.99,-1.728 0.992,-1.755 1.005,-1.793 1.052,-1.974 1.104,-2.16 1.161,-2.352 c 0.058,-0.192 0.106,-0.386 0.145,-0.585 0.076,-0.311 0.16,-0.621 0.249,-0.928 0.09,-0.308 0.174,-0.624 0.256,-0.948 0.039,-0.157 0.081,-0.315 0.127,-0.474 0.047,-0.161 0.083,-0.32 0.11,-0.481 0.038,-0.156 0.075,-0.308 0.112,-0.458 0.036,-0.15 0.073,-0.302 0.111,-0.459 0.04,-0.155 0.082,-0.313 0.128,-0.473 0.047,-0.16 0.09,-0.319 0.128,-0.474 0.043,-0.169 0.087,-0.33 0.132,-0.483 0.044,-0.155 0.088,-0.316 0.131,-0.484 l 0.575,-1.895 c 0.021,-0.107 0.01,-0.208 -0.034,-0.308 -0.044,-0.098 -0.116,-0.166 -0.218,-0.199 -0.101,-0.034 -0.202,-0.026 -0.303,0.024 -0.102,0.05 -0.169,0.125 -0.204,0.227 -0.106,0.358 -0.214,0.712 -0.325,1.062 -0.111,0.349 -0.214,0.706 -0.307,1.068 -0.038,0.155 -0.082,0.307 -0.131,0.451 -0.049,0.146 -0.093,0.296 -0.131,0.452 -0.03,0.173 -0.067,0.336 -0.112,0.49 -0.045,0.154 -0.086,0.309 -0.124,0.464 -0.043,0.169 -0.084,0.331 -0.122,0.488 -0.039,0.155 -0.078,0.311 -0.116,0.466 -0.03,0.173 -0.07,0.336 -0.122,0.488 -0.051,0.151 -0.095,0.304 -0.134,0.461 -0.077,0.311 -0.157,0.623 -0.24,0.932 -0.083,0.31 -0.163,0.62 -0.239,0.932 -0.039,0.156 -0.081,0.31 -0.125,0.465 -0.045,0.153 -0.089,0.314 -0.131,0.483 -0.035,0.143 -0.073,0.288 -0.115,0.436 -0.043,0.147 -0.075,0.295 -0.097,0.442 -0.029,0.089 -0.052,0.176 -0.067,0.263 -0.015,0.086 -0.031,0.176 -0.048,0.268 l -0.026,0.202 C -0.115,-0.369 -0.117,-0.3 -0.113,-0.228 -0.101,-0.139 -0.062,-0.063 0,0" /></g><g
           transform="translate(97.7224,214.0143)"
           id="g40"><path
             id="path42"
             style="fill:#ffffff;fill-opacity:1;fill-rule:nonzero;stroke:none"
             d="M 0,0 C -0.127,0.574 -0.304,1.215 -0.531,1.923 -0.536,1.599 -0.549,1.272 -0.566,0.946 -0.586,0.62 -0.597,0.288 -0.6,-0.05 c 0.108,0.003 0.207,0.012 0.3,0.026 C -0.208,-0.011 -0.107,-0.003 0,0 M 3.002,-7.073 C 3.066,-7.145 3.09,-7.231 3.072,-7.336 3.054,-7.439 3.002,-7.524 2.918,-7.591 2.836,-7.671 2.742,-7.698 2.637,-7.674 2.532,-7.649 2.44,-7.602 2.363,-7.533 2.301,-7.475 2.229,-7.337 2.149,-7.12 2.069,-6.902 1.991,-6.668 1.913,-6.417 1.835,-6.166 1.762,-5.928 1.694,-5.702 1.627,-5.477 1.579,-5.318 1.553,-5.228 1.255,-4.504 1.008,-3.775 0.811,-3.043 0.612,-2.312 0.408,-1.557 0.197,-0.779 0.063,-0.786 -0.069,-0.799 -0.201,-0.818 -0.333,-0.839 -0.474,-0.847 -0.622,-0.842 -0.627,-0.991 -0.635,-1.141 -0.646,-1.29 -0.657,-1.44 -0.665,-1.59 -0.67,-1.738 -0.702,-2.242 -0.729,-2.742 -0.748,-3.236 -0.769,-3.732 -0.787,-4.237 -0.805,-4.752 -0.843,-5.216 -0.863,-5.685 -0.866,-6.156 -0.87,-6.629 -0.873,-7.128 -0.875,-7.654 -0.884,-7.777 -0.937,-7.866 -1.037,-7.921 -1.159,-8.007 -1.288,-8.02 -1.426,-7.959 c -0.136,0.06 -0.22,0.195 -0.253,0.406 0.005,0.324 0.011,0.65 0.016,0.974 0.006,0.324 0.017,0.649 0.036,0.975 0.023,0.652 0.055,1.296 0.094,1.936 0.039,0.64 0.057,1.323 0.056,2.051 0.039,0.464 0.066,0.957 0.081,1.478 0.017,0.522 0.036,1.027 0.057,1.516 0.002,0.162 0.005,0.32 0.009,0.477 0.004,0.155 0.007,0.314 0.01,0.476 -0.007,0.134 -0.013,0.261 -0.017,0.382 -0.005,0.12 -0.004,0.249 0.003,0.385 -0.004,0.026 0,0.063 0.013,0.113 0.013,0.049 0.046,0.124 0.097,0.227 0.018,0.151 0.111,0.255 0.277,0.314 C -0.78,3.81 -0.64,3.767 -0.523,3.622 -0.391,3.453 -0.27,3.276 -0.16,3.091 -0.052,2.904 0.031,2.708 0.09,2.501 0.389,1.764 0.622,0.996 0.789,0.199 c 0.167,-0.798 0.366,-1.61 0.599,-2.438 0.158,-0.516 0.32,-1.014 0.486,-1.494 0.166,-0.481 0.336,-0.978 0.507,-1.492 0.117,-0.333 0.22,-0.634 0.307,-0.904 0.088,-0.27 0.193,-0.585 0.314,-0.944" /></g><g
           transform="translate(113.6394,215.3785)"
           id="g44"><path
             id="path46"
             style="fill:#ffffff;fill-opacity:1;fill-rule:nonzero;stroke:none"
             d="M 0,0 C 0.134,0.024 0.233,0.05 0.301,0.075 0.368,0.087 0.428,0.1 0.481,0.112 0.535,0.125 0.596,0.144 0.663,0.169 0.689,0.182 0.716,0.195 0.743,0.208 0.771,0.221 0.797,0.233 0.824,0.247 0.852,0.286 0.886,0.322 0.926,0.355 0.967,0.388 1,0.424 1.027,0.464 1.068,0.529 1.109,0.589 1.15,0.642 1.191,0.694 1.226,0.754 1.253,0.82 L 1.317,1.059 C 1.332,1.179 1.338,1.295 1.333,1.409 1.328,1.521 1.319,1.639 1.309,1.759 1.296,1.812 1.287,1.866 1.281,1.92 1.275,1.973 1.26,2.033 1.234,2.101 1.208,2.127 1.182,2.168 1.156,2.222 1.13,2.249 1.11,2.269 1.097,2.282 1.084,2.296 1.064,2.316 1.038,2.344 0.985,2.371 0.938,2.398 0.899,2.426 0.859,2.453 0.813,2.48 0.761,2.508 0.535,2.592 0.31,2.655 0.084,2.699 0.067,2.526 0.058,2.353 0.056,2.18 0.053,2.006 0.05,1.833 0.047,1.659 0.03,1.46 0.021,1.26 0.018,1.06 0.014,0.86 0.011,0.66 0.008,0.46 Z M 2.43,-6.8 C 2.428,-6.947 2.429,-7.097 2.433,-7.25 2.437,-7.403 2.425,-7.554 2.396,-7.699 2.395,-7.753 2.38,-7.819 2.353,-7.899 L 2.271,-7.978 C 2.203,-8.057 2.109,-8.095 1.989,-8.093 1.882,-8.092 1.79,-8.05 1.711,-7.969 c -0.078,0.081 -0.117,0.175 -0.115,0.282 0.029,0.146 0.041,0.292 0.037,0.44 -0.005,0.146 -0.005,0.293 -0.003,0.439 -0.011,0.161 -0.018,0.351 -0.021,0.572 -0.004,0.219 -0.01,0.41 -0.021,0.57 0.003,0.159 0.002,0.323 -0.002,0.49 -0.004,0.166 -0.011,0.33 -0.022,0.49 C 1.543,-4.365 1.524,-4.045 1.51,-3.725 1.495,-3.404 1.47,-3.084 1.436,-2.764 1.411,-2.616 1.383,-2.466 1.353,-2.313 1.321,-2.158 1.287,-2.008 1.25,-1.86 1.187,-1.566 1.112,-1.292 1.023,-1.036 0.997,-0.983 0.968,-0.929 0.936,-0.875 0.903,-0.821 0.874,-0.768 0.849,-0.714 0.836,-0.687 0.826,-0.67 0.819,-0.663 0.812,-0.656 0.803,-0.64 0.79,-0.612 0.736,-0.639 0.696,-0.651 0.67,-0.65 0.603,-0.677 0.532,-0.698 0.458,-0.718 0.385,-0.736 0.314,-0.752 0.248,-0.764 0.207,-0.776 0.167,-0.782 0.127,-0.782 0.087,-0.781 0.047,-0.788 0.007,-0.8 0.005,-0.92 0.003,-1.044 0.001,-1.17 -0.001,-1.297 0.004,-1.42 0.015,-1.54 0.012,-1.714 0.016,-1.884 0.026,-2.051 c 0.011,-0.167 0.022,-0.337 0.033,-0.511 0.01,-0.16 0.017,-0.323 0.021,-0.49 0.004,-0.167 0.005,-0.33 0.003,-0.49 0.021,-0.347 0.035,-0.684 0.043,-1.011 0.008,-0.327 0.022,-0.664 0.044,-1.01 l 0.032,-0.481 c 0.011,-0.16 0.015,-0.32 0.012,-0.48 -0.001,-0.08 0,-0.194 0.005,-0.34 0.004,-0.148 0.006,-0.267 0.004,-0.361 0,-0.026 0.002,-0.059 0.008,-0.099 0.006,-0.04 0.009,-0.08 0.008,-0.12 L 0.236,-7.645 C 0.247,-7.752 0.206,-7.852 0.111,-7.942 0.043,-8.009 -0.051,-8.04 -0.17,-8.038 c -0.094,10e-4 -0.186,0.036 -0.278,0.104 -0.053,0.081 -0.085,0.142 -0.098,0.182 0.001,0.026 -0.003,0.047 -0.009,0.06 -0.007,0.013 -0.009,0.034 -0.008,0.06 l 0.003,0.26 c 0.001,0.04 -0.002,0.083 -0.007,0.131 -0.006,0.046 -0.009,0.09 -0.008,0.13 0.002,0.106 0,0.24 -0.004,0.4 -0.004,0.159 -0.005,0.293 -0.003,0.399 -0.011,0.201 -0.021,0.401 -0.03,0.601 -0.011,0.2 -0.021,0.4 -0.031,0.601 -0.021,0.334 -0.036,0.664 -0.044,0.991 -0.008,0.326 -0.016,0.657 -0.024,0.99 l -0.043,1.021 c -0.012,0.161 -0.018,0.324 -0.022,0.491 -0.004,0.166 -0.012,0.33 -0.023,0.49 -0.008,0.347 -0.009,0.684 -0.003,1.01 0.005,0.327 0.011,0.663 0.016,1.01 0.016,0.16 0.022,0.32 0.018,0.48 -0.004,0.16 0.002,0.326 0.018,0.499 0.003,0.187 0.01,0.38 0.02,0.58 0.009,0.2 0.023,0.393 0.039,0.579 0.002,0.108 0.044,0.2 0.125,0.279 0.053,0.052 0.128,0.09 0.221,0.116 0.014,0.013 0.028,0.023 0.041,0.029 0.013,0.007 0.027,0.017 0.04,0.029 0.054,0.04 0.121,0.059 0.202,0.058 C -0.036,3.541 -0.017,3.537 -0.003,3.53 0.01,3.523 0.023,3.521 0.037,3.52 0.144,3.491 0.246,3.47 0.346,3.455 0.445,3.439 0.549,3.418 0.655,3.39 0.761,3.361 0.86,3.33 0.953,3.295 1.046,3.26 1.139,3.215 1.231,3.16 1.298,3.133 1.383,3.078 1.488,2.996 1.515,2.969 1.538,2.948 1.558,2.936 1.577,2.922 1.601,2.901 1.627,2.874 1.666,2.847 1.699,2.816 1.726,2.782 1.751,2.749 1.777,2.712 1.804,2.671 1.869,2.604 1.918,2.529 1.95,2.449 1.981,2.368 2.011,2.288 2.036,2.207 2.061,2.101 2.073,2.02 2.072,1.967 2.109,1.779 2.126,1.593 2.123,1.406 2.121,1.312 2.12,1.223 2.118,1.136 2.117,1.049 2.108,0.959 2.094,0.866 2.065,0.773 2.041,0.687 2.021,0.607 1.999,0.527 1.961,0.448 1.906,0.369 1.865,0.29 1.823,0.214 1.782,0.142 1.741,0.068 1.687,-0.001 1.619,-0.066 1.592,-0.105 1.544,-0.158 1.477,-0.224 c 0.026,-0.027 0.042,-0.05 0.048,-0.071 0.006,-0.019 0.023,-0.044 0.049,-0.07 0.039,-0.081 0.077,-0.161 0.116,-0.242 0.039,-0.08 0.071,-0.162 0.096,-0.242 0.065,-0.148 0.115,-0.298 0.153,-0.453 0.038,-0.153 0.076,-0.304 0.113,-0.451 0.075,-0.321 0.13,-0.643 0.164,-0.963 0.035,-0.321 0.063,-0.641 0.085,-0.962 0.021,-0.334 0.039,-0.664 0.053,-0.991 0.015,-0.327 0.027,-0.657 0.035,-0.99 0.01,-0.148 0.017,-0.334 0.02,-0.561 0.003,-0.226 0.01,-0.42 0.021,-0.58" /></g><g
           transform="translate(129.863,206.5553)"
           id="g48"><path
             id="path50"
             style="fill:#ffffff;fill-opacity:1;fill-rule:nonzero;stroke:none"
             d="m 0,0 c 0.021,-0.112 0.018,-0.22 -0.013,-0.322 -0.056,-0.099 -0.128,-0.161 -0.214,-0.188 -0.086,-0.04 -0.195,-0.036 -0.322,0.013 l -0.058,0.01 c -0.065,0.023 -0.128,0.044 -0.193,0.061 -0.065,0.018 -0.13,0.032 -0.196,0.043 -0.094,0.002 -0.181,0.009 -0.26,0.023 -0.079,0.012 -0.165,0.02 -0.26,0.022 -0.105,0.018 -0.19,0.072 -0.256,0.164 -0.066,0.092 -0.09,0.191 -0.073,0.296 0.018,0.105 0.072,0.19 0.164,0.257 0.092,0.065 0.191,0.09 0.296,0.072 0.066,-0.011 0.119,-0.013 0.161,-0.006 -0.006,0.041 -0.002,0.115 0.016,0.22 0.004,0.107 0.015,0.211 0.03,0.31 0.017,0.098 0.027,0.201 0.032,0.308 0.021,0.213 0.049,0.425 0.084,0.635 0.035,0.211 0.062,0.422 0.084,0.635 0.026,0.158 0.049,0.316 0.069,0.475 0.018,0.16 0.042,0.318 0.067,0.476 0.029,0.17 0.053,0.336 0.072,0.494 0.019,0.159 0.043,0.324 0.072,0.495 0.041,0.331 0.085,0.658 0.131,0.983 0.046,0.323 0.091,0.656 0.134,1.001 0.013,0.16 0.03,0.319 0.049,0.478 0.02,0.159 0.042,0.317 0.069,0.476 0.012,0.078 0.034,0.21 0.064,0.394 0.031,0.184 0.064,0.385 0.1,0.602 0.036,0.217 0.078,0.433 0.127,0.648 0.048,0.215 0.1,0.405 0.155,0.572 0.013,0.079 0.022,0.155 0.027,0.229 0.006,0.073 0.008,0.15 0.008,0.231 l 0.017,0.099 -0.159,0.026 c -0.105,0.018 -0.19,0.073 -0.256,0.164 -0.066,0.092 -0.09,0.191 -0.073,0.296 0.018,0.105 0.073,0.194 0.165,0.267 0.094,0.072 0.192,0.093 0.295,0.062 0.193,-0.058 0.397,-0.092 0.612,-0.1 0.052,-0.009 0.099,-0.014 0.139,-0.013 0.041,0 0.087,-0.005 0.14,-0.013 l 0.04,-0.006 C 1.19,10.871 1.269,10.852 1.319,10.83 1.372,10.821 1.415,10.794 1.447,10.748 1.48,10.701 1.507,10.657 1.526,10.613 1.575,10.497 1.572,10.396 1.518,10.311 1.474,10.209 1.401,10.141 1.301,10.103 1.229,10.074 1.159,10.065 1.094,10.076 1.067,10.081 1.048,10.087 1.036,10.096 1.023,10.104 1.011,10.11 0.998,10.112 l -0.019,0.003 c 0.026,-0.004 0.042,-0.01 0.047,-0.017 0.005,-0.008 0.022,-0.014 0.048,-0.019 l -0.119,0.02 C 0.963,9.896 0.944,9.702 0.9,9.521 0.892,9.468 0.875,9.362 0.849,9.204 0.822,9.047 0.786,8.87 0.741,8.675 0.695,8.479 0.654,8.291 0.617,8.107 0.58,7.924 0.553,7.78 0.535,7.675 0.508,7.504 0.48,7.34 0.454,7.182 0.428,7.023 0.407,6.858 0.393,6.686 0.38,6.525 0.36,6.366 0.334,6.208 0.309,6.051 0.287,5.885 0.272,5.712 0.231,5.381 0.187,5.054 0.142,4.729 0.095,4.406 0.052,4.086 0.013,3.768 -0.016,3.597 -0.042,3.433 -0.068,3.274 -0.095,3.117 -0.114,2.958 -0.127,2.798 -0.155,2.627 -0.18,2.458 -0.2,2.293 -0.221,2.127 -0.243,1.966 -0.27,1.808 -0.296,1.65 -0.318,1.491 -0.338,1.333 -0.357,1.174 -0.374,1.015 -0.387,0.854 -0.403,0.749 -0.416,0.653 -0.424,0.566 -0.432,0.479 -0.437,0.39 -0.438,0.295 -0.4,0.275 -0.362,0.263 -0.323,0.256 -0.283,0.249 -0.245,0.236 -0.208,0.217 -0.131,0.19 -0.062,0.118 0,0" /></g><g
           transform="translate(148.0935,212.8746)"
           id="g52"><path
             id="path54"
             style="fill:#ffffff;fill-opacity:1;fill-rule:nonzero;stroke:none"
             d="M 0,0 C 0.033,0.102 0.101,0.178 0.202,0.229 0.303,0.279 0.403,0.288 0.505,0.255 0.606,0.222 0.683,0.154 0.733,0.053 0.784,-0.048 0.787,-0.147 0.741,-0.244 0.707,-0.346 0.676,-0.451 0.647,-0.561 0.618,-0.671 0.587,-0.776 0.553,-0.877 0.507,-1.017 0.463,-1.149 0.422,-1.276 0.38,-1.403 0.342,-1.538 0.309,-1.682 0.15,-2.205 -0.019,-2.718 -0.198,-3.22 -0.299,-3.523 -0.398,-3.827 -0.499,-4.132 -0.6,-4.436 -0.715,-4.741 -0.844,-5.05 -0.895,-5.201 -0.948,-5.355 -1.007,-5.512 -1.065,-5.668 -1.126,-5.82 -1.188,-5.968 -1.252,-6.115 -1.312,-6.265 -1.368,-6.414 -1.425,-6.564 -1.486,-6.72 -1.553,-6.88 L -1.859,-7.811 C -1.897,-7.967 -1.941,-8.12 -1.991,-8.272 -2.041,-8.425 -2.085,-8.578 -2.122,-8.734 -2.173,-8.887 -2.22,-9.039 -2.264,-9.193 -2.308,-9.348 -2.356,-9.507 -2.41,-9.672 l -0.157,-0.474 -0.069,-0.209 -0.038,-0.115 c -0.008,-0.025 -0.02,-0.052 -0.037,-0.082 -0.018,-0.029 -0.029,-0.056 -0.038,-0.082 -0.025,-0.034 -0.059,-0.072 -0.101,-0.114 -0.05,-0.067 -0.147,-0.106 -0.291,-0.115 -0.071,-0.004 -0.134,0.016 -0.189,0.062 -0.067,0.051 -0.116,0.106 -0.147,0.164 -0.029,0.06 -0.046,0.124 -0.05,0.197 -0.022,0.105 -0.027,0.198 -0.014,0.278 -0.005,0.071 -0.009,0.143 -0.014,0.215 -0.004,0.071 -0.008,0.143 -0.012,0.215 0.004,0.139 0.005,0.275 0.007,0.408 0.002,0.133 -0.002,0.27 -0.01,0.414 -0.001,0.295 10e-4,0.59 0.007,0.883 0.004,0.293 0.009,0.592 0.012,0.901 0.013,0.164 0.022,0.329 0.028,0.496 0.004,0.167 0.005,0.328 0.001,0.484 0.012,0.165 0.023,0.326 0.033,0.484 0.01,0.158 0.019,0.312 0.027,0.465 0.012,0.333 0.026,0.665 0.044,0.996 0.019,0.331 0.039,0.661 0.064,0.99 0.012,0.164 0.021,0.33 0.027,0.497 0.005,0.166 0.02,0.329 0.046,0.49 0.004,0.055 0.01,0.109 0.021,0.161 0.01,0.053 0.02,0.113 0.028,0.18 -0.109,-0.287 -0.215,-0.578 -0.32,-0.873 -0.104,-0.296 -0.205,-0.589 -0.301,-0.88 -0.113,-0.3 -0.22,-0.605 -0.323,-0.915 -0.101,-0.31 -0.205,-0.624 -0.309,-0.94 -0.05,-0.153 -0.101,-0.304 -0.151,-0.456 -0.05,-0.153 -0.106,-0.302 -0.169,-0.449 -0.05,-0.153 -0.1,-0.304 -0.15,-0.457 -0.051,-0.152 -0.107,-0.301 -0.17,-0.449 -0.024,-0.076 -0.062,-0.177 -0.109,-0.301 -0.049,-0.125 -0.095,-0.253 -0.138,-0.386 -0.044,-0.133 -0.089,-0.259 -0.135,-0.377 -0.047,-0.118 -0.082,-0.215 -0.107,-0.291 -0.067,-0.16 -0.126,-0.321 -0.179,-0.479 -0.052,-0.158 -0.105,-0.319 -0.159,-0.484 -0.046,-0.097 -0.117,-0.172 -0.211,-0.225 -0.095,-0.052 -0.193,-0.062 -0.294,-0.029 -0.102,0.033 -0.181,0.102 -0.238,0.204 -0.058,0.104 -0.063,0.203 -0.017,0.301 0.037,0.114 0.078,0.226 0.122,0.339 0.044,0.112 0.085,0.224 0.122,0.339 0.033,0.1 0.072,0.204 0.114,0.31 0.041,0.105 0.081,0.215 0.119,0.329 0.083,0.211 0.184,0.487 0.303,0.826 0.12,0.34 0.214,0.618 0.286,0.832 0.049,0.153 0.104,0.307 0.163,0.463 0.058,0.157 0.113,0.31 0.163,0.462 l 0.3,0.912 c 0.105,0.317 0.209,0.625 0.317,0.927 0.106,0.303 0.218,0.609 0.335,0.922 0.051,0.151 0.1,0.304 0.15,0.456 0.051,0.151 0.107,0.302 0.17,0.449 0.05,0.153 0.103,0.303 0.159,0.453 0.057,0.15 0.111,0.301 0.16,0.453 0.05,0.152 0.103,0.299 0.157,0.443 0.054,0.143 0.107,0.291 0.157,0.443 0.059,0.135 0.11,0.273 0.156,0.411 0.046,0.14 0.092,0.279 0.139,0.418 0.012,0.038 0.022,0.08 0.031,0.127 0.008,0.046 0.03,0.084 0.068,0.115 0.084,0.126 0.207,0.198 0.367,0.215 l 0.209,-0.068 c 0.059,-0.034 0.11,-0.093 0.152,-0.177 l 0.058,-0.209 c -0.004,-0.012 -0.004,-0.023 0,-0.031 0.005,-0.009 0.005,-0.019 0,-0.032 C -2.23,0.729 -2.229,0.7 -2.231,0.673 -2.233,0.646 -2.227,0.615 -2.209,0.581 -2.217,0.472 -2.221,0.396 -2.221,0.354 -2.237,0.176 -2.253,0.002 -2.267,-0.168 -2.281,-0.34 -2.294,-0.507 -2.307,-0.671 -2.331,-0.832 -2.35,-0.994 -2.361,-1.158 -2.374,-1.323 -2.386,-1.487 -2.398,-1.652 -2.423,-1.812 -2.443,-1.971 -2.46,-2.127 -2.477,-2.282 -2.497,-2.44 -2.521,-2.601 c -0.012,-0.165 -0.024,-0.326 -0.034,-0.484 -0.009,-0.158 -0.021,-0.319 -0.033,-0.484 0,-0.168 -0.005,-0.335 -0.017,-0.499 -0.012,-0.165 -0.025,-0.329 -0.037,-0.494 -0.011,-0.165 -0.021,-0.33 -0.027,-0.497 -0.006,-0.167 -0.013,-0.326 -0.02,-0.477 10e-4,-0.169 -0.005,-0.335 -0.018,-0.5 -0.012,-0.164 -0.018,-0.331 -0.017,-0.499 -0.012,-0.165 -0.021,-0.33 -0.027,-0.497 -0.006,-0.166 -0.009,-0.334 -0.008,-0.503 -0.004,-0.097 -0.006,-0.188 -0.005,-0.272 0,-0.085 -0.002,-0.175 -0.006,-0.272 0.046,0.14 0.09,0.283 0.132,0.431 0.041,0.147 0.085,0.291 0.131,0.43 0.05,0.152 0.103,0.3 0.157,0.444 0.054,0.142 0.107,0.291 0.157,0.443 0.062,0.147 0.123,0.299 0.181,0.455 0.059,0.156 0.119,0.309 0.183,0.456 0.242,0.608 0.464,1.216 0.664,1.824 0.104,0.317 0.211,0.629 0.319,0.937 0.11,0.308 0.209,0.623 0.301,0.943 0.055,0.165 0.104,0.324 0.148,0.479 0.043,0.153 0.09,0.306 0.14,0.459 0.046,0.138 0.086,0.269 0.119,0.392 C -0.104,-0.264 -0.059,-0.135 0,0" /></g><g
           transform="translate(161.3044,200.1685)"
           id="g56"><path
             id="path58"
             style="fill:#ffffff;fill-opacity:1;fill-rule:nonzero;stroke:none"
             d="M 0,0 C 0.104,0.141 0.224,0.33 0.357,0.569 0.49,0.808 0.598,1.004 0.679,1.157 l 0.484,0.92 c 0.068,0.129 0.139,0.27 0.211,0.42 0.071,0.15 0.13,0.297 0.175,0.44 C 1.6,3.061 1.642,3.212 1.675,3.39 1.683,3.461 1.694,3.534 1.711,3.608 1.728,3.683 1.739,3.755 1.747,3.827 1.755,3.898 1.754,3.962 1.747,4.02 1.739,4.076 1.739,4.14 1.746,4.211 1.754,4.283 1.753,4.352 1.742,4.417 1.731,4.483 1.724,4.555 1.72,4.633 1.708,4.669 1.697,4.704 1.687,4.74 1.675,4.776 1.664,4.812 1.653,4.849 L 1.578,5.092 C 1.549,5.152 1.521,5.205 1.492,5.25 1.463,5.296 1.425,5.346 1.379,5.4 1.309,5.468 1.238,5.534 1.168,5.602 1.098,5.669 1.022,5.739 0.94,5.812 0.858,5.886 0.783,5.951 0.717,6.01 0.648,6.067 0.571,6.128 0.483,6.189 0.346,5.9 0.205,5.612 0.062,5.326 -0.082,5.04 -0.228,4.755 -0.377,4.472 -0.539,4.165 -0.698,3.857 -0.854,3.548 -1.01,3.237 -1.153,2.929 -1.285,2.622 -1.343,2.456 -1.432,2.251 -1.554,2.006 -1.675,1.761 -1.765,1.556 -1.821,1.39 -1.891,1.23 -1.96,1.078 -2.028,0.934 -2.097,0.789 -2.172,0.64 -2.253,0.487 -2.403,0.174 -2.556,-0.13 -2.711,-0.425 -2.866,-0.72 -3.014,-1.026 -3.151,-1.346 -3.226,-1.487 -3.298,-1.63 -3.366,-1.774 c -0.07,-0.145 -0.141,-0.289 -0.215,-0.43 -0.038,-0.101 -0.084,-0.201 -0.137,-0.301 -0.053,-0.1 -0.104,-0.198 -0.153,-0.292 0.029,-10e-4 0.05,-0.004 0.061,-0.011 0.012,-0.005 0.034,-0.009 0.063,-0.009 l 0.35,0.018 c 0.323,0.071 0.647,0.171 0.972,0.302 0.283,0.137 0.571,0.324 0.863,0.562 0.211,0.174 0.398,0.356 0.557,0.543 0.091,0.087 0.175,0.182 0.252,0.286 0.077,0.102 0.158,0.206 0.244,0.312 0.098,0.129 0.186,0.26 0.264,0.392 C -0.168,-0.27 -0.086,-0.136 0,0 M 1.386,0.784 C 1.305,0.631 1.198,0.435 1.064,0.196 0.931,-0.043 0.812,-0.232 0.708,-0.373 0.621,-0.509 0.533,-0.647 0.444,-0.788 0.354,-0.93 0.257,-1.07 0.153,-1.211 0.048,-1.353 -0.057,-1.493 -0.16,-1.634 -0.265,-1.774 -0.382,-1.909 -0.509,-2.038 -0.638,-2.166 -0.767,-2.29 -0.897,-2.41 -1.028,-2.529 -1.166,-2.641 -1.312,-2.745 -1.457,-2.85 -1.605,-2.944 -1.756,-3.031 c -0.151,-0.086 -0.314,-0.166 -0.488,-0.24 -0.152,-0.056 -0.3,-0.11 -0.447,-0.16 -0.148,-0.05 -0.302,-0.086 -0.463,-0.106 -0.168,-0.032 -0.347,-0.059 -0.538,-0.078 -0.198,-0.002 -0.375,0.032 -0.535,0.101 -0.101,0.008 -0.184,0.067 -0.247,0.175 -0.011,0.007 -0.019,0.014 -0.022,0.023 -0.003,0.009 -0.01,0.017 -0.022,0.023 l -0.035,0.019 c -0.094,0.049 -0.158,0.128 -0.191,0.236 -0.034,0.108 -0.026,0.21 0.024,0.304 0.08,0.153 0.157,0.305 0.229,0.456 0.072,0.15 0.142,0.305 0.212,0.465 0.08,0.153 0.156,0.305 0.228,0.456 0.072,0.15 0.149,0.302 0.23,0.456 0.132,0.306 0.273,0.605 0.425,0.894 0.153,0.288 0.304,0.589 0.455,0.903 0.161,0.306 0.305,0.622 0.431,0.948 0.063,0.147 0.153,0.345 0.268,0.593 0.116,0.248 0.205,0.446 0.268,0.593 0.282,0.62 0.587,1.243 0.917,1.868 0.161,0.307 0.326,0.617 0.491,0.929 0.164,0.313 0.318,0.634 0.462,0.965 0.069,0.13 0.196,0.198 0.381,0.207 0.121,0.086 0.246,0.096 0.376,0.027 L 0.671,7.017 C 0.824,6.937 0.963,6.841 1.085,6.73 1.138,6.687 1.187,6.646 1.234,6.606 1.281,6.566 1.331,6.525 1.384,6.482 1.478,6.403 1.574,6.322 1.674,6.239 1.773,6.156 1.864,6.063 1.945,5.961 1.979,5.912 2.014,5.868 2.046,5.829 2.077,5.789 2.11,5.745 2.146,5.697 2.186,5.63 2.22,5.567 2.249,5.507 2.277,5.446 2.306,5.386 2.334,5.326 2.357,5.283 2.376,5.24 2.39,5.195 2.403,5.15 2.422,5.106 2.445,5.064 2.456,5.028 2.463,4.99 2.465,4.952 2.467,4.913 2.474,4.876 2.484,4.84 2.507,4.737 2.522,4.639 2.532,4.543 2.542,4.447 2.549,4.346 2.553,4.238 2.551,4.149 2.547,4.057 2.542,3.962 2.537,3.866 2.533,3.773 2.531,3.685 2.518,3.602 2.504,3.519 2.49,3.435 2.477,3.352 2.459,3.263 2.439,3.168 2.42,3.072 2.396,2.983 2.367,2.9 2.338,2.817 2.311,2.723 2.284,2.616 2.222,2.469 2.152,2.316 2.078,2.16 2.003,2.004 1.934,1.852 1.871,1.704 Z" /></g><g
           transform="translate(178.3406,195.9498)"
           id="g60"><path
             id="path62"
             style="fill:#ffffff;fill-opacity:1;fill-rule:nonzero;stroke:none"
             d="M 0,0 C -0.029,0.005 -0.07,0.028 -0.123,0.068 -0.155,0.093 -0.178,0.118 -0.19,0.145 L -0.207,0.157 -0.382,0.29 C -0.411,0.296 -0.432,0.303 -0.441,0.311 -0.452,0.318 -0.473,0.325 -0.502,0.331 -0.531,0.337 -0.561,0.342 -0.59,0.348 -0.619,0.354 -0.652,0.354 -0.689,0.349 -0.756,0.349 -0.82,0.348 -0.882,0.344 -0.943,0.34 -1.01,0.324 -1.082,0.295 -1.191,0.261 -1.303,0.22 -1.415,0.171 -1.527,0.122 -1.637,0.072 -1.744,0.02 -1.832,-0.03 -1.911,-0.079 -1.98,-0.127 c -0.071,-0.047 -0.148,-0.105 -0.234,-0.174 -0.07,-0.048 -0.134,-0.104 -0.191,-0.169 -0.058,-0.065 -0.12,-0.131 -0.188,-0.197 -0.218,-0.22 -0.425,-0.447 -0.62,-0.684 -0.196,-0.236 -0.392,-0.471 -0.589,-0.708 -0.194,-0.254 -0.407,-0.54 -0.64,-0.857 -0.233,-0.317 -0.436,-0.611 -0.608,-0.882 -0.096,-0.127 -0.188,-0.259 -0.274,-0.394 -0.087,-0.135 -0.168,-0.275 -0.243,-0.418 -0.087,-0.136 -0.174,-0.267 -0.261,-0.393 -0.088,-0.126 -0.165,-0.255 -0.233,-0.388 -0.137,-0.247 -0.263,-0.495 -0.377,-0.744 -0.114,-0.248 -0.206,-0.506 -0.273,-0.771 -0.022,-0.117 -0.034,-0.21 -0.034,-0.277 -0.006,-0.029 -0.005,-0.05 0.002,-0.063 0.006,-0.014 0.007,-0.035 0.001,-0.065 l 0.059,-0.12 c 0.032,-0.024 0.061,-0.063 0.087,-0.117 0.042,-0.032 0.078,-0.051 0.108,-0.056 0.114,-0.071 0.246,-0.128 0.395,-0.175 0.116,-0.022 0.199,-0.034 0.247,-0.037 l 0.084,0.011 c 0.099,0.041 0.193,0.088 0.282,0.138 0.087,0.05 0.171,0.1 0.251,0.148 0.079,0.049 0.157,0.103 0.235,0.161 0.086,0.068 0.164,0.138 0.235,0.21 0.072,0.072 0.144,0.146 0.22,0.222 0.295,0.279 0.564,0.568 0.81,0.867 0.139,0.162 0.296,0.352 0.471,0.571 0.175,0.218 0.327,0.413 0.456,0.583 l 1.211,1.491 c 0.097,0.128 0.196,0.253 0.298,0.376 0.103,0.124 0.206,0.254 0.311,0.392 0.088,0.117 0.182,0.234 0.281,0.352 0.097,0.118 0.184,0.249 0.261,0.393 0.083,0.154 0.152,0.31 0.207,0.47 0.035,0.09 0.066,0.176 0.093,0.255 0.027,0.08 0.058,0.165 0.094,0.256 0.025,0.098 0.046,0.199 0.066,0.302 0.019,0.102 0.027,0.205 0.022,0.309 C 0.037,-0.204 0.023,-0.103 0,0 M 0.449,0.688 C 0.502,0.648 0.552,0.593 0.6,0.523 0.632,0.499 0.656,0.472 0.675,0.441 0.693,0.41 0.709,0.382 0.723,0.354 0.738,0.309 0.752,0.261 0.764,0.21 0.775,0.159 0.789,0.111 0.805,0.066 0.81,0.028 0.816,-0.018 0.823,-0.074 0.831,-0.13 0.833,-0.182 0.831,-0.23 0.832,-0.315 0.833,-0.387 0.831,-0.444 0.829,-0.502 0.824,-0.568 0.815,-0.646 0.801,-0.819 0.767,-0.985 0.712,-1.146 0.658,-1.305 0.604,-1.465 0.549,-1.624 0.494,-1.784 0.43,-1.94 0.355,-2.093 0.281,-2.246 0.197,-2.396 0.103,-2.541 0.008,-2.688 -0.092,-2.824 -0.198,-2.953 -0.305,-3.082 -0.411,-3.205 -0.519,-3.325 -0.615,-3.452 -0.715,-3.577 -0.817,-3.701 -0.92,-3.824 -1.019,-3.949 -1.116,-4.077 -1.302,-4.321 -1.517,-4.598 -1.76,-4.906 -2.003,-5.216 -2.227,-5.493 -2.432,-5.74 -2.547,-5.87 -2.653,-5.998 -2.75,-6.126 c -0.097,-0.127 -0.199,-0.25 -0.307,-0.37 -0.099,-0.108 -0.2,-0.224 -0.301,-0.348 -0.103,-0.123 -0.209,-0.235 -0.319,-0.336 -0.067,-0.066 -0.132,-0.133 -0.193,-0.204 -0.063,-0.07 -0.127,-0.138 -0.193,-0.205 -0.071,-0.047 -0.132,-0.1 -0.186,-0.16 -0.054,-0.06 -0.111,-0.108 -0.173,-0.146 -0.137,-0.113 -0.275,-0.217 -0.414,-0.312 -0.14,-0.096 -0.28,-0.182 -0.422,-0.258 -0.257,-0.139 -0.522,-0.18 -0.797,-0.122 -0.088,0.017 -0.174,0.035 -0.257,0.058 -0.084,0.021 -0.167,0.046 -0.246,0.073 -0.08,0.027 -0.156,0.06 -0.227,0.098 -0.072,0.038 -0.14,0.081 -0.203,0.129 -0.178,0.119 -0.325,0.289 -0.441,0.511 -0.045,0.118 -0.077,0.235 -0.097,0.351 -0.021,0.116 -0.026,0.237 -0.014,0.362 0.009,0.077 0.023,0.158 0.046,0.241 0.021,0.084 0.042,0.161 0.061,0.231 0.046,0.148 0.1,0.296 0.162,0.442 0.06,0.147 0.12,0.29 0.176,0.431 0.083,0.154 0.165,0.306 0.245,0.454 0.079,0.149 0.162,0.301 0.246,0.455 0.075,0.144 0.159,0.28 0.25,0.412 0.091,0.132 0.18,0.265 0.267,0.401 0.038,0.071 0.08,0.143 0.128,0.216 0.047,0.074 0.089,0.146 0.127,0.217 0.049,0.065 0.119,0.157 0.212,0.279 0.093,0.122 0.158,0.219 0.196,0.29 0.097,0.128 0.191,0.257 0.282,0.389 0.092,0.131 0.186,0.261 0.284,0.388 0.086,0.136 0.181,0.267 0.288,0.396 0.106,0.128 0.208,0.256 0.304,0.384 0.097,0.127 0.197,0.253 0.299,0.376 0.103,0.123 0.207,0.244 0.315,0.363 0.247,0.282 0.501,0.549 0.761,0.803 0.245,0.233 0.522,0.433 0.832,0.599 0.3,0.174 0.631,0.29 0.995,0.349 0.072,0.029 0.147,0.039 0.224,0.031 l 0.3,-0.002 c 0.122,0.006 0.26,-0.023 0.411,-0.087 0.022,-0.017 0.047,-0.032 0.078,-0.047 0.03,-0.015 0.056,-0.03 0.077,-0.047 0.04,-0.014 0.087,-0.04 0.14,-0.08 L 0.294,0.781 0.31,0.77 C 0.341,0.745 0.372,0.73 0.401,0.725 Z" /></g><g
           transform="translate(185.8406,181.7603)"
           id="g64"><path
             id="path66"
             style="fill:#ffffff;fill-opacity:1;fill-rule:nonzero;stroke:none"
             d="M 0,0 C 0.848,0.821 2.176,0.75 2.969,-0.098 3.762,-0.944 3.732,-2.26 2.886,-3.053 2.023,-3.859 0.724,-3.816 -0.083,-2.955 -0.876,-2.107 -0.861,-0.807 0,0" /></g><g
           transform="translate(49.5193,33.3355)"
           id="g68"><path
             id="path70"
             style="fill:#ffffff;fill-opacity:1;fill-rule:nonzero;stroke:none"
             d="M 0,0 C 0.539,0.702 1.532,0.795 2.214,0.253 2.896,-0.289 3.019,-1.268 2.477,-1.949 1.926,-2.643 0.956,-2.754 0.263,-2.202 -0.419,-1.661 -0.551,-0.693 0,0" /></g><g
           transform="translate(63.5212,29.3189)"
           id="g72"><path
             id="path74"
             style="fill:#ffffff;fill-opacity:1;fill-rule:nonzero;stroke:none"
             d="M 0,0 C 0.089,-0.008 0.177,-0.022 0.262,-0.045 0.348,-0.067 0.429,-0.102 0.506,-0.148 L 0.583,-0.194 C 0.621,-0.229 0.655,-0.259 0.687,-0.283 0.719,-0.309 0.749,-0.336 0.778,-0.365 0.802,-0.402 0.822,-0.427 0.84,-0.437 0.863,-0.475 0.887,-0.509 0.909,-0.54 0.932,-0.571 0.954,-0.605 0.979,-0.644 1.002,-0.681 1.022,-0.72 1.04,-0.759 c 0.017,-0.04 0.027,-0.085 0.033,-0.134 0.006,-0.028 0.01,-0.056 0.01,-0.085 0,-0.029 0.003,-0.057 0.01,-0.084 0.011,-0.078 0.011,-0.151 0,-0.219 C 1.08,-1.351 1.064,-1.42 1.046,-1.49 1.021,-1.568 0.974,-1.628 0.903,-1.667 0.833,-1.706 0.759,-1.714 0.68,-1.689 c -0.079,0.024 -0.14,0.072 -0.184,0.145 -0.044,0.073 -0.054,0.149 -0.029,0.228 0.002,0.022 0.008,0.042 0.018,0.059 0.011,0.017 0.017,0.037 0.019,0.06 -0.008,0.027 -0.01,0.051 -0.008,0.074 0.002,0.022 0.003,0.045 0.005,0.066 -0.012,0.02 -0.018,0.035 -0.017,0.046 0.001,0.011 -0.005,0.026 -0.016,0.045 -0.01,0.041 -0.022,0.071 -0.033,0.09 -0.03,0.029 -0.056,0.057 -0.081,0.084 -0.025,0.026 -0.056,0.057 -0.093,0.092 l -0.104,0.061 c -0.03,0.007 -0.085,0.023 -0.164,0.047 -0.036,-0.002 -0.07,-0.001 -0.104,0.001 -0.034,0.003 -0.069,0.004 -0.104,0.002 -0.042,-0.01 -0.082,-0.018 -0.12,-0.024 -0.039,-0.006 -0.074,-0.017 -0.106,-0.032 -0.052,-0.027 -0.103,-0.052 -0.152,-0.076 -0.049,-0.022 -0.094,-0.05 -0.137,-0.083 -0.129,-0.097 -0.246,-0.202 -0.348,-0.315 -0.059,-0.059 -0.11,-0.114 -0.155,-0.169 -0.045,-0.055 -0.096,-0.111 -0.155,-0.17 -0.049,-0.063 -0.097,-0.128 -0.143,-0.193 -0.046,-0.067 -0.094,-0.131 -0.144,-0.195 -0.054,-0.071 -0.105,-0.146 -0.152,-0.223 -0.046,-0.077 -0.093,-0.154 -0.14,-0.231 -0.106,-0.158 -0.21,-0.314 -0.309,-0.471 -0.1,-0.155 -0.202,-0.319 -0.305,-0.49 -0.062,-0.102 -0.122,-0.207 -0.18,-0.312 -0.057,-0.105 -0.113,-0.212 -0.167,-0.32 -0.053,-0.107 -0.11,-0.212 -0.173,-0.316 -0.061,-0.103 -0.12,-0.208 -0.172,-0.315 -0.054,-0.109 -0.108,-0.216 -0.161,-0.325 -0.053,-0.107 -0.107,-0.215 -0.161,-0.323 -0.039,-0.104 -0.084,-0.203 -0.134,-0.296 -0.05,-0.092 -0.099,-0.188 -0.147,-0.287 -0.062,-0.161 -0.111,-0.33 -0.148,-0.507 -0.009,-0.052 -0.012,-0.101 -0.008,-0.143 0.003,-0.043 0.003,-0.087 0,-0.132 0.01,-0.041 0.022,-0.083 0.036,-0.127 0.015,-0.044 0.027,-0.087 0.037,-0.128 0.027,-0.051 0.051,-0.101 0.069,-0.146 0.019,-0.046 0.044,-0.091 0.077,-0.134 0.033,-0.043 0.078,-0.094 0.136,-0.153 l 0.219,-0.131 c 0.017,-0.01 0.03,-0.016 0.042,-0.017 0.011,-10e-4 0.02,-0.004 0.029,-0.009 0.068,-0.006 0.128,-0.002 0.183,0.012 0.1,0.011 0.17,0.02 0.211,0.03 0.033,0.016 0.068,0.035 0.106,0.06 0.042,0.032 0.093,0.077 0.152,0.135 l 0.062,0.103 c 0.041,0.068 0.103,0.113 0.186,0.133 0.082,0.02 0.157,0.011 0.226,-0.031 0.069,-0.041 0.113,-0.103 0.133,-0.186 0.021,-0.082 0.01,-0.157 -0.031,-0.226 -0.027,-0.043 -0.073,-0.102 -0.143,-0.177 -0.115,-0.153 -0.242,-0.257 -0.381,-0.313 -0.076,-0.048 -0.17,-0.079 -0.283,-0.092 -0.055,-0.013 -0.133,-0.025 -0.231,-0.036 -0.059,10e-4 -0.114,-0.002 -0.162,-0.007 -0.05,-0.004 -0.102,-0.002 -0.155,0.006 -0.092,0.021 -0.182,0.057 -0.267,0.109 -0.061,0.036 -0.119,0.074 -0.176,0.115 -0.058,0.04 -0.118,0.085 -0.182,0.135 -0.041,0.049 -0.083,0.099 -0.125,0.155 -0.043,0.055 -0.082,0.11 -0.118,0.167 -0.036,0.057 -0.067,0.116 -0.094,0.18 -0.026,0.062 -0.047,0.128 -0.064,0.196 -0.022,0.06 -0.037,0.122 -0.045,0.185 -0.008,0.063 -0.016,0.125 -0.022,0.189 -0.021,0.117 -0.016,0.248 0.014,0.394 0.01,0.052 0.02,0.107 0.031,0.165 0.012,0.057 0.027,0.109 0.044,0.157 0.02,0.07 0.044,0.135 0.074,0.192 0.029,0.059 0.053,0.122 0.074,0.193 0.039,0.104 0.091,0.208 0.152,0.31 0.063,0.103 0.116,0.211 0.161,0.323 0.054,0.109 0.106,0.214 0.157,0.318 0.05,0.103 0.103,0.21 0.157,0.317 0.053,0.109 0.11,0.213 0.173,0.317 0.061,0.102 0.119,0.208 0.173,0.315 0.058,0.116 0.119,0.226 0.18,0.329 0.063,0.103 0.127,0.21 0.195,0.321 l 0.379,0.629 c 0.071,0.098 0.138,0.199 0.203,0.307 0.064,0.107 0.132,0.21 0.203,0.307 0.075,0.106 0.149,0.21 0.222,0.312 0.074,0.103 0.152,0.204 0.236,0.305 0.084,0.101 0.167,0.197 0.25,0.287 0.083,0.091 0.172,0.177 0.267,0.26 0.053,0.049 0.107,0.095 0.161,0.138 0.054,0.043 0.114,0.081 0.178,0.113 0.075,0.047 0.128,0.08 0.16,0.095 0.033,0.016 0.069,0.032 0.108,0.049 0.039,0.018 0.076,0.027 0.112,0.029 C -0.354,0.003 -0.174,0.022 0,0" /></g><g
           transform="translate(74.6042,22.8951)"
           id="g76"><path
             id="path78"
             style="fill:#ffffff;fill-opacity:1;fill-rule:nonzero;stroke:none"
             d="M 0,0 C -0.022,-0.001 -0.056,0.009 -0.102,0.029 -0.129,0.041 -0.15,0.056 -0.164,0.073 l -0.014,0.006 -0.151,0.067 c -0.023,-0.001 -0.038,0 -0.047,0.004 -0.01,0.004 -0.025,0.005 -0.047,0.004 L -0.49,0.151 C -0.513,0.15 -0.537,0.145 -0.563,0.135 -0.612,0.123 -0.658,0.111 -0.702,0.098 -0.747,0.085 -0.793,0.061 -0.84,0.027 -0.914,-0.017 -0.988,-0.065 -1.062,-0.121 -1.135,-0.176 -1.206,-0.231 -1.275,-0.289 -1.331,-0.341 -1.38,-0.39 -1.423,-0.437 -1.466,-0.483 -1.512,-0.539 -1.562,-0.604 -1.605,-0.651 -1.642,-0.703 -1.673,-0.761 -1.704,-0.818 -1.737,-0.877 -1.775,-0.937 -1.896,-1.136 -2.007,-1.338 -2.108,-1.544 -2.211,-1.75 -2.313,-1.956 -2.415,-2.163 -2.513,-2.382 -2.618,-2.628 -2.732,-2.899 -2.848,-3.172 -2.944,-3.421 -3.023,-3.649 -3.071,-3.759 -3.115,-3.87 -3.155,-3.984 -3.194,-4.098 -3.229,-4.214 -3.259,-4.332 -3.299,-4.445 -3.34,-4.556 -3.381,-4.663 -3.423,-4.771 -3.457,-4.878 -3.483,-4.987 -3.541,-5.191 -3.59,-5.394 -3.629,-5.595 -3.669,-5.796 -3.69,-6 -3.694,-6.206 c 0.004,-0.089 0.012,-0.158 0.023,-0.207 10e-4,-0.023 0.005,-0.038 0.013,-0.046 0.007,-0.009 0.011,-0.024 0.012,-0.047 l 0.064,-0.077 c 0.027,-0.013 0.056,-0.036 0.084,-0.07 0.036,-0.016 0.065,-0.024 0.088,-0.023 0.096,-0.031 0.202,-0.051 0.318,-0.058 0.09,0.004 0.153,0.008 0.188,0.015 l 0.059,0.023 c 0.065,0.048 0.125,0.097 0.181,0.149 0.056,0.052 0.108,0.103 0.157,0.152 0.05,0.049 0.098,0.102 0.144,0.159 0.05,0.064 0.095,0.13 0.135,0.194 0.04,0.064 0.081,0.131 0.122,0.2 0.167,0.254 0.313,0.512 0.44,0.774 0.073,0.141 0.155,0.308 0.245,0.498 0.089,0.19 0.166,0.358 0.231,0.505 l 0.624,1.298 c 0.047,0.11 0.098,0.219 0.152,0.327 0.053,0.107 0.105,0.22 0.158,0.339 0.045,0.101 0.092,0.203 0.144,0.306 0.05,0.104 0.091,0.214 0.122,0.331 0.034,0.127 0.056,0.254 0.069,0.38 0.01,0.072 0.018,0.14 0.024,0.202 0.005,0.064 0.013,0.131 0.024,0.203 0.001,0.076 -0.001,0.154 -0.005,0.232 C 0.118,-0.369 0.106,-0.292 0.085,-0.218 0.063,-0.143 0.035,-0.07 0,0 M 0.208,0.581 C 0.254,0.561 0.3,0.529 0.347,0.486 0.374,0.475 0.397,0.459 0.416,0.439 0.435,0.421 0.451,0.402 0.466,0.385 0.485,0.354 0.503,0.321 0.521,0.287 0.538,0.252 0.557,0.219 0.576,0.188 0.586,0.162 0.599,0.129 0.614,0.09 0.629,0.05 0.64,0.013 0.646,-0.022 0.662,-0.085 0.675,-0.137 0.684,-0.179 0.692,-0.221 0.7,-0.271 0.708,-0.329 0.728,-0.458 0.731,-0.585 0.719,-0.711 L 0.684,-1.089 C 0.671,-1.215 0.651,-1.34 0.624,-1.465 0.596,-1.589 0.561,-1.713 0.518,-1.836 0.474,-1.958 0.425,-2.076 0.369,-2.188 0.314,-2.301 0.258,-2.409 0.2,-2.516 0.152,-2.625 0.102,-2.733 0.048,-2.842 -0.005,-2.949 -0.056,-3.059 -0.104,-3.168 -0.197,-3.378 -0.306,-3.617 -0.43,-3.885 -0.554,-4.153 -0.669,-4.395 -0.774,-4.61 -0.836,-4.725 -0.892,-4.837 -0.939,-4.947 -0.988,-5.057 -1.042,-5.164 -1.1,-5.271 -1.153,-5.367 -1.206,-5.469 -1.259,-5.576 -1.312,-5.685 -1.37,-5.784 -1.433,-5.877 -1.471,-5.937 -1.506,-5.998 -1.538,-6.06 -1.571,-6.122 -1.606,-6.183 -1.644,-6.243 -1.687,-6.29 -1.723,-6.34 -1.751,-6.393 -1.78,-6.445 -1.813,-6.49 -1.853,-6.528 -1.932,-6.635 -2.015,-6.735 -2.1,-6.829 -2.185,-6.922 -2.272,-7.01 -2.362,-7.09 -2.526,-7.236 -2.713,-7.312 -2.923,-7.317 -2.989,-7.321 -3.056,-7.322 -3.121,-7.32 c -0.065,0.001 -0.129,0.005 -0.192,0.01 -0.063,0.006 -0.124,0.017 -0.182,0.033 -0.06,0.014 -0.116,0.034 -0.171,0.058 -0.15,0.056 -0.287,0.155 -0.41,0.296 -0.054,0.078 -0.098,0.158 -0.133,0.239 -0.035,0.081 -0.06,0.168 -0.072,0.262 -0.008,0.058 -0.011,0.119 -0.009,0.185 0.001,0.064 0.003,0.124 0.005,0.177 0.008,0.118 0.021,0.235 0.04,0.352 0.019,0.117 0.037,0.232 0.055,0.345 0.034,0.127 0.067,0.252 0.099,0.374 0.032,0.123 0.066,0.247 0.1,0.374 0.03,0.118 0.067,0.233 0.111,0.344 0.044,0.112 0.085,0.225 0.125,0.338 0.015,0.06 0.033,0.12 0.055,0.181 0.021,0.062 0.04,0.122 0.055,0.181 0.025,0.054 0.06,0.134 0.107,0.24 0.046,0.105 0.077,0.187 0.092,0.246 0.049,0.11 0.094,0.221 0.138,0.332 0.044,0.112 0.091,0.223 0.139,0.333 0.04,0.113 0.087,0.227 0.142,0.339 0.055,0.112 0.107,0.224 0.156,0.333 0.048,0.11 0.099,0.219 0.152,0.326 0.053,0.109 0.109,0.215 0.166,0.32 0.131,0.248 0.27,0.488 0.416,0.718 0.137,0.213 0.305,0.407 0.503,0.582 0.188,0.179 0.409,0.322 0.664,0.428 0.048,0.033 0.101,0.054 0.158,0.061 l 0.22,0.05 c 0.088,0.028 0.194,0.03 0.316,0.009 C -0.259,0.738 -0.237,0.73 -0.212,0.726 -0.187,0.72 -0.166,0.713 -0.147,0.705 -0.116,0.702 -0.077,0.69 -0.031,0.67 L 0.078,0.622 0.092,0.615 C 0.119,0.604 0.145,0.598 0.167,0.599 Z" /></g><g
           transform="translate(85.0036,19.649)"
           id="g80"><path
             id="path82"
             style="fill:#ffffff;fill-opacity:1;fill-rule:nonzero;stroke:none"
             d="M 0,0 C 0.031,0 0.063,-0.004 0.098,-0.015 0.131,-0.024 0.162,-0.033 0.19,-0.042 L 0.22,-0.051 C 0.283,-0.081 0.346,-0.109 0.405,-0.138 0.464,-0.166 0.523,-0.205 0.581,-0.254 0.614,-0.284 0.648,-0.318 0.685,-0.355 0.72,-0.393 0.754,-0.426 0.787,-0.457 0.816,-0.497 0.842,-0.533 0.863,-0.565 0.885,-0.599 0.906,-0.634 0.926,-0.671 0.969,-0.736 0.978,-0.812 0.951,-0.897 0.906,-0.979 0.853,-1.035 0.791,-1.068 0.726,-1.111 0.649,-1.12 0.563,-1.095 0.496,-1.074 0.439,-1.021 0.393,-0.934 0.386,-0.921 0.379,-0.911 0.37,-0.903 0.362,-0.896 0.356,-0.881 0.353,-0.858 0.329,-0.831 0.292,-0.799 0.24,-0.762 0.182,-0.713 0.127,-0.671 0.075,-0.634 l -0.086,0.026 -0.086,0.026 -0.038,-0.021 c -0.031,-0.001 -0.056,-0.013 -0.074,-0.04 -0.025,-0.013 -0.045,-0.028 -0.061,-0.044 -0.015,-0.016 -0.037,-0.036 -0.064,-0.059 -0.031,-0.032 -0.055,-0.067 -0.07,-0.104 -0.017,-0.037 -0.037,-0.078 -0.061,-0.123 -0.024,-0.045 -0.047,-0.093 -0.067,-0.144 -0.021,-0.051 -0.034,-0.107 -0.042,-0.167 -0.006,-0.02 -0.008,-0.061 -0.006,-0.124 0.001,-0.031 0.012,-0.082 0.032,-0.151 l 0.061,-0.112 c 0.036,-0.053 0.072,-0.098 0.108,-0.135 0.036,-0.037 0.075,-0.072 0.117,-0.105 0.014,-0.026 0.03,-0.04 0.049,-0.046 0.032,-0.031 0.059,-0.049 0.077,-0.055 0.007,-0.012 0.015,-0.02 0.025,-0.023 0.009,-0.003 0.017,-0.011 0.024,-0.023 0.032,-0.031 0.059,-0.048 0.078,-0.054 0.013,-0.026 0.027,-0.042 0.039,-0.051 0.013,-0.01 0.028,-0.022 0.044,-0.037 0.085,-0.099 0.154,-0.203 0.204,-0.312 0.05,-0.109 0.084,-0.224 0.1,-0.343 0.015,-0.057 0.02,-0.142 0.018,-0.256 C 0.393,-3.226 0.392,-3.313 0.394,-3.377 0.396,-3.44 0.39,-3.501 0.378,-3.561 0.365,-3.619 0.356,-3.674 0.352,-3.725 0.353,-3.86 0.345,-3.974 0.328,-4.062 0.317,-4.133 0.303,-4.201 0.282,-4.268 0.262,-4.335 0.247,-4.403 0.236,-4.474 0.224,-4.584 0.205,-4.699 0.18,-4.816 0.154,-4.935 0.13,-5.052 0.104,-5.17 0.08,-5.288 0.048,-5.403 0.009,-5.517 -0.031,-5.63 -0.068,-5.744 -0.103,-5.859 -0.12,-5.917 -0.143,-5.991 -0.17,-6.082 l -0.082,-0.272 c -0.027,-0.092 -0.057,-0.18 -0.087,-0.264 -0.031,-0.085 -0.059,-0.154 -0.086,-0.209 -0.057,-0.119 -0.113,-0.235 -0.168,-0.35 -0.055,-0.114 -0.111,-0.23 -0.168,-0.348 -0.063,-0.107 -0.131,-0.211 -0.204,-0.315 -0.073,-0.103 -0.154,-0.199 -0.243,-0.287 -0.107,-0.114 -0.247,-0.197 -0.42,-0.25 -0.068,-0.02 -0.144,-0.029 -0.226,-0.025 -0.026,-0.014 -0.053,-0.019 -0.083,-0.015 -0.031,0.004 -0.056,0.004 -0.079,0 -0.172,0.021 -0.318,0.07 -0.44,0.148 -0.068,0.052 -0.13,0.108 -0.186,0.166 -0.055,0.058 -0.098,0.124 -0.129,0.196 -0.027,0.05 -0.05,0.1 -0.071,0.154 -0.02,0.053 -0.038,0.107 -0.053,0.164 -10e-4,0.064 -0.005,0.128 -0.012,0.193 -0.007,0.064 -0.012,0.123 -0.017,0.177 0.004,0.082 0.037,0.151 0.101,0.204 0.063,0.054 0.135,0.079 0.219,0.076 0.091,-0.007 0.165,-0.04 0.22,-0.098 0.033,-0.063 0.055,-0.132 0.064,-0.207 -0.006,-0.02 -0.005,-0.051 0.003,-0.095 0.004,-0.054 0.024,-0.128 0.058,-0.222 0.007,-0.043 0.025,-0.09 0.052,-0.14 0.009,-0.003 0.016,-0.008 0.019,-0.014 0.003,-0.006 0.009,-0.011 0.019,-0.014 0.032,-0.03 0.064,-0.049 0.092,-0.058 l 0.072,-0.022 c 0.038,-0.011 0.089,-0.016 0.152,-0.014 0.022,0.004 0.037,0.007 0.042,0.011 0.007,0.002 0.021,0.006 0.043,0.01 l 0.093,0.05 c 0.026,0.014 0.043,0.029 0.054,0.047 0.011,0.018 0.028,0.033 0.053,0.047 0.051,0.067 0.099,0.139 0.143,0.215 0.043,0.076 0.091,0.147 0.143,0.215 0.043,0.071 0.08,0.143 0.112,0.217 0.033,0.074 0.07,0.146 0.112,0.217 0.09,0.192 0.162,0.38 0.216,0.562 0.042,0.102 0.09,0.253 0.144,0.45 0.054,0.198 0.097,0.349 0.129,0.455 0.032,0.104 0.062,0.205 0.09,0.302 0.03,0.094 0.05,0.198 0.063,0.309 0.028,0.096 0.052,0.191 0.069,0.285 0.018,0.094 0.032,0.192 0.041,0.293 0.021,0.067 0.036,0.135 0.047,0.205 0.01,0.07 0.016,0.142 0.018,0.214 l 0.03,0.414 c -0.012,0.067 -0.015,0.151 -0.01,0.254 0.005,0.103 -0.005,0.184 -0.029,0.243 -0.017,0.047 -0.04,0.091 -0.07,0.131 -0.02,0.037 -0.063,0.087 -0.127,0.149 -0.02,0.005 -0.032,0.014 -0.039,0.027 -0.049,0.046 -0.103,0.093 -0.161,0.142 -0.059,0.048 -0.116,0.102 -0.171,0.161 -0.065,0.061 -0.111,0.117 -0.138,0.167 -0.032,0.03 -0.059,0.064 -0.079,0.102 -0.02,0.037 -0.04,0.075 -0.06,0.112 -0.051,0.141 -0.077,0.299 -0.076,0.477 -0.007,0.116 0.012,0.247 0.055,0.391 0.056,0.118 0.112,0.235 0.168,0.348 0.054,0.115 0.132,0.214 0.23,0.299 0.083,0.101 0.202,0.185 0.359,0.253 0.024,0.013 0.053,0.023 0.087,0.028 0.033,0.006 0.065,0.009 0.096,0.01 l 0.1,0.018 C -0.055,0.011 -0.029,0.008 0,0" /></g><g
           transform="translate(97.9509,16.2984)"
           id="g84"><path
             id="path86"
             style="fill:#ffffff;fill-opacity:1;fill-rule:nonzero;stroke:none"
             d="m 0,0 c 0.017,-0.084 -0.007,-0.161 -0.07,-0.231 -0.036,-0.035 -0.077,-0.063 -0.121,-0.085 -0.012,-0.009 -0.023,-0.012 -0.033,-0.01 -0.009,0.002 -0.025,-0.001 -0.047,-0.007 -0.021,-0.007 -0.044,-0.008 -0.069,-0.004 -0.024,0.005 -0.053,0.004 -0.084,0 l -0.058,0.01 c -0.041,-0.003 -0.092,0.001 -0.151,0.011 l -0.281,0.048 -0.355,0.062 c -0.052,-0.245 -0.099,-0.488 -0.141,-0.73 -0.042,-0.241 -0.09,-0.489 -0.144,-0.743 -0.052,-0.245 -0.1,-0.49 -0.142,-0.737 -0.043,-0.246 -0.086,-0.492 -0.128,-0.738 -0.045,-0.257 -0.088,-0.505 -0.13,-0.747 -0.042,-0.242 -0.079,-0.487 -0.111,-0.734 -0.013,-0.13 -0.027,-0.255 -0.042,-0.374 -0.016,-0.119 -0.031,-0.243 -0.042,-0.373 -0.023,-0.128 -0.048,-0.291 -0.078,-0.489 -0.029,-0.198 -0.053,-0.356 -0.074,-0.474 -0.011,-0.12 -0.026,-0.239 -0.047,-0.357 L -2.409,-7.057 -2.52,-7.692 c -0.003,-0.081 -0.043,-0.145 -0.119,-0.193 -0.076,-0.048 -0.154,-0.064 -0.235,-0.051 -0.08,0.014 -0.144,0.056 -0.189,0.124 -0.045,0.069 -0.061,0.143 -0.047,0.222 0.011,0.129 0.029,0.256 0.05,0.379 0.021,0.123 0.043,0.249 0.065,0.377 0.024,0.138 0.055,0.315 0.093,0.532 0.037,0.217 0.063,0.395 0.077,0.534 0.02,0.119 0.038,0.238 0.054,0.357 0.015,0.119 0.029,0.243 0.042,0.373 0.01,0.12 0.024,0.242 0.041,0.366 0.015,0.124 0.035,0.25 0.057,0.378 0.011,0.12 0.027,0.241 0.048,0.365 0.021,0.123 0.042,0.243 0.062,0.362 l 0.131,0.754 c 0.044,0.256 0.09,0.504 0.137,0.745 0.047,0.241 0.091,0.484 0.134,0.73 0.032,0.126 0.059,0.254 0.081,0.382 0.022,0.128 0.05,0.255 0.082,0.382 l 0.082,0.472 -0.207,0.037 c -0.05,0.008 -0.099,0.016 -0.148,0.025 -0.049,0.009 -0.098,0.022 -0.145,0.041 -0.067,0.021 -0.131,0.04 -0.189,0.055 -0.058,0.015 -0.115,0.038 -0.17,0.068 -0.077,0.033 -0.127,0.088 -0.155,0.163 -0.038,0.077 -0.035,0.153 0.009,0.228 0.035,0.085 0.089,0.136 0.163,0.154 0.045,0.022 0.097,0.028 0.156,0.018 0.01,-0.001 0.019,-0.005 0.029,-0.012 0.009,-0.007 0.022,-0.012 0.043,-0.016 0.027,-0.014 0.056,-0.024 0.086,-0.029 0.029,-0.006 0.057,-0.016 0.086,-0.03 0.077,-0.024 0.16,-0.043 0.249,-0.059 0.088,-0.016 0.171,-0.029 0.251,-0.043 l 0.241,-0.042 c 0.044,0.013 0.086,0.016 0.126,0.009 0.011,-0.002 0.044,-0.019 0.101,-0.049 l 0.076,-0.013 0.49,-0.085 0.252,-0.043 c 0.078,-0.013 0.138,-0.019 0.179,-0.016 l 0.03,-0.005 C -0.245,0.281 -0.173,0.259 -0.104,0.186 -0.041,0.145 -0.006,0.082 0,0" /></g><g
           transform="translate(108.5408,12.7486)"
           id="g88"><path
             id="path90"
             style="fill:#ffffff;fill-opacity:1;fill-rule:nonzero;stroke:none"
             d="M 0,0 C -0.009,0.441 -0.046,0.938 -0.109,1.492 -0.161,1.254 -0.217,1.017 -0.278,0.779 -0.34,0.542 -0.396,0.299 -0.447,0.052 -0.368,0.037 -0.294,0.029 -0.224,0.025 -0.154,0.022 -0.079,0.014 0,0 M 1.176,-5.642 C 1.213,-5.703 1.218,-5.771 1.189,-5.845 1.16,-5.918 1.11,-5.974 1.039,-6.011 0.966,-6.057 0.894,-6.063 0.82,-6.03 0.746,-5.996 0.687,-5.948 0.639,-5.887 0.602,-5.835 0.569,-5.723 0.542,-5.552 0.515,-5.38 0.491,-5.196 0.471,-5 0.45,-4.804 0.431,-4.618 0.414,-4.441 0.397,-4.266 0.386,-4.143 0.379,-4.072 0.266,-3.496 0.19,-2.925 0.152,-2.357 c -0.039,0.567 -0.079,1.153 -0.12,1.755 -0.099,0.015 -0.199,0.025 -0.299,0.029 -0.1,0.005 -0.205,0.019 -0.313,0.045 -0.025,-0.109 -0.053,-0.218 -0.083,-0.326 -0.03,-0.109 -0.058,-0.218 -0.083,-0.327 -0.098,-0.366 -0.19,-0.729 -0.276,-1.09 -0.088,-0.362 -0.175,-0.731 -0.263,-1.107 -0.096,-0.336 -0.18,-0.678 -0.251,-1.024 -0.071,-0.348 -0.147,-0.714 -0.225,-1.101 -0.024,-0.089 -0.077,-0.146 -0.158,-0.173 -0.102,-0.045 -0.199,-0.035 -0.291,0.029 -0.093,0.064 -0.135,0.176 -0.127,0.336 0.051,0.238 0.103,0.476 0.153,0.714 0.051,0.238 0.108,0.475 0.169,0.713 0.113,0.475 0.23,0.945 0.352,1.409 0.122,0.465 0.235,0.966 0.341,1.501 0.095,0.336 0.188,0.695 0.276,1.077 0.088,0.38 0.176,0.75 0.263,1.105 0.025,0.119 0.051,0.235 0.076,0.35 0.025,0.114 0.051,0.23 0.076,0.349 0.015,0.099 0.029,0.194 0.044,0.283 0.014,0.089 0.033,0.184 0.058,0.283 0.001,0.02 0.009,0.047 0.026,0.082 0.017,0.034 0.052,0.085 0.106,0.152 0.035,0.108 0.118,0.172 0.249,0.19 C -0.018,2.917 0.08,2.864 0.145,2.741 0.218,2.598 0.281,2.45 0.334,2.297 0.387,2.145 0.419,1.987 0.432,1.827 0.544,1.241 0.604,0.643 0.61,0.031 c 0.006,-0.61 0.035,-1.238 0.084,-1.881 0.041,-0.402 0.088,-0.792 0.14,-1.17 0.053,-0.377 0.104,-0.768 0.155,-1.171 0.037,-0.262 0.07,-0.498 0.094,-0.71 0.025,-0.211 0.057,-0.458 0.093,-0.741" /></g><g
           transform="translate(131.7351,14.6441)"
           id="g92"><path
             id="path94"
             style="fill:#ffffff;fill-opacity:1;fill-rule:nonzero;stroke:none"
             d="m 0,0 c 0.094,0.039 0.163,0.074 0.208,0.104 0.048,0.019 0.09,0.038 0.127,0.055 0.037,0.018 0.078,0.042 0.123,0.071 l 0.053,0.041 c 0.017,0.014 0.035,0.028 0.053,0.041 0.014,0.035 0.033,0.066 0.057,0.096 0.025,0.03 0.044,0.063 0.058,0.096 0.019,0.056 0.04,0.105 0.061,0.15 0.022,0.045 0.037,0.094 0.047,0.148 L 0.795,0.987 C 0.787,1.077 0.772,1.163 0.751,1.246 0.729,1.328 0.704,1.412 0.677,1.499 0.659,1.536 0.644,1.573 0.631,1.611 0.618,1.649 0.597,1.691 0.567,1.736 0.544,1.752 0.519,1.777 0.491,1.813 0.467,1.829 0.449,1.841 0.437,1.849 0.426,1.855 0.408,1.868 0.385,1.884 0.342,1.896 0.304,1.908 0.271,1.922 0.236,1.936 0.198,1.947 0.155,1.96 -0.023,1.984 -0.199,1.995 -0.371,1.991 -0.355,1.861 -0.335,1.733 -0.309,1.605 -0.283,1.479 -0.258,1.351 -0.231,1.224 -0.212,1.074 -0.187,0.927 -0.157,0.779 -0.128,0.633 -0.098,0.485 -0.068,0.338 Z M 2.87,-4.593 C 2.892,-4.701 2.916,-4.811 2.944,-4.922 2.972,-5.034 2.986,-5.146 2.988,-5.258 2.997,-5.297 2.997,-5.348 2.989,-5.41 L 2.942,-5.481 c -0.038,-0.069 -0.1,-0.112 -0.188,-0.13 -0.078,-0.016 -0.153,0 -0.224,0.047 -0.07,0.046 -0.114,0.109 -0.13,0.188 -0.002,0.111 -0.016,0.221 -0.043,0.328 -0.026,0.107 -0.05,0.214 -0.072,0.321 -0.034,0.117 -0.069,0.254 -0.107,0.415 -0.037,0.161 -0.074,0.299 -0.107,0.415 -0.023,0.118 -0.05,0.237 -0.08,0.359 -0.029,0.121 -0.061,0.24 -0.095,0.355 -0.067,0.232 -0.131,0.463 -0.193,0.696 -0.062,0.232 -0.132,0.463 -0.209,0.692 -0.041,0.104 -0.086,0.21 -0.133,0.317 -0.047,0.108 -0.096,0.213 -0.147,0.315 -0.093,0.206 -0.193,0.395 -0.298,0.567 -0.028,0.035 -0.058,0.071 -0.09,0.105 -0.033,0.034 -0.062,0.069 -0.09,0.104 -0.014,0.018 -0.024,0.029 -0.03,0.033 C 0.7,-0.351 0.69,-0.34 0.677,-0.322 0.642,-0.35 0.614,-0.365 0.595,-0.369 0.55,-0.399 0.501,-0.427 0.45,-0.452 0.399,-0.478 0.351,-0.501 0.304,-0.521 0.276,-0.536 0.248,-0.547 0.219,-0.553 0.189,-0.559 0.16,-0.569 0.133,-0.585 0.151,-0.673 0.169,-0.764 0.188,-0.857 0.207,-0.95 0.229,-1.04 0.258,-1.126 c 0.025,-0.128 0.055,-0.252 0.09,-0.372 0.035,-0.121 0.07,-0.244 0.105,-0.369 0.033,-0.115 0.065,-0.235 0.095,-0.356 0.029,-0.122 0.056,-0.241 0.08,-0.359 0.071,-0.251 0.136,-0.495 0.194,-0.733 0.058,-0.239 0.122,-0.483 0.194,-0.734 0.033,-0.116 0.067,-0.231 0.1,-0.347 0.033,-0.116 0.063,-0.232 0.086,-0.35 0.012,-0.059 0.031,-0.142 0.058,-0.248 0.027,-0.108 0.047,-0.195 0.06,-0.264 0.005,-0.019 0.012,-0.043 0.023,-0.071 0.011,-0.029 0.019,-0.058 0.025,-0.087 L 1.397,-5.563 C 1.423,-5.64 1.409,-5.72 1.354,-5.802 1.314,-5.86 1.251,-5.898 1.163,-5.917 1.095,-5.931 1.021,-5.92 0.942,-5.885 c -0.05,0.051 -0.085,0.09 -0.1,0.117 -0.004,0.02 -0.009,0.035 -0.016,0.043 -0.007,0.009 -0.013,0.023 -0.016,0.043 l -0.039,0.191 c -0.006,0.03 -0.015,0.06 -0.027,0.095 -0.012,0.033 -0.02,0.064 -0.026,0.093 -0.016,0.078 -0.038,0.176 -0.067,0.293 -0.029,0.116 -0.05,0.214 -0.067,0.292 -0.039,0.146 -0.079,0.29 -0.118,0.436 -0.039,0.144 -0.079,0.29 -0.118,0.435 -0.07,0.241 -0.133,0.481 -0.192,0.719 -0.057,0.238 -0.117,0.479 -0.176,0.722 l -0.195,0.741 c -0.034,0.115 -0.065,0.233 -0.095,0.355 -0.03,0.122 -0.061,0.241 -0.094,0.356 -0.062,0.253 -0.117,0.5 -0.165,0.74 -0.048,0.24 -0.098,0.487 -0.15,0.742 -0.014,0.12 -0.035,0.239 -0.064,0.355 -0.029,0.116 -0.051,0.239 -0.067,0.369 -0.027,0.137 -0.053,0.279 -0.079,0.428 -0.024,0.148 -0.046,0.292 -0.063,0.43 -0.016,0.078 0,0.154 0.047,0.224 0.031,0.047 0.079,0.088 0.143,0.121 0.008,0.012 0.017,0.021 0.026,0.028 0.008,0.007 0.016,0.016 0.024,0.028 0.033,0.038 0.079,0.062 0.139,0.074 0.019,0.004 0.034,0.004 0.045,10e-4 0.01,-0.003 0.021,-0.003 0.031,-10e-4 0.082,-0.004 0.161,-0.003 0.237,0.002 0.075,0.005 0.154,0.006 0.237,0.002 C 0.019,2.585 0.097,2.577 0.171,2.567 0.244,2.557 0.319,2.538 0.396,2.513 0.448,2.503 0.521,2.477 0.61,2.434 0.634,2.418 0.654,2.407 0.671,2.4 0.687,2.394 0.707,2.382 0.731,2.366 0.765,2.353 0.793,2.336 0.818,2.315 0.843,2.295 0.867,2.271 0.894,2.246 0.952,2.207 1,2.16 1.036,2.106 1.072,2.053 1.106,1.998 1.138,1.943 1.173,1.869 1.195,1.812 1.203,1.773 1.26,1.642 1.303,1.508 1.33,1.37 1.344,1.302 1.357,1.235 1.37,1.172 1.383,1.108 1.392,1.041 1.396,0.971 1.39,0.897 1.386,0.831 1.383,0.769 1.38,0.707 1.364,0.643 1.337,0.576 1.319,0.512 1.302,0.449 1.283,0.389 1.265,0.329 1.235,0.27 1.196,0.211 1.183,0.178 1.156,0.132 1.117,0.072 1.141,0.057 1.156,0.042 1.165,0.028 1.173,0.015 1.188,0 1.212,-0.016 1.253,-0.068 1.294,-0.121 1.336,-0.174 1.377,-0.227 1.413,-0.281 1.444,-0.336 1.516,-0.434 1.577,-0.536 1.629,-0.643 1.682,-0.75 1.733,-0.854 1.784,-0.956 1.891,-1.18 1.982,-1.405 2.059,-1.635 2.136,-1.864 2.208,-2.095 2.274,-2.326 2.344,-2.567 2.41,-2.807 2.473,-3.043 2.536,-3.28 2.598,-3.521 2.656,-3.764 2.688,-3.87 2.724,-4.006 2.762,-4.171 2.801,-4.337 2.836,-4.478 2.87,-4.593" /></g><g
           transform="translate(145.7077,12.6227)"
           id="g96"><path
             id="path98"
             style="fill:#ffffff;fill-opacity:1;fill-rule:nonzero;stroke:none"
             d="M 0,0 C 0.053,-0.066 0.087,-0.14 0.103,-0.219 0.099,-0.305 0.073,-0.37 0.025,-0.418 -0.02,-0.475 -0.093,-0.509 -0.193,-0.521 l -0.043,-0.013 c -0.051,-0.007 -0.101,-0.015 -0.15,-0.026 -0.049,-0.01 -0.097,-0.023 -0.145,-0.039 -0.064,-0.031 -0.123,-0.056 -0.181,-0.075 -0.057,-0.018 -0.117,-0.043 -0.181,-0.074 -0.076,-0.025 -0.151,-0.019 -0.227,0.02 -0.075,0.039 -0.126,0.096 -0.151,0.172 -0.024,0.077 -0.017,0.152 0.021,0.228 0.038,0.075 0.096,0.126 0.172,0.15 0.047,0.016 0.084,0.032 0.109,0.052 C -0.987,-0.101 -1.01,-0.05 -1.034,0.026 -1.068,0.099 -1.098,0.171 -1.12,0.242 -1.144,0.313 -1.173,0.386 -1.207,0.459 -1.266,0.607 -1.32,0.758 -1.37,0.91 -1.419,1.062 -1.474,1.213 -1.533,1.362 -1.57,1.477 -1.609,1.59 -1.651,1.702 -1.693,1.814 -1.733,1.928 -1.771,2.042 -1.811,2.166 -1.852,2.284 -1.894,2.396 -1.936,2.509 -1.977,2.627 -2.017,2.751 -2.104,2.985 -2.188,3.218 -2.269,3.449 -2.35,3.681 -2.435,3.918 -2.524,4.163 -2.571,4.273 -2.616,4.386 -2.657,4.498 -2.699,4.61 -2.739,4.724 -2.776,4.838 -2.795,4.895 -2.826,4.99 -2.869,5.123 -2.913,5.256 -2.96,5.401 -3.011,5.559 -3.063,5.715 -3.108,5.873 -3.15,6.033 -3.192,6.193 -3.224,6.338 -3.244,6.468 -3.263,6.525 -3.283,6.579 -3.305,6.63 -3.327,6.681 -3.353,6.732 -3.38,6.787 L -3.403,6.858 -3.518,6.821 C -3.594,6.796 -3.669,6.803 -3.745,6.842 -3.82,6.88 -3.871,6.937 -3.896,7.013 c -0.024,0.076 -0.018,0.154 0.019,0.235 0.036,0.08 0.095,0.128 0.174,0.144 0.148,0.027 0.296,0.075 0.442,0.143 0.037,0.013 0.071,0.026 0.097,0.04 0.027,0.014 0.06,0.028 0.098,0.04 l 0.028,0.009 c 0.076,0.024 0.135,0.039 0.176,0.042 0.038,0.012 0.076,0.009 0.114,-0.011 0.038,-0.019 0.07,-0.04 0.1,-0.062 C -2.576,7.532 -2.544,7.464 -2.551,7.389 -2.545,7.306 -2.569,7.235 -2.623,7.176 -2.661,7.132 -2.704,7.102 -2.752,7.086 -2.771,7.08 -2.786,7.077 -2.797,7.079 -2.808,7.081 -2.818,7.08 -2.828,7.077 L -2.842,7.072 c 0.019,0.007 0.031,0.008 0.038,0.005 0.006,-0.004 0.019,-0.002 0.037,0.005 L -2.852,7.054 c 0.076,-0.134 0.129,-0.269 0.164,-0.405 0.012,-0.038 0.037,-0.114 0.074,-0.228 0.037,-0.114 0.074,-0.244 0.111,-0.39 0.037,-0.145 0.075,-0.286 0.113,-0.42 0.039,-0.134 0.071,-0.24 0.096,-0.316 0.04,-0.124 0.079,-0.242 0.116,-0.357 0.037,-0.114 0.08,-0.231 0.13,-0.351 C -2.001,4.476 -1.959,4.363 -1.922,4.249 -1.885,4.135 -1.841,4.018 -1.791,3.896 -1.704,3.662 -1.62,3.43 -1.54,3.198 -1.459,2.967 -1.377,2.738 -1.293,2.514 -1.253,2.39 -1.214,2.271 -1.177,2.156 -1.14,2.043 -1.098,1.93 -1.051,1.819 -1.011,1.695 -0.969,1.575 -0.925,1.458 -0.882,1.34 -0.841,1.225 -0.804,1.11 -0.767,0.997 -0.728,0.883 -0.686,0.771 -0.644,0.658 -0.6,0.547 -0.553,0.436 c 0.026,-0.077 0.05,-0.145 0.075,-0.205 0.025,-0.06 0.053,-0.123 0.084,-0.186 0.032,0 0.062,0.005 0.09,0.014 0.029,0.009 0.059,0.013 0.091,0.013 C -0.153,0.082 -0.082,0.058 0,0" /></g><g
           transform="translate(152.4919,24.0748)"
           id="g100"><path
             id="path102"
             style="fill:#ffffff;fill-opacity:1;fill-rule:nonzero;stroke:none"
             d="M 0,0 C 0.056,0.069 0.117,0.134 0.184,0.192 0.25,0.25 0.324,0.299 0.406,0.336 L 0.487,0.374 C 0.537,0.386 0.581,0.397 0.62,0.41 0.658,0.422 0.697,0.433 0.738,0.44 0.783,0.438 0.814,0.442 0.832,0.45 0.877,0.449 0.918,0.449 0.957,0.45 0.994,0.451 1.036,0.451 1.081,0.449 1.125,0.448 1.169,0.443 1.211,0.436 1.253,0.428 1.297,0.411 1.341,0.388 1.367,0.378 1.393,0.365 1.417,0.349 1.44,0.332 1.466,0.319 1.492,0.31 1.562,0.276 1.623,0.235 1.673,0.187 1.724,0.138 1.771,0.086 1.819,0.031 1.871,-0.033 1.894,-0.105 1.887,-0.186 1.88,-0.267 1.844,-0.332 1.78,-0.384 1.716,-0.436 1.641,-0.459 1.557,-0.454 1.472,-0.449 1.403,-0.415 1.352,-0.351 1.334,-0.337 1.321,-0.32 1.312,-0.303 1.305,-0.284 1.291,-0.269 1.273,-0.254 1.247,-0.244 1.226,-0.232 1.208,-0.219 1.19,-0.205 1.173,-0.191 1.155,-0.177 1.133,-0.177 1.117,-0.172 1.108,-0.165 1.1,-0.158 1.084,-0.154 1.062,-0.153 1.022,-0.139 0.991,-0.132 0.969,-0.131 0.929,-0.139 0.89,-0.146 0.854,-0.15 0.818,-0.156 0.775,-0.165 0.726,-0.177 L 0.617,-0.228 C 0.594,-0.249 0.55,-0.286 0.486,-0.337 0.467,-0.368 0.447,-0.396 0.427,-0.423 0.405,-0.449 0.386,-0.478 0.366,-0.508 0.352,-0.548 0.336,-0.586 0.319,-0.621 0.303,-0.656 0.292,-0.691 0.286,-0.728 0.28,-0.785 0.272,-0.841 0.264,-0.895 0.256,-0.947 0.253,-1.001 0.256,-1.055 c 0.009,-0.162 0.03,-0.316 0.066,-0.466 0.015,-0.081 0.033,-0.155 0.054,-0.222 0.02,-0.069 0.038,-0.143 0.053,-0.224 0.024,-0.076 0.051,-0.152 0.081,-0.226 0.028,-0.076 0.055,-0.152 0.08,-0.228 0.028,-0.086 0.061,-0.17 0.099,-0.252 0.038,-0.081 0.076,-0.163 0.114,-0.245 0.07,-0.177 0.142,-0.35 0.215,-0.52 0.073,-0.169 0.152,-0.345 0.235,-0.527 0.051,-0.109 0.103,-0.217 0.158,-0.324 0.055,-0.107 0.112,-0.212 0.172,-0.317 0.059,-0.105 0.114,-0.211 0.164,-0.321 0.051,-0.108 0.106,-0.216 0.165,-0.32 0.059,-0.105 0.118,-0.21 0.178,-0.315 L 2.269,-5.875 C 2.333,-5.967 2.389,-6.06 2.438,-6.152 2.486,-6.246 2.538,-6.34 2.594,-6.436 2.692,-6.578 2.804,-6.713 2.93,-6.842 2.969,-6.879 3.007,-6.908 3.045,-6.93 3.082,-6.951 3.118,-6.976 3.153,-7.003 3.192,-7.018 3.234,-7.031 3.279,-7.044 3.323,-7.057 3.365,-7.07 3.405,-7.085 3.464,-7.092 3.517,-7.1 3.565,-7.11 3.614,-7.121 3.666,-7.125 3.72,-7.121 c 0.053,0.002 0.121,0.012 0.202,0.027 l 0.231,0.107 c 0.019,0.008 0.032,0.016 0.038,0.025 0.007,0.009 0.015,0.016 0.024,0.02 0.042,0.052 0.073,0.105 0.093,0.158 0.046,0.088 0.078,0.152 0.092,0.192 0.006,0.035 0.009,0.075 0.011,0.12 -0.003,0.054 -0.012,0.121 -0.027,0.202 l -0.051,0.11 c -0.033,0.072 -0.035,0.148 -0.006,0.227 0.029,0.08 0.08,0.137 0.152,0.17 0.074,0.034 0.15,0.036 0.229,0.007 0.08,-0.029 0.137,-0.08 0.17,-0.153 C 4.899,-5.954 4.921,-6.026 4.945,-6.126 5.007,-6.307 5.021,-6.471 4.99,-6.617 4.987,-6.707 4.96,-6.802 4.908,-6.903 4.888,-6.956 4.854,-7.026 4.808,-7.115 4.774,-7.163 4.746,-7.209 4.723,-7.253 4.698,-7.297 4.668,-7.339 4.632,-7.378 4.562,-7.442 4.482,-7.496 4.392,-7.538 4.328,-7.567 4.264,-7.595 4.197,-7.619 4.132,-7.645 4.061,-7.669 3.984,-7.693 3.921,-7.7 3.855,-7.706 3.785,-7.711 3.716,-7.716 3.647,-7.717 3.581,-7.715 3.514,-7.713 3.446,-7.705 3.38,-7.691 3.313,-7.679 3.247,-7.66 3.181,-7.635 3.118,-7.62 3.059,-7.598 3.002,-7.568 2.946,-7.54 2.89,-7.511 2.833,-7.481 2.725,-7.433 2.619,-7.355 2.516,-7.248 2.478,-7.211 2.438,-7.172 2.396,-7.13 2.355,-7.088 2.32,-7.047 2.291,-7.005 2.244,-6.95 2.204,-6.894 2.173,-6.837 2.141,-6.78 2.102,-6.724 2.055,-6.668 1.99,-6.576 1.934,-6.477 1.884,-6.367 c -0.051,0.108 -0.111,0.214 -0.178,0.314 -0.06,0.105 -0.118,0.207 -0.176,0.308 -0.056,0.099 -0.115,0.202 -0.175,0.308 -0.059,0.104 -0.114,0.21 -0.164,0.32 -0.05,0.108 -0.105,0.216 -0.165,0.32 -0.063,0.113 -0.12,0.226 -0.171,0.334 -0.05,0.109 -0.102,0.223 -0.157,0.341 L 0.39,-3.455 c -0.041,0.113 -0.088,0.226 -0.141,0.34 -0.052,0.113 -0.099,0.226 -0.141,0.34 -0.045,0.122 -0.089,0.241 -0.133,0.359 -0.043,0.117 -0.084,0.239 -0.121,0.366 -0.037,0.126 -0.069,0.248 -0.097,0.367 -0.028,0.12 -0.05,0.243 -0.065,0.368 -0.011,0.071 -0.02,0.141 -0.025,0.211 -0.005,0.069 -0.003,0.139 0.008,0.21 0.002,0.089 0.005,0.151 0.01,0.187 0.005,0.035 0.011,0.073 0.019,0.115 0.007,0.042 0.021,0.079 0.039,0.11 C -0.202,-0.292 -0.116,-0.131 0,0" /></g><g
           transform="translate(165.1618,27.6959)"
           id="g104"><path
             id="path106"
             style="fill:#ffffff;fill-opacity:1;fill-rule:nonzero;stroke:none"
             d="m 0,0 c -0.26,0.356 -0.573,0.744 -0.941,1.163 0.093,-0.225 0.182,-0.452 0.267,-0.682 0.085,-0.23 0.177,-0.461 0.277,-0.695 0.073,0.034 0.138,0.07 0.198,0.108 C -0.14,-0.069 -0.073,-0.034 0,0 M 4.182,-3.965 C 4.247,-3.994 4.29,-4.048 4.309,-4.124 4.327,-4.201 4.317,-4.275 4.279,-4.346 4.246,-4.426 4.19,-4.473 4.111,-4.487 4.031,-4.501 3.954,-4.496 3.88,-4.472 3.82,-4.451 3.729,-4.378 3.609,-4.252 3.49,-4.127 3.365,-3.989 3.236,-3.84 3.107,-3.69 2.986,-3.549 2.872,-3.413 2.758,-3.278 2.678,-3.184 2.633,-3.13 2.211,-2.721 1.823,-2.295 1.468,-1.851 1.113,-1.406 0.746,-0.948 0.369,-0.477 0.279,-0.521 0.191,-0.57 0.106,-0.623 0.021,-0.677 -0.072,-0.724 -0.176,-0.765 c 0.041,-0.104 0.08,-0.21 0.117,-0.315 0.038,-0.107 0.078,-0.212 0.119,-0.316 0.128,-0.356 0.259,-0.708 0.394,-1.054 0.135,-0.347 0.273,-0.699 0.415,-1.059 0.113,-0.33 0.239,-0.658 0.378,-0.984 0.14,-0.326 0.287,-0.67 0.443,-1.032 C 1.721,-5.612 1.711,-5.689 1.659,-5.758 1.601,-5.853 1.516,-5.9 1.403,-5.9 1.29,-5.899 1.192,-5.832 1.107,-5.696 l -0.281,0.674 c -0.094,0.224 -0.182,0.452 -0.267,0.682 -0.179,0.454 -0.35,0.907 -0.515,1.359 -0.165,0.451 -0.356,0.927 -0.575,1.427 -0.114,0.33 -0.242,0.678 -0.387,1.041 -0.145,0.364 -0.284,0.716 -0.415,1.059 -0.047,0.112 -0.093,0.222 -0.137,0.33 -0.044,0.108 -0.09,0.219 -0.136,0.331 -0.044,0.09 -0.086,0.176 -0.125,0.257 -0.04,0.082 -0.078,0.17 -0.114,0.265 -0.01,0.017 -0.018,0.044 -0.025,0.083 -0.006,0.037 -0.006,0.099 -10e-4,0.185 -0.032,0.108 -0.001,0.208 0.097,0.299 0.096,0.09 0.206,0.102 0.329,0.038 0.142,-0.076 0.279,-0.162 0.409,-0.257 0.131,-0.096 0.247,-0.206 0.349,-0.33 C -0.261,1.329 0.129,0.871 0.482,0.373 0.836,-0.125 1.217,-0.624 1.624,-1.124 1.888,-1.432 2.147,-1.726 2.406,-2.006 2.665,-2.286 2.93,-2.578 3.201,-2.88 3.382,-3.073 3.542,-3.25 3.684,-3.409 3.825,-3.568 3.991,-3.754 4.182,-3.965" /></g><g
           transform="translate(175.5583,32.6734)"
           id="g108"><path
             id="path110"
             style="fill:#ffffff;fill-opacity:1;fill-rule:nonzero;stroke:none"
             d="M 0,0 C -0.577,0.672 -0.464,1.664 0.206,2.22 0.876,2.775 1.86,2.694 2.416,2.024 2.981,1.343 2.891,0.371 2.209,-0.194 1.539,-0.751 0.565,-0.681 0,0" /></g><g
           transform="translate(103.7927,163.2994)"
           id="g112"><path
             id="path114"
             style="fill:#ffffff;fill-opacity:1;fill-rule:nonzero;stroke:none"
             d="m 0,0 c -19.098,-4.851 -34.247,-24.197 -35.176,-48.249 -0.269,-6.986 4.655,-18.559 11.421,-28.263 1.128,-0.758 2.839,-1.535 4.972,-1.357 3.968,0.331 3.372,5.026 0.661,4.431 l -1.653,-0.331 c 0,0 -1.058,-0.264 -1.058,0.662 0,0.925 3.372,3.504 5.753,1.521 2.33,-1.942 1.429,-10.026 -5.679,-8.944 1.69,-2.115 3.453,-4.076 5.249,-5.804 0.314,-0.301 1.301,0.147 1.488,0.694 1.389,4.068 3.67,10.119 3.968,12.003 0.437,2.769 -8.068,4.365 -15.276,19.906 0,0 -7.44,16.896 8.365,37.264 1.463,1.885 4.233,6.349 18.021,14.879 C 1.492,-1.318 0.76,0.192 0,0" /></g><g
           transform="translate(45.4304,154.5367)"
           id="g116"><path
             id="path118"
             style="fill:#ffffff;fill-opacity:1;fill-rule:nonzero;stroke:none"
             d="M 0,0 C 0,0 -3.373,1.189 -0.694,4.364 1.984,7.538 7.737,10.515 9.92,11.209 12.103,11.903 11.407,9.621 10.713,8.332 10.019,7.043 9.522,3.67 7.737,5.455 c 0,0 0,1.786 0.397,2.579 0,0 -3.77,-2.579 -2.083,-4.662 1.686,-2.083 5.456,1.289 7.737,6.052 2.282,4.761 15.177,4.959 17.856,5.157 2.678,0.198 16.665,0.794 24.501,-4.066 0,0 0.694,-0.794 -2.381,-1.786 C 50.689,7.736 43.349,3.075 41.464,1.487 l -9.027,2.778 c 0,0 -2.976,1.587 -5.952,-1.19 -2.975,-2.778 -4.861,-5.654 -0.397,-7.737 0,0 2.282,-2.083 4.167,1.091 1.885,3.174 6.051,2.975 5.058,0.694 -0.991,-2.282 -3.868,-8.035 -5.654,-6.745 0,0 -0.793,0.793 1.29,2.281 2.083,1.488 2.182,3.968 1.289,3.67 -0.892,-0.297 -3.868,-5.356 -4.86,-4.86 -0.992,0.496 -9.225,5.158 -9.225,5.158 0,0 2.678,6.745 15.772,12.301 0,0 1.488,0.594 1.388,-1.29 -0.098,-1.885 2.282,-4.068 4.266,-2.579 1.984,1.488 -0.099,6.15 -8.432,5.654 C 22.815,10.217 16.665,9.126 15.871,7.538 15.078,5.951 13.888,4.166 12.598,0.992 l -1.091,-1.488 z" /></g><g
           transform="translate(74.0974,92.3414)"
           id="g120"><path
             id="path122"
             style="fill:#ffffff;fill-opacity:1;fill-rule:nonzero;stroke:none"
             d="m 0,0 c 0,0 5.357,-9.027 9.771,-12.697 0,0 0.893,-0.298 -1.587,-2.183 -2.48,-1.885 -3.224,-2.926 -3.224,-2.926 0,0 -0.794,0 -1.487,0.695 -0.695,0.694 -3.324,3.173 -5.357,1.24 -2.034,-1.935 -1.736,-6.349 -1.736,-6.349 l 2.975,2.778 c 0,0 -0.594,1.488 0.05,2.132 0.645,0.645 2.778,-0.198 3.77,-1.934 0,0 -5.456,-6.447 -6.447,-8.034 0,0 -0.844,-0.2 -1.539,1.139 -0.694,1.34 -2.677,9.672 1.241,11.905 0,0 0.892,1.388 6.893,0.545 0,0 0.248,2.282 -3.074,2.678 -3.323,0.397 -9.572,-3.571 -8.729,-12.995 0.842,-9.423 5.852,-14.135 5.852,-14.135 0,0 0.744,-1.686 -1.488,-2.132 0,0 -5.109,-0.546 -9.771,6.348 0,0 -0.794,1.091 0.199,2.182 0.992,1.092 4.513,5.804 1.091,7.639 0,0 -1.686,0.594 -2.48,-1.687 0,0 0,-1.19 1.537,-0.496 0,0 0.992,0 1.042,-0.347 0.05,-0.347 -1.935,-2.63 -3.472,-1.686 -1.537,0.942 -1.736,3.521 -0.148,5.306 1.587,1.786 5.009,5.456 2.529,6.299 -2.48,0.844 -2.331,-0.942 -1.736,-0.992 0.596,-0.049 1.042,0.496 1.29,-0.645 0.248,-1.14 -4.018,-2.033 -4.216,0.447 -0.199,2.48 1.983,3.521 3.918,4.017 1.935,0.496 6.051,0.744 6.497,3.918 0,0 -0.05,2.481 -2.579,1.786 0,0 -0.546,-0.397 0.1,-0.744 0.644,-0.347 1.487,-1.339 -0.05,-2.182 -1.537,-0.843 -3.621,1.388 -2.827,3.025 0.794,1.637 1.884,2.481 4.364,2.183 2.48,-0.298 6.002,-1.935 7.887,0.594 0,0 1.19,1.835 -1.538,2.877 0,0 -1.538,0.596 -1.786,-0.594 0,0 -0.347,-0.843 0.794,-0.794 0,0 0.843,0.049 0.545,-0.645 -0.298,-0.694 -1.835,-1.438 -3.125,0.198 -1.289,1.637 0.744,4.166 3.572,3.82 0,0 2.083,0.247 2.479,0.446" /></g><g
           transform="translate(106.237,67.5914)"
           id="g124"><path
             id="path126"
             style="fill:#ffffff;fill-opacity:1;fill-rule:nonzero;stroke:none"
             d="m 0,0 c -2.008,0.907 -4.91,2.331 -4.91,2.331 -0.036,2.554 4.131,2.054 5.992,0.607 1.86,-1.449 1.218,-3.019 2.539,-5.12 0.976,-1.552 1.768,-0.556 2.115,0.07 0.637,3.06 -2.174,8.651 -7.83,11.589 -5.792,3.007 -12.52,2.288 -14.556,-0.074 -0.064,-0.499 0.184,-0.974 1.325,-1.02 2.479,-0.1 3.521,1.239 5.703,0.346 2.183,-0.892 3.472,-2.727 1.24,-3.967 0,0 -2.033,0.942 -3.818,2.232 -1.786,1.289 -3.027,-0.992 -2.184,-2.331 0.246,-0.392 0.755,-0.913 1.351,-1.456 1.329,-0.848 2.939,-1.809 4.8,-2.959 1.796,-1.108 3.623,-2.088 5.339,-2.841 1.144,-0.33 2.235,-0.599 2.82,-0.624 C 1.507,-3.281 2.008,-0.906 0,0" /></g><g
           transform="translate(122.0984,163.2994)"
           id="g128"><path
             id="path130"
             style="fill:#ffffff;fill-opacity:1;fill-rule:nonzero;stroke:none"
             d="m 0,0 c 19.099,-4.851 34.248,-24.197 35.177,-48.249 0.269,-6.986 -4.655,-18.559 -11.421,-28.263 -1.128,-0.758 -2.839,-1.535 -4.972,-1.357 -3.968,0.331 -3.373,5.026 -0.662,4.431 l 1.654,-0.331 c 0,0 1.058,-0.264 1.058,0.662 0,0.925 -3.373,3.504 -5.753,1.521 -2.33,-1.942 -1.429,-10.026 5.679,-8.944 -1.69,-2.115 -3.453,-4.076 -5.249,-5.804 -0.314,-0.301 -1.301,0.147 -1.489,0.694 -1.388,4.068 -3.669,10.119 -3.967,12.003 -0.437,2.769 8.068,4.365 15.276,19.906 0,0 7.44,16.896 -8.365,37.264 -1.463,1.885 -4.233,6.349 -18.021,14.879 C -1.491,-1.318 -0.759,0.192 0,0" /></g><g
           transform="translate(180.4617,154.5367)"
           id="g132"><path
             id="path134"
             style="fill:#ffffff;fill-opacity:1;fill-rule:nonzero;stroke:none"
             d="m 0,0 c 0,0 3.372,1.189 0.694,4.364 -2.678,3.174 -8.431,6.151 -10.614,6.845 -2.183,0.694 -1.487,-1.588 -0.794,-2.877 0.694,-1.289 1.191,-4.662 2.977,-2.877 0,0 0,1.786 -0.397,2.579 0,0 3.769,-2.579 2.083,-4.662 -1.686,-2.083 -5.456,1.289 -7.737,6.052 -2.282,4.761 -15.178,4.959 -17.856,5.157 -2.677,0.198 -16.665,0.794 -24.501,-4.066 0,0 -0.694,-0.794 2.381,-1.786 3.075,-0.993 10.415,-5.654 12.3,-7.242 l 9.027,2.778 c 0,0 2.976,1.587 5.952,-1.19 2.975,-2.778 4.86,-5.654 0.396,-7.737 0,0 -2.281,-2.083 -4.166,1.091 -1.885,3.174 -6.051,2.975 -5.058,0.694 0.992,-2.282 3.868,-8.035 5.653,-6.745 0,0 0.794,0.793 -1.289,2.281 -2.083,1.488 -2.182,3.968 -1.29,3.67 0.893,-0.297 3.869,-5.356 4.861,-4.86 0.991,0.496 9.225,5.158 9.225,5.158 0,0 -2.678,6.745 -15.772,12.301 0,0 -1.488,0.594 -1.388,-1.29 0.099,-1.885 -2.282,-4.068 -4.266,-2.579 -1.984,1.488 0.099,6.15 8.432,5.654 8.332,-0.496 14.482,-1.587 15.276,-3.175 0.793,-1.587 1.983,-3.372 3.273,-6.546 l 1.091,-1.488 z" /></g><g
           transform="translate(151.7937,92.3414)"
           id="g136"><path
             id="path138"
             style="fill:#ffffff;fill-opacity:1;fill-rule:nonzero;stroke:none"
             d="m 0,0 c 0,0 -5.356,-9.027 -9.771,-12.697 0,0 -0.892,-0.298 1.587,-2.183 2.481,-1.885 3.225,-2.926 3.225,-2.926 0,0 0.793,0 1.487,0.695 0.695,0.694 3.324,3.173 5.357,1.24 2.033,-1.935 1.736,-6.349 1.736,-6.349 l -2.976,2.778 c 0,0 0.595,1.488 -0.049,2.132 -0.645,0.645 -2.778,-0.198 -3.77,-1.934 0,0 5.455,-6.447 6.447,-8.034 0,0 0.844,-0.2 1.538,1.139 0.695,1.34 2.678,9.672 -1.24,11.905 0,0 -0.892,1.388 -6.893,0.545 0,0 -0.249,2.282 3.074,2.678 3.323,0.397 9.572,-3.571 8.729,-12.995 -0.843,-9.423 -5.852,-14.135 -5.852,-14.135 0,0 -0.744,-1.686 1.488,-2.132 0,0 5.109,-0.546 9.771,6.348 0,0 0.793,1.091 -0.199,2.182 -0.992,1.092 -4.513,5.804 -1.091,7.639 0,0 1.686,0.594 2.48,-1.687 0,0 0,-1.19 -1.538,-0.496 0,0 -0.991,0 -1.041,-0.347 -0.05,-0.347 1.934,-2.63 3.472,-1.686 1.537,0.942 1.736,3.521 0.148,5.306 -1.587,1.786 -5.009,5.456 -2.529,6.299 2.48,0.844 2.331,-0.942 1.736,-0.992 -0.596,-0.049 -1.042,0.496 -1.29,-0.645 -0.248,-1.14 4.018,-2.033 4.216,0.447 0.198,2.48 -1.983,3.521 -3.918,4.017 -1.935,0.496 -6.051,0.744 -6.497,3.918 0,0 0.05,2.481 2.578,1.786 0,0 0.546,-0.397 -0.099,-0.744 -0.644,-0.347 -1.487,-1.339 0.05,-2.182 1.538,-0.843 3.621,1.388 2.827,3.025 -0.794,1.637 -1.884,2.481 -4.364,2.183 -2.48,-0.298 -6.002,-1.935 -7.887,0.594 0,0 -1.19,1.835 1.538,2.877 0,0 1.538,0.596 1.786,-0.594 0,0 0.346,-0.843 -0.794,-0.794 0,0 -0.843,0.049 -0.545,-0.645 0.297,-0.694 1.835,-1.438 3.124,0.198 1.29,1.637 -0.743,4.166 -3.571,3.82 0,0 -2.083,0.247 -2.48,0.446" /></g><g
           transform="translate(119.655,67.5914)"
           id="g140"><path
             id="path142"
             style="fill:#ffffff;fill-opacity:1;fill-rule:nonzero;stroke:none"
             d="m 0,0 c 2.007,0.907 4.91,2.331 4.91,2.331 0.035,2.554 -4.131,2.054 -5.992,0.607 -1.86,-1.449 -1.218,-3.019 -2.539,-5.12 -0.976,-1.552 -1.768,-0.556 -2.115,0.07 -0.637,3.06 2.174,8.651 7.83,11.589 5.792,3.007 12.52,2.288 14.555,-0.074 C 16.714,8.904 16.466,8.429 15.325,8.383 12.846,8.283 11.804,9.622 9.622,8.729 7.439,7.837 6.149,6.002 8.382,4.762 c 0,0 2.033,0.942 3.818,2.232 1.786,1.289 3.027,-0.992 2.183,-2.331 C 14.137,4.271 13.629,3.75 13.033,3.207 11.704,2.359 10.094,1.398 8.233,0.248 6.437,-0.86 4.61,-1.84 2.894,-2.593 1.75,-2.923 0.659,-3.192 0.074,-3.217 -1.507,-3.281 -2.008,-0.906 0,0" /></g><g
           transform="translate(113.3523,171.8678)"
           id="g144"><path
             id="path146"
             style="fill:#ffffff;fill-opacity:1;fill-rule:nonzero;stroke:none"
             d="M 0,0 V -0.001 H -0.001 -0.002 V 0 c -2.682,1.421 -4.067,3.305 -4.464,6.476 0.198,0.066 2.571,0.395 4.464,3.555 v 0.003 l 0.001,-0.001 C 0,10.033 0,10.034 0,10.034 V 10.031 C 1.893,6.871 4.266,6.542 4.464,6.476 4.067,3.305 2.681,1.421 0,0 m 10.728,10.186 c -1.119,0.223 -7.082,3.653 -5.219,11.854 0,0 2.311,-1.789 2.833,-4.324 H 6.329 c 0,0 -0.224,-0.523 0.447,-1.119 0.671,-0.596 2.685,-1.864 3.579,-1.193 0.895,0.671 0.448,6.114 -5.07,8.948 0,0 -1.118,0.67 -1.639,-1.567 -0.522,-2.236 -1.641,-7.306 2.907,-12.45 0,0 -6.71,0.969 -5.666,14.091 0,0 0.522,1.565 1.044,1.938 0,0 0.671,0.372 -0.448,1.268 -1.001,0.801 -1.403,1.098 -1.477,1.152 v 0.01 c 0,0 -0.003,-0.002 -0.007,-0.005 -0.004,0.003 -0.007,0.005 -0.007,0.005 v -0.01 c -0.073,-0.054 -0.476,-0.351 -1.477,-1.152 -1.119,-0.896 -0.448,-1.268 -0.448,-1.268 0.522,-0.373 1.044,-1.938 1.044,-1.938 1.044,-13.122 -5.666,-14.091 -5.666,-14.091 4.548,5.144 3.429,10.214 2.908,12.45 -0.522,2.237 -1.64,1.567 -1.64,1.567 -5.518,-2.834 -5.965,-8.277 -5.07,-8.948 0.894,-0.671 2.908,0.597 3.579,1.193 0.671,0.596 0.447,1.119 0.447,1.119 h -2.013 c 0.522,2.535 2.833,4.324 2.833,4.324 1.864,-8.201 -4.1,-11.631 -5.219,-11.854 -1.119,-0.224 -0.746,-1.044 -0.746,-1.044 0.076,-7.679 4.101,-11.929 4.101,-11.929 L -9.91,-5.546 c 2.014,-2.46 5.07,-3.205 6.486,-3.503 1.417,-0.299 1.417,0.894 0.82,1.64 -0.596,0.746 -1.938,1.789 -1.938,1.789 0.36,1.298 4.277,1.061 4.534,1.045 v -10e-4 c 0,0 0.004,10e-4 0.007,10e-4 0.002,0 0.007,-10e-4 0.007,-10e-4 v 10e-4 c 0.257,0.016 4.173,0.253 4.534,-1.045 0,0 -1.342,-1.043 -1.938,-1.789 -0.597,-0.746 -0.597,-1.939 0.82,-1.64 1.416,0.298 4.473,1.043 6.485,3.503 l -2.534,2.759 c 0,0 4.025,4.25 4.101,11.929 0,0 0.372,0.82 -0.746,1.044" /></g><g
           transform="translate(124.1033,89.0553)"
           id="g148"><path
             id="path150"
             style="fill:#ffffff;fill-opacity:1;fill-rule:nonzero;stroke:none"
             d="m 0,0 c -0.354,0.202 -0.838,0.478 -6.467,-1.954 -2.657,-1.149 -5.235,-2.378 -5.261,-2.39 l -0.299,-0.143 -0.299,0.143 c -0.027,0.012 -2.604,1.241 -5.262,2.39 -5.629,2.432 -6.113,2.156 -6.466,1.954 -0.563,-0.321 -0.893,-1.051 -0.907,-2.002 -0.015,-0.946 0.315,-2.263 1.288,-2.858 1.476,-0.902 2.992,-0.044 3.056,-0.007 0.285,0.165 0.382,0.528 0.217,0.813 -0.164,0.283 -0.527,0.381 -0.811,0.218 -0.045,-0.024 -0.979,-0.534 -1.841,-0.009 -0.428,0.262 -0.731,1.031 -0.719,1.826 0.006,0.473 0.132,0.821 0.26,0.949 0.787,-0.012 4.767,-1.544 10.333,-4.187 V -8.34 l -1.815,1.063 c -0.284,0.166 -0.649,0.07 -0.815,-0.213 -0.166,-0.283 -0.071,-0.649 0.213,-0.815 l 3.529,-2.065 v -0.046 l 0.039,0.023 0.04,-0.023 v 0.046 l 3.528,2.065 c 0.283,0.166 0.379,0.532 0.213,0.815 -0.166,0.283 -0.53,0.379 -0.815,0.213 l -1.815,-1.063 v 3.083 c 5.565,2.643 9.545,4.175 10.332,4.187 0.129,-0.128 0.254,-0.476 0.261,-0.949 0.012,-0.795 -0.291,-1.564 -0.719,-1.826 -0.861,-0.525 -1.797,-0.015 -1.842,0.009 -0.283,0.163 -0.645,0.065 -0.809,-0.218 -0.165,-0.285 -0.069,-0.648 0.215,-0.813 0.065,-0.037 1.581,-0.895 3.056,0.007 0.974,0.595 1.303,1.912 1.289,2.858 C 0.894,-1.051 0.562,-0.321 0,0" /></g><g
           transform="translate(112.8308,75.8414)"
           id="g152"><path
             id="path154"
             style="fill:#ffffff;fill-opacity:1;fill-rule:nonzero;stroke:none"
             d="m 0,0 c 0,0 5.489,6.282 15.144,9.126 0,0 1.52,0.133 2.447,-0.859 0.926,-0.993 0.132,-1.852 -1.654,-1.852 -1.786,0 -11.308,-2.314 -14.35,-8.333 0,0 -0.794,-1.256 -1.191,-0.265 C 0,-1.19 -0.463,-0.396 0,0" /></g><g
           transform="translate(112.1667,75.8414)"
           id="g156"><path
             id="path158"
             style="fill:#ffffff;fill-opacity:1;fill-rule:nonzero;stroke:none"
             d="m 0,0 c 0,0 -5.489,6.282 -15.144,9.126 0,0 -1.521,0.133 -2.447,-0.859 -0.926,-0.993 -0.132,-1.852 1.653,-1.852 1.786,0 11.309,-2.314 14.351,-8.333 0,0 0.793,-1.256 1.191,-0.265 C 0,-1.19 0.463,-0.396 0,0" /></g><g
           transform="translate(97.488,89.1012)"
           id="g160"><path
             id="path162"
             style="fill:#ffffff;fill-opacity:1;fill-rule:nonzero;stroke:none"
             d="m 0,0 c -0.231,-0.497 -0.614,-0.572 -0.661,-0.562 -0.376,0.075 -0.505,0.45 -0.43,0.827 0.339,1.691 -1.682,4 -2.479,4.76 -4.123,2.918 -9.443,7.437 -12.201,13.888 -2.77,6.476 -2.749,14.379 -0.1,23.906 2.973,10.69 9.289,17.514 13.888,21.029 4.992,3.817 9.068,5.399 9.247,5.452 l 0.186,0.054 0.189,-0.05 c 5.252,-1.414 13.509,-8.315 13.798,-8.566 0,0 0.584,-1.33 -1.291,-1.007 -7.228,1.245 -19.689,-0.688 -19.815,-0.71 0,0 -0.568,0.075 -0.628,0.231 -0.107,0.28 0,1.091 0,1.091 l 7.043,4.927 c 0.311,0.224 1.131,0.013 1.356,-0.297 0.224,-0.312 0.74,-0.901 0.429,-1.125 L 5.158,61.996 c 3.457,0.488 6.052,0.939 10.581,0.529 -2.353,1.829 -4.593,3.48 -7.869,4.432 C 7.016,66.672 3.349,65.746 -0.879,62.503 -5.291,59.118 -10.629,52.813 -13.49,42.521 -19.132,22.233 -11.043,14.647 -1.587,7.406 -0.312,6.43 1.624,4.38 1.059,1.554 0.992,1.224 0.324,0 0,0" /></g><g
           transform="translate(91.9333,102.0621)"
           id="g164"><path
             id="path166"
             style="fill:#ffffff;fill-opacity:1;fill-rule:nonzero;stroke:none"
             d="m 0,0 c 0,0 -0.694,-1.785 1.29,-2.381 0,0 4.166,1.786 8.034,-2.181 0,0 1.587,-2.679 3.075,-1.787 C 13.888,-5.456 12.201,-1.983 8.531,0 4.86,1.983 0,0 0,0" /></g><g
           transform="translate(93.0368,104.6871)"
           id="g168"><path
             id="path170"
             style="fill:#ffffff;fill-opacity:1;fill-rule:nonzero;stroke:none"
             d="m 0,0 c -1.559,0 -3.35,0.651 -5.352,1.95 l -0.063,0.041 -0.057,0.051 c -0.104,0.095 -2.569,2.354 -2.678,5.62 -0.068,2.042 0.786,3.99 2.538,5.789 0.364,0.374 0.971,0.39 1.357,0.035 0.385,-0.354 0.401,-0.945 0.036,-1.319 C -5.601,10.748 -6.277,9.259 -6.232,7.739 -6.164,5.478 -4.519,3.756 -4.213,3.455 -1.875,1.955 -0.031,1.514 1.271,2.144 3.092,3.026 3.659,6.002 3.724,7.074 3.755,7.588 4.209,7.98 4.736,7.952 5.266,7.923 5.669,7.483 5.641,6.969 5.629,6.768 5.322,2.027 2.132,0.476 1.479,0.158 0.768,0 0,0" /></g><g
           transform="translate(109.2712,138.2076)"
           id="g172"><path
             id="path174"
             style="fill:#ffffff;fill-opacity:1;fill-rule:nonzero;stroke:none"
             d="m 0,0 c 0,0 -0.349,-3.56 1.467,-3.839 1.814,-0.279 2.512,2.025 0.698,5.306 0,0 -1.326,4.049 -3.281,1.117 -1.955,-2.932 -4.05,-8.378 -7.61,-7.749 -3.56,0.628 -2.653,5.235 -1.256,5.864 1.395,0.627 2.443,0.279 2.303,-0.768 -0.139,-1.047 0.209,-2.444 1.885,-2.164 1.676,0.279 1.257,4.119 -0.559,5.166 -1.815,1.046 -5.166,0.698 -6.562,-2.514 -1.397,-3.211 -0.314,-8.141 5.166,-7.818 C -4.187,-7.189 0,0 0,0" /></g><g
           transform="translate(110.3191,118.6607)"
           id="g176"><path
             id="path178"
             style="fill:#ffffff;fill-opacity:1;fill-rule:nonzero;stroke:none"
             d="m 0,0 c -1.553,-2.012 -0.838,-3.84 0.349,-4.398 1.186,-0.559 4.048,-3.7 4.258,-4.049 0.209,-0.349 1.118,0.07 0.699,1.047 -0.419,0.977 0,1.536 0,1.536 C 6.492,-2.723 5.026,4.05 4.049,6.493 3.071,8.936 2.443,6.633 1.605,5.376 0.768,4.119 1.466,2.933 1.466,2.933 c 0,0 1.574,-2.437 1.773,-3.296 C 3.438,-1.223 3.04,-3.405 1.123,-2.48 -0.795,-1.554 0.594,-0.496 1.057,-0.893 1.52,-1.29 1.52,-2.281 1.916,-2.083 2.313,-1.885 2.843,-0.165 2.114,0.298 1.387,0.761 0.332,0.431 0,0" /></g><g
           transform="translate(93.7185,140.2525)"
           id="g180"><path
             id="path182"
             style="fill:#ffffff;fill-opacity:1;fill-rule:nonzero;stroke:none"
             d="m 0,0 c 0,0 -8.199,-8.134 -5.158,-10.383 3.042,-2.248 3.306,2.976 1.984,3.042 0,0 1.191,1.785 2.646,-1.057 0,0 0.198,-3.836 -5.555,-5.423 0,0 -4.034,-2.248 -1.786,-5.952 0,0 2.05,-2.38 4.299,-0.463 0,0 1.124,3.042 -1.588,3.373 0,0 2.249,3.24 5.026,0.859 2.778,-2.381 -1.785,-5.686 -2.644,-6.81 -0.861,-1.125 -4.366,-4.895 0.859,-7.341 0,0 2.711,-0.794 3.571,1.454 0,0 0.595,1.588 -1.389,2.712 -1.984,1.124 1.256,2.645 2.447,1.257 0,0 1.322,-1.985 2.116,-1.257 0.793,0.727 3.307,5.422 3.307,5.422 0,0 2.05,-0.992 2.182,-1.917 0.132,-0.926 -0.397,-1.787 -2.117,-3.703 -1.719,-1.918 -3.24,-6.746 -0.528,-10.184 2.711,-3.44 5.951,-4.299 8.266,-8.862 0,0 0.529,-0.992 1.124,-0.86 0.595,0.132 -0.529,11.97 -2.645,14.483 0,0 -1.587,1.256 -2.844,0.066 0,0 -0.793,-1.389 0.992,-1.984 0,0 0.397,-0.132 0.926,-0.066 0,0 0.53,-1.521 0.067,-1.653 -0.464,-0.133 -4.829,0.065 -4.167,3.24 0.662,3.174 3.108,3.439 4.893,2.315 0,0 0.463,0.198 0.331,1.057 -0.133,0.861 -0.264,5.621 0.596,7.738 0.858,2.116 -1.257,1.124 -3.175,2.05 0,0 0.397,6.546 1.389,9.986 0,0 0.397,1.057 -0.595,1.124 -0.992,0.066 -2.314,-3.572 -2.844,-9.986 0,0 -1.257,0.132 -0.529,4.034 0.728,3.901 -0.661,4.497 -1.389,2.248 -0.727,-2.248 -0.594,-4.828 -0.594,-4.828 0,0 -1.059,-0.065 -0.728,2.778 0.33,2.844 -0.331,5.224 -1.588,2.645 0,0 -0.263,-2.446 -0.33,-3.571 0,0 -5.819,4.629 -4.034,11.705 0,0 0.86,1.522 0.596,2.381 C 1.125,0.528 0.794,0.528 0,0" /></g><g
           transform="translate(98.9568,142.8785)"
           id="g184"><path
             id="path186"
             style="fill:#ffffff;fill-opacity:1;fill-rule:nonzero;stroke:none"
             d="m 0,0 c -1.656,-1.23 -3.392,-1.699 -3.877,-1.047 -0.484,0.652 0.466,2.179 2.122,3.409 1.656,1.231 3.393,1.7 3.877,1.047 C 2.606,2.757 1.656,1.23 0,0" /></g><g
           transform="translate(112.1697,131.7213)"
           id="g188"><path
             id="path190"
             style="fill:#ffffff;fill-opacity:1;fill-rule:nonzero;stroke:none"
             d="M 0,0 C 0,0 0.666,0.823 2.215,1.257 3.041,1.488 3.902,3.293 2.513,3.175 0.958,3.042 -1.389,2.712 -4.101,-2.116 c -2.711,-4.827 -0.131,-7.34 0.53,-7.075 0.661,0.263 0.794,0.661 0.528,2.181 -0.264,1.522 0.066,2.778 0.397,3.505 0,0 1.522,-3.438 4.167,-0.926 0,0 2.116,2.381 -1.521,4.431" /></g><g
           transform="translate(112.9958,141.6412)"
           id="g192"><path
             id="path194"
             style="fill:#ffffff;fill-opacity:1;fill-rule:nonzero;stroke:none"
             d="m 0,0 c 0,0 0.694,-4.497 3.836,-6.845 0,0 0.694,-0.429 1.124,0.067 0.43,0.496 0.628,0.958 -0.86,2.281 -1.488,1.322 -1.025,3.868 -1.025,3.868 0,0 2.216,-0.297 3.009,-1.487 0.794,-1.191 0.893,-3.869 1.157,-4.199 0.265,-0.331 2.712,-0.595 3.737,-0.794 0,0 1.686,-0.43 2.215,-0.563 0.529,-0.132 1.124,-0.065 1.091,0.927 -0.033,0.991 0.563,7.769 -7.109,10.68 0,0 -3.174,1.29 -8.299,1.355 0,0 -2.149,1.488 -5.522,1.19 0,0 -3.571,-0.959 -2.38,-2.446 0,0 0.396,-0.298 0.959,0.197 0.561,0.497 1.454,0.365 1.851,-0.098 0.397,-0.463 -0.496,-2.514 -2.744,-1.785 0,0 -0.397,0.396 -0.629,1.223 -0.231,0.826 -1.322,0.165 -0.761,-0.993 0.563,-1.156 1.554,-3.669 7.474,-0.891 l 1.388,0.859 c 0,0 5.026,1.52 9.688,-0.629 4.662,-2.148 4.001,-7.506 2.018,-7.009 C 8.233,-4.597 8.233,-0.529 7.902,0.496 7.572,1.521 6.811,1.554 4.86,1.289 2.91,1.025 -0.231,1.059 0,0" /></g><g
           transform="translate(138.7536,108.9068)"
           id="g196"><path
             id="path198"
             style="fill:#ffffff;fill-opacity:1;fill-rule:nonzero;stroke:none"
             d="m 0,0 c -0.417,-0.136 -0.728,-0.529 -0.364,-1.62 0.178,-0.534 -1.677,-4.911 -8.051,-8.927 0.413,5.015 2.069,8.607 4.933,10.702 -0.019,-1.103 0.01,-3.197 -1.337,-4.717 -0.175,0.115 -0.384,0.347 -0.604,0.296 -0.427,-0.096 -0.824,-0.498 -0.727,-0.925 0.146,-0.643 0.716,-1.452 0.992,-1.554 0.431,-0.161 0.982,0.774 1.024,0.826 2.039,2.498 2.225,4.972 2.24,6.243 0.003,0.214 -0.106,0.723 -0.09,0.8 0.142,0.625 0.132,0.825 -0.251,1.074 C -2.55,2.402 -2.961,2.386 -3.3,2.16 c -4.084,-2.318 -6.353,-6.771 -6.745,-13.236 -0.009,-0.159 -0.019,-0.339 -0.024,-0.374 -0.128,-0.641 0.021,-1.067 0.445,-1.267 0.114,-0.054 0.234,-0.08 0.355,-0.08 0.224,0 0.448,0.09 0.635,0.262 5.98,3.495 8.516,7.351 9.493,9.195 0.28,0.527 0.627,0.81 0.653,0.971 0.082,0.536 -0.04,1.775 -0.223,2.336 C 1.154,0.384 0.418,0.135 0,0" /></g><g
           transform="translate(127.1472,122.3639)"
           id="g200"><path
             id="path202"
             style="fill:#ffffff;fill-opacity:1;fill-rule:nonzero;stroke:none"
             d="m 0,0 c 0.992,-0.43 2.745,1.257 2.943,2.116 0.199,0.86 0.43,0.033 0.43,0.033 0.231,-0.959 0.959,-1.653 1.853,-1.19 0.892,0.463 0.561,1.785 0.561,1.785 0,0 -2.083,4.828 -2.48,5.258 C 2.91,8.432 2.58,7.737 2.58,7.737 2.613,6.68 2.514,5.158 1.488,3.009 0.437,0.806 -0.628,2.877 -0.793,3.472 -0.959,4.067 -1.091,5.721 -2.314,5.489 -3.537,5.258 -3.967,4.431 -3.702,2.479 c 0.264,-1.95 -0.364,-2.975 -0.596,-3.504 -0.231,-0.529 -1.355,-1.157 -0.761,-1.851 0.596,-0.694 1.357,-0.066 1.885,0.694 0.529,0.76 0.761,0.43 0.761,0.43 0,0 0.396,-0.794 1.091,-0.827 0.694,-0.033 1.191,1.025 0.298,2.216 -0.893,1.19 -0.628,2.116 -0.628,2.116 0,0 0.661,-1.323 1.652,-1.753" /></g><g
           transform="translate(131.0661,109.0553)"
           id="g204"><path
             id="path206"
             style="fill:#ffffff;fill-opacity:1;fill-rule:nonzero;stroke:none"
             d="m 0,0 c 0,0 4.612,2.927 3.77,9.076 0,0 -1.042,4.911 -5.705,3.77 0,0 -0.198,-3.075 -0.148,-5.059 0.05,-1.983 0.198,-2.083 1.091,-3.323 0.892,-1.24 1.537,-0.496 0.942,1.19 0,0 -0.644,0.794 0.496,0.595 1.141,-0.198 1.289,0.943 0.645,1.34 -0.645,0.396 -2.133,0.148 -2.083,1.091 0.05,0.942 0.396,2.827 0.396,2.827 0,0 1.835,0.347 3.026,-1.687 1.19,-2.033 0.199,-5.604 -3.324,-8.63 0,0 -2.826,0 -4.71,-1.835 -1.885,-1.834 -1.787,-1.884 -3.125,-1.438 -1.339,0.446 -2.183,-0.396 -1.539,-0.843 0.646,-0.446 1.985,-0.844 2.083,-1.19 0.1,-0.347 0,-1.092 0.15,-1.537 0.149,-0.448 0.446,-1.241 1.19,-1.092 0.744,0.148 0.298,1.141 0.448,1.686 0.148,0.546 1.387,2.034 2.379,1.339 0.993,-0.694 -0.346,-3.174 -0.794,-3.423 -0.446,-0.247 -0.792,-0.891 0,-1.437 0.794,-0.546 0.1,-4.018 0.1,-4.018 l 0.013,0.003 c -0.01,-0.046 -0.02,-0.091 -0.03,-0.135 -0.492,-2.19 -1.634,-3.114 -1.643,-3.122 -0.007,-0.004 -0.014,-0.009 -0.02,-0.015 -2.879,-2.449 -6.218,-4.279 -7.601,-4.156 -0.113,0.009 -0.263,0.039 -0.334,0.124 -0.652,0.783 0.737,2.145 0.764,2.17 0.059,0.06 6.007,6.057 6.644,6.694 0.007,0.008 0.014,0.014 0.021,0.021 0.073,-0.228 0.17,-0.792 0.075,-2.09 -0.17,-2.294 -3.675,-3.497 -3.71,-3.508 -0.276,-0.092 -0.424,-0.39 -0.332,-0.665 0.092,-0.276 0.389,-0.424 0.665,-0.332 0.172,0.056 4.204,1.434 4.425,4.427 0.145,1.947 -0.071,2.944 -0.699,3.231 -0.217,0.099 -0.661,0.188 -1.189,-0.34 -0.638,-0.639 -6.587,-6.637 -6.635,-6.686 -0.021,-0.019 -0.509,-0.483 -0.866,-1.116 -0.531,-0.939 -0.521,-1.819 0.029,-2.479 0.243,-0.292 0.598,-0.459 1.052,-0.499 0.066,-0.005 0.134,-0.008 0.203,-0.008 1.959,0 5.539,2.176 8.163,4.405 0.155,0.125 1.457,1.231 2.014,3.713 0.044,0.198 0.182,0.611 0.182,0.611 0,0 0.544,3.67 1.24,6.101 C -1.588,-3.818 0,0 0,0" /></g><g
           transform="translate(144.2097,123.9352)"
           id="g208"><path
             id="path210"
             style="fill:#ffffff;fill-opacity:1;fill-rule:nonzero;stroke:none"
             d="m 0,0 c 0,0 -0.05,0.645 -0.744,0.893 -0.694,0.247 -2.381,2.827 -0.1,5.208 0,0 0,6.794 -8.431,17.061 0,0 -0.298,0.595 -1.24,-0.248 -0.942,-0.844 -2.48,-1.984 -2.48,-1.984 l -0.009,-0.01 c -2.948,3.159 -4.183,5.272 -4.533,5.936 0.24,0.397 0.648,1.08 0.921,1.538 2.324,-1.719 3.945,-3.466 4.597,-4.216 l -0.662,-0.522 -2.766,2.409 c -0.206,0.18 -0.52,0.158 -0.699,-0.048 -0.18,-0.207 -0.159,-0.52 0.047,-0.7 l 3.076,-2.678 c 0.179,-0.157 0.446,-0.163 0.632,-0.016 l 1.389,1.091 c 0.104,0.082 0.17,0.2 0.186,0.331 0.015,0.131 -0.022,0.263 -0.103,0.366 -0.085,0.108 -2.117,2.663 -5.559,5.107 -0.112,0.081 -0.254,0.109 -0.389,0.081 -0.136,-0.03 -0.253,-0.114 -0.324,-0.232 -0.011,-0.018 -1.091,-1.835 -1.333,-2.222 -0.087,-0.14 -0.099,-0.313 -0.034,-0.463 0.045,-0.104 1.01,-2.657 4.899,-6.781 0.16,-0.337 0.607,-0.825 1.755,0.036 1.588,1.191 3.521,0.447 4.166,-0.446 0,0 5.456,-7.406 5.952,-12.597 0,0 -0.777,-0.827 -0.728,-1.224 0,0 -1.414,7.468 -4.662,11.838 -0.273,0.368 -1.256,1.339 -1.355,-1.24 -0.099,-2.58 -0.893,-4.316 -0.893,-4.316 0,0 -1.637,0.298 -1.438,1.24 0.198,0.943 0.794,4.068 0.049,5.853 0,0 -2.198,0.827 -2.083,-1.935 0.032,-0.769 0.347,-1.388 0.199,-3.075 -0.15,-1.685 0.446,-2.38 0.743,-2.678 0.299,-0.297 3.473,-2.331 3.969,-1.984 0.496,0.348 1.587,3.125 1.587,3.125 0,0 1.315,-2.314 1.488,-3.174 0.201,-1.005 -0.15,-3.471 -0.496,-4.067 -0.348,-0.595 -3.77,0.496 -4.91,1.14 0,0 -0.497,0.645 -0.646,1.835 -0.148,1.191 -1.735,0.05 -1.685,-1.19 0.048,-1.239 1.041,-3.322 1.041,-3.322 0,0 1.24,-3.423 2.281,-3.522 1.042,-0.099 1.587,0.942 1.538,1.438 -0.05,0.496 -1.389,1.885 -1.389,2.232 0,0.347 2.728,-1.835 3.72,-0.744 0.992,1.091 1.19,2.48 1.389,2.579 0.198,0.1 0.396,-0.644 0.496,-1.29 0.099,-0.644 -0.05,-3.719 -0.248,-4.265 -0.2,-0.545 0.892,-1.24 1.289,-2.083 0.397,-0.843 0.744,-1.042 0.546,-2.231 -0.199,-1.19 -1.439,-5.406 -1.439,-5.406 0,0 -0.298,1.289 -2.679,2.777 0,0 -0.544,0.397 -0.793,1.041 -0.248,0.645 -0.992,2.481 -1.29,2.877 l 3.324,-0.644 c 0,0 -0.347,-0.844 -0.695,-1.389 -0.346,-0.546 -0.148,-1.439 0.496,-1.389 0,0 0.67,-0.048 0.645,0.234 0.004,-0.121 0.046,-1.015 0.694,-0.83 0.696,0.199 0.646,1.637 -0.148,3.968 0,0 -0.348,0.496 -0.893,0.695 -0.546,0.198 -4.861,1.388 -4.861,1.388 0,0 -1.041,-0.248 -0.693,-0.843 0.346,-0.594 1.338,-4.265 1.487,-5.902 0.149,-1.637 1.786,-2.083 2.281,-2.331 0.496,-0.248 1.935,-1.141 2.431,-2.927 0.496,-1.785 1.14,-0.297 1.537,1.091 C -2.183,-10.366 0.396,-4.712 0,0" /></g><g
           transform="translate(127.115,143.1617)"
           id="g212"><path
             id="path214"
             style="fill:#ffffff;fill-opacity:1;fill-rule:nonzero;stroke:none"
             d="m 0,0 c 0,0 2.645,-3.438 2.513,-9.522 0,0 -0.133,-1.587 0.925,-1.587 1.058,0 1.389,3.57 -2.512,12.895 0,0 -4.564,8.266 -15.144,13.887 0,0 6.48,-0.132 12.167,-5.688 0,0 1.059,-0.859 0.992,0.794 -0.066,1.654 -9.919,6.68 -18.252,7.407 0,0 -0.661,-1.124 0.265,-1.587 C -18.12,16.136 -4.827,9.391 0,0" /></g><g
           transform="translate(89.1326,53.8531)"
           id="g216"><path
             id="path218"
             style="fill:#ffffff;fill-opacity:1;fill-rule:nonzero;stroke:none"
             d="m 0,0 c 0,0 2.132,-0.198 2.877,-0.893 0.743,-0.694 2.827,-18.45 2.182,-21.177 0,0 -0.993,-0.447 -2.282,-0.248 l -14.928,16.267 2.529,-17.557 c 0,0 -0.248,-0.447 -1.835,-0.347 0,0 -1.24,-0.794 -1.389,0 -0.149,0.793 -2.281,16.812 -3.273,19.095 0,0 0.148,1.537 0.298,1.785 0,0 2.281,0.893 3.67,-0.149 0,0 11.159,-13.441 14.63,-15.871 0,0 -0.992,14.036 -2.479,19.095" /></g><g
           transform="translate(101.8786,50.8775)"
           id="g220"><path
             id="path222"
             style="fill:#ffffff;fill-opacity:1;fill-rule:nonzero;stroke:none"
             d="m 0,0 -0.446,0.694 c 0,0 -1.985,0.496 -2.033,-0.049 -0.05,-0.546 0.792,-1.737 0.792,-1.737 0,0 -5.901,-19.789 -5.802,-20.433 0,0 1.042,-0.397 1.636,-0.05 0,0 0.646,-0.1 0.794,-0.049 0.149,0.049 1.538,5.059 1.538,5.059 0,0 0.149,-0.397 0.446,-0.447 0.298,-0.05 8.135,-0.198 9.324,0.05 0,0 0.199,0.347 -0.445,1.686 h -8.879 l 3.423,10.713 8.828,-16.368 1.637,0.496 -9.424,18.352 c 0,0 0.149,0.744 0.248,1.041 0.099,0.298 0.248,0.694 -0.298,1.29 C 0.794,0.843 0.298,0.942 0.248,0.595 0.199,0.248 0,0 0,0" /></g><g
           transform="translate(113.2868,55.1178)"
           id="g224"><path
             id="path226"
             style="fill:#ffffff;fill-opacity:1;fill-rule:nonzero;stroke:none"
             d="m 0,0 -9.077,-0.124 c 0,0 -1.066,1.612 -0.694,2.083 0,0 0.075,0.149 1.586,0.199 1.513,0.049 19.072,0.571 19.072,0.571 0,0 0.322,-1.042 -0.05,-2.257 L 1.735,0.099 2.744,-25.864 c 0,0 -0.065,-0.497 -0.331,-0.596 -0.264,-0.1 -1.389,-0.298 -1.422,0.198 C 0.958,-25.766 0,0 0,0" /></g><g
           transform="translate(120.6931,46.149)"
           id="g228"><path
             id="path230"
             style="fill:#ffffff;fill-opacity:1;fill-rule:nonzero;stroke:none"
             d="m 0,0 c 0,0 -0.133,0.959 0.694,1.124 0.827,0.166 2.282,0.1 2.282,-0.595 0,-0.694 0.992,-15.904 0.992,-15.904 0,0 0.661,-1.785 -0.861,-1.455 -1.52,0.331 -2.611,-0.463 -2.115,1.356 0,0 0.197,1.752 0.032,3.902 C 0.859,-9.424 0,0 0,0" /></g><g
           transform="translate(126.2478,44.0328)"
           id="g232"><path
             id="path234"
             style="fill:#ffffff;fill-opacity:1;fill-rule:nonzero;stroke:none"
             d="m 0,0 c 0,0 -0.231,0.893 0.826,0.827 0,0 0.497,0 0.894,-0.066 0.396,-0.067 8.332,-12.896 8.332,-12.896 l 1.885,23.707 c 0,0 -0.034,0.365 0.627,0.266 0.663,-0.1 1.356,-0.232 1.356,-0.232 0,0 0.298,-0.066 0.232,-0.562 l -2.083,-24.006 c 0,0 0,-1.057 0.033,-1.454 0.033,-0.397 -1.456,-1.025 -2.05,-0.826 C 9.457,-15.045 0,0 0,0" /></g><g
           transform="translate(146.1199,34.6422)"
           id="g236"><path
             id="path238"
             style="fill:#ffffff;fill-opacity:1;fill-rule:nonzero;stroke:none"
             d="m 0,0 c -0.841,0.202 -1.206,0.457 -1.355,0.83 v 7.603 c 0.238,0.198 0.516,0.373 0.694,0.462 1.52,0.76 2.116,0.992 2.942,1.125 1.422,0 4.806,-2.402 5.032,-5.362 C 7.534,1.788 3.703,-1.455 0,0 M 9.291,4.695 C 8.943,8.467 6.113,11.44 2.05,11.44 c -4.064,0 -7.903,-3.938 -7.275,-7.406 0.959,-3.703 1.787,-5.092 5.423,-5.819 5.158,0.033 9.431,2.824 9.093,6.48" /></g></g></g></g></svg>