<?xml version="1.0" encoding="utf-8"?>
<svg id="master-artboard" viewBox="0 0 125 125" version="1.1" xmlns="http://www.w3.org/2000/svg" x="0px" y="0px" style="enable-background:new 0 0 1400 980;" width="125px" height="125px"><rect id="ee-background" x="0" y="0" width="125" height="125" style="fill: white; fill-opacity: 0; pointer-events: none;"/><g transform="matrix(0.26310688257217413, 0, 0, 0.26310688257217413, -4.325998862584427, -4.523851553599037)"><path d="M427.2,395.8H279.4V143.6c0-3.6-2.9-6.6-6.6-6.6c-3.6,0-6.6,2.9-6.6,6.6v252.3H125.1c-7.6,0-14,3.9-16.4,9.8  c-2,4.9-0.6,10.3,3.4,14.2l44.3,42c8.1,7.7,20.2,12.1,33.2,12.1h173.1c13,0,25-4.4,33.2-12.1l44.3-42c4.1-3.8,5.4-9.3,3.4-14.2  C441.2,399.7,434.8,395.8,427.2,395.8z"/><path d="M 299.1000061035156 299.70001220703125 L 305.70001220703125 299.70001220703125 L 312.20001220703125 299.70001220703125 L 396.6000061035156 299.70001220703125 L 404.5 299.70001220703125 L 412.29998779296875 299.70001220703125 L 383.8999938964844 256.1000061035156 L 376.1000061035156 256.1000061035156 L 368.20001220703125 256.1000061035156 L 312.20001220703125 256.1000061035156 L 305.70001220703125 256.1000061035156 L 299.1000061035156 256.1000061035156 Z"/><path d="M420.9,312.8H413h-7.8h-93h-6.6h-6.6v56.8c0,3.6,2.9,6.6,6.6,6.6H450c2.4,0,4.6-1.3,5.8-3.4c1.2-2.1,1-4.7-0.3-6.7  L420.9,312.8z"/><path d="M312.2,243h47.5h7.8h7.8l-64.2-98.6c-1.6-2.4-4.6-3.6-7.4-2.7c-2.8,0.8-4.7,3.4-4.7,6.3v95h6.6H312.2z"/><path d="M135.8,373.1c1.2,2.1,3.4,3.4,5.7,3.4h98.5c3.6,0,6.6-2.9,6.6-6.6V211.2c0-2.9-1.9-5.5-4.8-6.3c-2.8-0.8-5.8,0.4-7.4,2.9  L136,366.5C134.7,368.5,134.7,371.1,135.8,373.1z"/><path d="M98.2,123.8c0,23.8,19.3,43.1,43.1,43.1c23.8,0,43.1-19.3,43.1-43.1c0-23.8-19.3-43.1-43.1-43.1  C117.5,80.8,98.2,100.1,98.2,123.8z"/><path d="M147.8,54.4v-9.9c0-3.6-2.9-6.6-6.6-6.6c-3.6,0-6.6,2.9-6.6,6.6v9.9c0,3.6,2.9,6.6,6.6,6.6C144.9,61,147.8,58.1,147.8,54.4z  "/><path d="M141.2,209.7c3.6,0,6.6-2.9,6.6-6.6v-9.9c0-3.6-2.9-6.6-6.6-6.6c-3.6,0-6.6,2.9-6.6,6.6v9.9  C134.7,206.7,137.6,209.7,141.2,209.7z"/><path d="M220.5,130.4c3.6,0,6.6-2.9,6.6-6.6c0-3.6-2.9-6.6-6.6-6.6h-9.9c-3.6,0-6.6,2.9-6.6,6.6c0,3.6,2.9,6.6,6.6,6.6H220.5z"/><path d="M71.8,117.3H62c-3.6,0-6.6,2.9-6.6,6.6c0,3.6,2.9,6.6,6.6,6.6h9.9c3.6,0,6.6-2.9,6.6-6.6C78.4,120.2,75.5,117.3,71.8,117.3z  "/><path d="M192.6,63.1l-7,7c-2.6,2.6-2.6,6.7,0,9.3c1.3,1.3,3,1.9,4.6,1.9c1.7,0,3.4-0.6,4.6-1.9l7-7c2.6-2.6,2.6-6.7,0-9.3  C199.4,60.6,195.2,60.6,192.6,63.1z"/><path d="M87.5,168.2l-7,7c-2.6,2.6-2.6,6.7,0,9.3c1.3,1.3,3,1.9,4.6,1.9s3.4-0.6,4.6-1.9l7-7c2.6-2.6,2.6-6.7,0-9.3  C94.3,165.7,90.1,165.7,87.5,168.2z"/><path d="M197.3,186.5c1.7,0,3.4-0.6,4.6-1.9c2.6-2.6,2.6-6.7,0-9.3l-7-7c-2.6-2.6-6.7-2.6-9.3,0c-2.6,2.6-2.6,6.7,0,9.3l7,7  C193.9,185.8,195.6,186.5,197.3,186.5z"/><path d="M89.8,63.1c-2.6-2.6-6.7-2.6-9.3,0c-2.6,2.6-2.6,6.7,0,9.3l7,7c1.3,1.3,3,1.9,4.6,1.9c1.7,0,3.4-0.6,4.6-1.9  c2.6-2.6,2.6-6.7,0-9.3L89.8,63.1z"/><text x="0" y="527" fill="#000000" font-size="5px" font-weight="bold" font-family="'Helvetica Neue', Helvetica, Arial-Unicode, Arial, Sans-serif" style="fill: rgb(0, 0, 0); font-size: 5px; font-weight: bold; font-family: 'Helvetica Neue', Helvetica, Arial-Unicode, Arial, sans-serif; white-space: pre;">Created by Chanut is Industries</text><text x="0" y="532" fill="#000000" font-size="5px" font-weight="bold" font-family="'Helvetica Neue', Helvetica, Arial-Unicode, Arial, Sans-serif" style="fill: rgb(0, 0, 0); font-size: 5px; font-weight: bold; font-family: 'Helvetica Neue', Helvetica, Arial-Unicode, Arial, sans-serif; white-space: pre;">from the Noun Project</text></g></svg>