<?xml version="1.0" encoding="utf-8"?>
<svg id="master-artboard" viewBox="0 0 125 125" version="1.1" xmlns="http://www.w3.org/2000/svg" x="0px" y="0px" style="enable-background:new 0 0 1400 980;" width="125px" height="125px"><g transform="matrix(7.761529890362408, 0, 0, 7.761529890362408, -3.1309405335697944, -3.2976179763628872)"><path style="color:#000000;font-style:normal;font-variant:normal;font-weight:normal;font-stretch:normal;font-size:medium;line-height:normal;font-family:sans-serif;font-variant-ligatures:normal;font-variant-position:normal;font-variant-caps:normal;font-variant-numeric:normal;font-variant-alternates:normal;font-feature-settings:normal;text-indent:0;text-align:start;text-decoration:none;text-decoration-line:none;text-decoration-style:solid;text-decoration-color:#000000;letter-spacing:normal;word-spacing:normal;text-transform:none;writing-mode:lr-tb;direction:ltr;text-orientation:mixed;dominant-baseline:auto;baseline-shift:baseline;text-anchor:start;white-space:normal;shape-padding:0;clip-rule:nonzero;display:inline;overflow:visible;visibility:visible;opacity:1;isolation:auto;mix-blend-mode:normal;color-interpolation:sRGB;color-interpolation-filters:linearRGB;solid-color:#000000;solid-opacity:1;vector-effect:none;fill:#000000;fill-opacity:1;fill-rule:nonzero;stroke:none;stroke-width:0.52916658;stroke-linecap:round;stroke-linejoin:miter;stroke-miterlimit:4;stroke-dasharray:none;stroke-dashoffset:0;stroke-opacity:1;color-rendering:auto;image-rendering:auto;shape-rendering:auto;text-rendering:auto;enable-background:accumulate" d="m 13.483442,1.0583514 c -0.145369,0.00172 -0.261909,0.1212268 -0.260492,0.2671231 v 0.5295971 c -0.008,0.3606662 0.535181,0.3606662 0.527174,0 V 1.3254745 C 13.751524,1.177148 13.631231,1.0566183 13.483442,1.0583514 Z m -1.490399,0.6205322 c -0.234837,0.00191 -0.35015,0.2878103 -0.182766,0.4531283 l 0.3717,0.3751089 c 0.249171,0.2501395 0.622937,-0.1249696 0.373765,-0.3751089 L 12.181977,1.7589686 c -0.04963,-0.051194 -0.117768,-0.080076 -0.188934,-0.08008 z m 2.981317,0 c -0.06919,0.00151 -0.135028,0.030275 -0.183275,0.08008 l -0.371697,0.3730422 c -0.259368,0.2486142 0.122549,0.6340354 0.371697,0.375109 l 0.373756,-0.3751079 c 0.17014,-0.1679454 0.04811,-0.458244 -0.190481,-0.4531283 z m -1.486795,0.7052672 c -0.5791,0 -1.054868,0.4770641 -1.054868,1.0581593 0,0.581095 0.475768,1.0566092 1.054868,1.0566092 0.579098,0 1.054347,-0.4755142 1.054347,-1.0566092 0,-0.5810952 -0.475249,-1.0581593 -1.054347,-1.0581593 z m -1.553214,0.7936203 c -0.0096,-1.957e-4 -0.01926,1.382e-4 -0.02884,10e-4 h -0.527175 c -0.0084,-4.049e-4 -0.01683,-4.049e-4 -0.02525,0 -0.328588,0.036203 -0.305279,0.5231078 0.02525,0.5275291 h 0.527175 c 0.351161,0.019362 0.380008,-0.5092012 0.02884,-0.5285631 z m 3.691255,0 c -0.0096,-1.957e-4 -0.01925,1.382e-4 -0.02884,10e-4 h -0.527177 c -0.0091,-4.71e-4 -0.01817,-4.71e-4 -0.02724,0 -0.329609,0.036525 -0.304355,0.5254072 0.02724,0.5275291 h 0.527175 c 0.351161,0.019362 0.380007,-0.5092012 0.02884,-0.5285631 z m -3.260865,1.1201604 c -0.06902,0.00164 -0.134643,0.030397 -0.182764,0.08008 l -0.3717,0.3745931 c -0.288355,0.2478942 0.124698,0.6624397 0.3717,0.3730424 l 0.373765,-0.3730426 c 0.173151,-0.1679709 0.04971,-0.4618201 -0.191001,-0.4546779 z m 2.23792,0 c -0.236914,4.95e-5 -0.353514,0.2893226 -0.183273,0.454678 l 0.371697,0.3730424 c 0.247719,0.260415 0.631862,-0.1229969 0.373756,-0.3730424 L 14.791085,4.3780164 c -0.0495,-0.051067 -0.117434,-0.079938 -0.188424,-0.08008 z m -1.119219,0.4624281 c -0.14639,0.00172 -0.263348,0.1228072 -0.260492,0.269707 v 0.5290791 c -0.008,0.3606662 0.535181,0.3606662 0.527174,0 V 5.0300666 c 0.0029,-0.149335 -0.117866,-0.2714736 -0.266682,-0.269707 z M 6.1922662,6.8777121 c -0.065267,-0.00284 -0.1305187,0.0043 -0.1935652,0.02118 C 5.6517378,6.9923507 5.446872,7.3540634 5.5410195,7.7069781 5.635072,8.060099 5.9928074,8.2708412 6.3400254,8.1776735 6.6874511,8.0844533 6.8926572,7.7223113 6.798216,7.36907 6.7232833,7.0888615 6.4776302,6.8896622 6.1922662,6.8777078 Z m 6.1021598,1.4120844 c -0.02523,8.995e-4 -0.05021,0.00541 -0.07417,0.01343 L 9.1282569,9.3092019 C 9.0308659,9.340686 8.9604248,9.4258842 8.9475579,9.527757 L 8.8764879,10.097138 9.7697013,9.9958689 9.7444469,9.6641611 10.259782,9.4967568 10.293222,9.9359339 13.682791,9.550491 12.484806,8.3657456 c -0.05069,-0.05007 -0.119385,-0.077459 -0.190491,-0.07595 z m -6.7837807,0.016531 c -0.047413,-0.00209 -0.099019,0.0038 -0.154437,0.02222 C 5.0949468,8.4154873 4.9651345,8.6415404 4.8413815,8.9764635 4.6398807,9.5218086 4.5428984,10.056932 4.6267047,10.58127 l 1.2273314,-0.14002 c -0.031043,-0.292172 -0.014774,-0.5765051 0.040626,-0.8545872 0.341644,0.1699789 0.6164204,0.3586551 0.9611688,0.328608 L 8.4435314,9.6579648 C 8.6699464,9.6212248 8.8225571,9.4006226 8.7858943,9.1635027 8.7492614,8.9263816 8.5376392,8.7656356 8.3112238,8.8023436 L 6.8234001,9.0431155 5.807661,8.4241344 C 5.7566546,8.3910843 5.6527448,8.3125414 5.5106051,8.3063313 Z M 2.8804342,9.2399671 c -0.0036,1.023e-4 -0.00719,2.91e-4 -0.01078,5.291e-4 -0.00654,2.911e-4 -0.013065,8.202e-4 -0.019565,0.00159 l -1.3112475,0.09608 C 1.1694785,9.3472462 1.2113451,9.911141 1.5779697,9.8651794 L 2.8892172,9.7695981 C 3.2409999,9.763578 3.2320163,9.233979 2.8802403,9.2400009 Z M 15.582581,9.867732 c -0.0085,1.273e-4 -0.01686,6.615e-4 -0.02526,0.00159 l -12.8226098,1.4591 c -0.1412014,0.01575 -0.2445655,0.140973 -0.2337218,0.283141 l 0.068475,0.904189 c 0.00502,0.06532 0.034009,0.126439 0.081351,0.171538 l 0.051506,0.04908 c 0.1288539,-0.02517 0.2629483,-0.04133 0.4031014,-0.04133 0.6318125,0 1.0707483,0.351419 1.3405937,0.540962 0.270674,0.190127 0.4640199,0.25369 0.4375983,0.25369 -0.026453,0 0.1644388,-0.0629 0.4360511,-0.25369 0.2707738,-0.190199 0.7108375,-0.540962 1.34265,-0.540962 0.6318023,10e-7 1.0707479,0.351419 1.3405837,0.540962 0.270674,0.190127 0.4640199,0.25369 0.4375981,0.25369 -0.026453,-2e-6 0.1644488,-0.0629 0.4360513,-0.25369 0.2707738,-0.190197 0.7108475,-0.540962 1.342651,-0.540962 0.631812,10e-7 1.070748,0.351419 1.340592,0.540962 0.02824,0.01984 0.05131,0.03296 0.07776,0.05012 l 0.809298,-0.05942 c 0.271663,-0.191889 0.706415,-0.531662 1.329264,-0.531662 0.114241,0 0.22333,0.0122 0.329995,0.02945 l 1.698389,-2.440793 c 0.123464,-0.177533 -0.0062,-0.4206206 -0.221885,-0.4159261 z M 3.4647536,9.976235 c -0.00499,1.11e-5 -0.01068,1.73e-4 -0.015971,5.292e-4 L 1.3354549,10.133317 c -0.1457429,0.0099 -0.2556515,0.136918 -0.245051,0.28314 l 0.1945935,2.569446 c 0.01068,0.14565 0.136989,0.255039 0.282123,0.244389 l 0.8242299,-0.06045 -0.1039994,-0.0992 C 2.1457603,12.935478 2.0588695,12.752078 2.0438471,12.55653 V 12.556 L 1.9753721,11.651823 C 1.9433311,11.231357 2.2581241,10.850154 2.6755292,10.80292 L 3.7633465,10.678918 3.7288099,10.22114 C 3.7185282,10.082563 3.6031699,9.9755931 3.4647037,9.9762339 Z m -1.5573267,0.430394 c 0.1352124,0.0034 0.2458297,0.107004 0.2558713,0.239738 0.01068,0.142646 -0.09802,0.266852 -0.2429948,0.277457 -0.1448647,0.01066 -0.2711232,-0.09616 -0.282123,-0.238705 -0.01098,-0.142842 0.097821,-0.267373 0.2429946,-0.277973 0.00898,-5.3e-4 0.017468,-7.94e-4 0.026252,-5.3e-4 z m 1.1979852,2.817452 c -0.4314296,10e-7 -0.8812954,0.2231 -1.2592429,0.429361 -0.3779575,0.206262 -0.67133,0.412311 -0.67133,0.412311 -0.28879748,0.203079 0.015643,0.637567 0.3037435,0.433493 0,0 0.2718319,-0.190305 0.6208724,-0.380792 0.3490505,-0.190487 0.7887049,-0.365293 1.005957,-0.365293 0.2172519,0 0.4548066,0.151418 0.7372192,0.349793 0.2471171,0.173577 0.5284417,0.384047 0.8839504,0.43401 0.050807,0.0071 0.1030912,0.01085 0.1570223,0.01085 0.053901,0 0.1062852,-0.0037 0.1570122,-0.01085 0.3551396,-0.04996 0.6347772,-0.260433 0.8818843,-0.43401 0.070571,-0.04959 0.1388057,-0.0964 0.2043856,-0.138471 0.1967494,-0.126209 0.3724775,-0.211322 0.535419,-0.211322 0.217252,0 0.4548066,0.151418 0.7372191,0.349793 0.070571,0.04959 0.1437267,0.101897 0.2208554,0.152936 0.231376,0.15312 0.4965303,0.291924 0.8201075,0.291924 0.053902,0 0.1062852,-0.0037 0.1570223,-0.01085 0.3551293,-0.04996 0.6347769,-0.260434 0.8818842,-0.43401 0.070571,-0.04959 0.1387957,-0.0964 0.2043854,-0.138471 0.1967497,-0.126208 0.372468,-0.211323 0.535409,-0.211323 0.217252,0 0.454807,0.151419 0.737219,0.349794 0.07057,0.04959 0.143736,0.101897 0.220855,0.152936 0.231377,0.15312 0.49654,0.291925 0.820108,0.291925 0.05391,0 0.106295,-0.0037 0.157022,-0.01085 0.35514,-0.04996 0.634778,-0.260434 0.881884,-0.43401 0.07057,-0.04959 0.138806,-0.0964 0.204386,-0.138471 0.196749,-0.126208 0.371958,-0.211323 0.5349,-0.211323 0.217252,0 0.656916,0.174807 1.005957,0.365294 0.34904,0.190487 0.620872,0.380792 0.620872,0.380792 0.014,0.0106 0.029,0.01977 0.04483,0.02738 0.0081,0.0039 0.01632,0.0073 0.02475,0.01033 0.03312,0.01205 0.0683,0.01732 0.103481,0.0155 0.04412,-0.0022 0.08694,-0.01556 0.124581,-0.03875 0.165348,-0.102253 0.167491,-0.342755 0.004,-0.44796 0,0 -0.293372,-0.206049 -0.67132,-0.412311 -0.377957,-0.206261 -0.825757,-0.429361 -1.257196,-0.429361 -0.05391,0 -0.106225,0.0037 -0.157013,0.01085 -0.355508,0.04996 -0.636833,0.260949 -0.88395,0.434527 -0.211801,0.148782 -0.39813,0.271108 -0.569906,0.322927 -0.05729,0.01727 -0.113003,0.02635 -0.167313,0.02635 -0.217253,0 -0.456874,-0.1509 -0.739276,-0.349276 -0.282413,-0.198378 -0.607477,-0.44538 -1.038906,-0.44538 -0.05391,0 -0.106236,0.0037 -0.157023,0.01085 -0.3555082,0.04996 -0.6373519,0.260949 -0.884459,0.434527 -0.2118122,0.148782 -0.3981408,0.271108 -0.5699059,0.322926 -0.057295,0.01727 -0.113003,0.02635 -0.1673135,0.02635 -0.217262,0 -0.4568729,-0.150901 -0.7392855,-0.349276 -0.2824125,-0.198375 -0.6074669,-0.445378 -1.0389065,-0.445378 -0.053901,1e-6 -0.1062353,0.0037 -0.1570223,0.01085 -0.3554986,0.04996 -0.6373423,0.260949 -0.8844595,0.434526 -0.2118018,0.148783 -0.3981304,0.271109 -0.5699058,0.322926 -0.057295,0.01727 -0.112993,0.02635 -0.1673133,0.02635 -0.217252,0 -0.4548068,-0.150901 -0.7372193,-0.349276 -0.2823978,-0.198367 -0.6095183,-0.44537 -1.0409578,-0.44537 z m 0,1.323733 c -0.4314296,0 -0.8812954,0.22155 -1.2592429,0.427812 -0.3779575,0.206261 -0.67133,0.41231 -0.67133,0.41231 -0.28886344,0.203068 0.01563,0.637632 0.3037435,0.433493 0,0 0.2718319,-0.190305 0.6208724,-0.380792 0.3490505,-0.190486 0.7887049,-0.363225 1.005957,-0.363225 0.2172519,0 0.4548066,0.148835 0.7372192,0.347208 0.2824125,0.198374 0.609533,0.445377 1.0409727,0.445377 0.053901,0 0.1062852,-0.0037 0.1570122,-0.01085 0.3551396,-0.04996 0.6347772,-0.26095 0.8818843,-0.434528 0.070571,-0.04959 0.1388057,-0.09607 0.2043856,-0.137952 0.1967494,-0.125659 0.3724775,-0.209255 0.535419,-0.209255 0.217252,0 0.4548066,0.148835 0.7372191,0.347207 0.070571,0.04959 0.1437267,0.102414 0.2208554,0.153455 0.231376,0.153119 0.4965303,0.291923 0.8201075,0.291923 0.053902,0 0.1062852,-0.0037 0.1570223,-0.01085 0.3551293,-0.04996 0.6347769,-0.260951 0.8818842,-0.434529 0.070571,-0.04959 0.1387957,-0.09607 0.2043854,-0.137951 0.1967497,-0.12566 0.372468,-0.209255 0.535409,-0.209255 0.217252,0 0.454807,0.148835 0.737219,0.347206 0.07057,0.04959 0.143736,0.102415 0.220855,0.153456 0.231377,0.153118 0.49654,0.291923 0.820108,0.291923 0.05391,0 0.106295,-0.0037 0.157022,-0.01085 0.35514,-0.04996 0.634778,-0.26095 0.881884,-0.434528 0.07057,-0.04959 0.138806,-0.09607 0.204386,-0.137953 0.196749,-0.125658 0.371958,-0.209254 0.5349,-0.209254 0.217252,0 0.656916,0.172739 1.005957,0.363225 0.34904,0.190487 0.620872,0.380792 0.620872,0.380792 0.014,0.0106 0.029,0.01978 0.04483,0.02739 0.0081,0.0039 0.01632,0.0073 0.02475,0.01033 0.03312,0.01205 0.0683,0.01732 0.103481,0.0155 0.01756,-10e-4 0.03498,-0.0038 0.05201,-0.0083 0.222345,-0.05782 0.269783,-0.353505 0.07676,-0.478445 0,0 -0.293371,-0.206049 -0.671329,-0.41231 -0.377948,-0.206262 -0.825757,-0.427811 -1.257186,-0.427811 -0.05391,0 -0.106237,0.0043 -0.157023,0.01137 -0.355499,0.04959 -0.636834,0.258367 -0.883941,0.431945 -0.211811,0.14878 -0.39814,0.271107 -0.569905,0.322925 -0.05729,0.01727 -0.113003,0.02687 -0.167313,0.02687 -0.217263,0 -0.456874,-0.151418 -0.739286,-0.349792 -0.282413,-0.198375 -0.607477,-0.443311 -1.038907,-0.443311 -0.05391,0 -0.106235,0.0043 -0.157022,0.01137 -0.3554991,0.04959 -0.6373425,0.258368 -0.8844596,0.431946 -0.2118021,0.148779 -0.3981307,0.271106 -0.5699059,0.322924 -0.057295,0.01727 -0.113003,0.02686 -0.1673135,0.02686 -0.217252,0 -0.4568629,-0.151419 -0.7392754,-0.349792 -0.2824226,-0.198342 -0.607477,-0.443279 -1.0389166,-0.443279 -0.053901,0 -0.1062355,0.0043 -0.1570122,0.01137 -0.3555088,0.04959 -0.6373522,0.258367 -0.8844595,0.431945 -0.2118122,0.14878 -0.3981405,0.271107 -0.5699059,0.322925 -0.057295,0.01727 -0.113003,0.02686 -0.1673233,0.02686 -0.217252,0 -0.4548068,-0.151419 -0.7372194,-0.349793 -0.2824146,-0.198384 -0.6095253,-0.44332 -1.0409648,-0.44332 z"/></g></svg>