<?xml version="1.0" encoding="utf-8"?>
<svg id="master-artboard" viewBox="0 0 125 125" version="1.1" xmlns="http://www.w3.org/2000/svg" x="0px" y="0px" style="enable-background:new 0 0 1400 980;" width="125px" height="125px"><g transform="matrix(1.8088552951812744, 0, 0, 1.8088552951812744, 0.26987822850544774, 0.344484652082123)"><path d="M16.686,33.00001c4.28003,0,7.77002-3.48999,7.77002-7.77002s-3.48999-7.76001-7.77002-7.76001   c-4.27997,0-7.75995,3.47998-7.75995,7.76001S12.40603,33.00001,16.686,33.00001z"/><path d="M45.806,55.36988c-0.17999-0.15991-0.44-0.21997-0.67999-0.16992l-7.15997,1.70996   c-0.28003,0.06006-0.48999,0.28003-0.56,0.55005c-0.06,0.28003,0.02997,0.55994,0.23999,0.75l8.46002,7.18994   c1.49554,1.26563,3.80505,1.11182,5.10999-0.41992c1.28998-1.52002,1.09998-3.82006-0.40002-5.10009L45.806,55.36988z"/><path d="M49.35604,45.90992c-0.95001-0.80005-2.22003-1.07007-3.41003-0.69995L37.77603,47.74   c-0.19-0.46008-0.44-0.90015-0.73999-1.31006l-4.91003-6.87l2.30005-0.57996c0.58997-0.15002,1.13995-0.46008,1.59998-0.88013   l8.14001-7.73999c1.6358-1.55298,1.48297-4.26489-0.41003-5.58997c-1.39996-1-3.35999-0.82996-4.66998,0.41003l-5.01001,4.77002   c-1.53998,1.45996-3.45001,2.52002-5.51001,3.04004c-1.51001,0.38989-3.10999,0.5-4.60999,0.56995   c-5.53558,0.23865-8.43005,6.57092-5.15997,11.12l7,9.80005c1.29999,1.80994,3.40997,2.88989,5.63,2.88989   c1.29999,0,3.40997-1.02002,4.06-1.35986l10.69-3.28003l8.13995,6.91992c1.49207,1.26257,3.7774,1.14429,5.11005-0.41992   c0.00995,0,0.00995,0,0.00995,0c1.28003-1.52002,1.10004-3.81006-0.41998-5.11011L49.35604,45.90992z"/><path d="M61.876,20.74l-15.20996-6.36597V9.60987c0-1.52002-1.22003-2.75-2.73004-2.75c-1.50995,0-2.73999,1.22998-2.73999,2.75   v2.47485l-2.06-0.8623V5.50001c0-1.52002-1.22998-2.75-2.73999-2.75s-2.72998,1.22998-2.72998,2.75v3.43311l-14.63-6.12317   c-0.38-0.16003-0.82001,0.02002-0.98004,0.41003c-0.15997,0.37988,0.02002,0.81995,0.40002,0.97998l20.96002,8.76758v10.18237   c0.46997-0.22998,0.97998-0.38989,1.5-0.45996v-9.09497c15.98213,6.68528,4.79543,2.00592,20.38,8.5249   c0.41826,0.16751,0.83193-0.04205,0.97998-0.3999C62.436,21.33986,62.25601,20.89991,61.876,20.74z"/><path d="M 40.916038513183594 45.19995880126953 L 40.916038513183594 35.5199089050293 L 39.416038513183594 36.94995880126953 L 39.416038513183594 45.65991973876953 Z"/><path d="M16.24368,47.37257c0.27832,0,0.54492-0.1543,0.6748-0.4209c0.18164-0.37207,0.02734-0.82129-0.34473-1.00293   l-8.8291-4.31152c-0.37109-0.18066-0.82031-0.02637-1.00293,0.34473c-0.18164,0.37207-0.02734,0.82129,0.34473,1.00293   l8.8291,4.31152C16.02102,47.34816,16.13333,47.37257,16.24368,47.37257z"/><path d="M19.7427,53.77491l-8.83008-4.31152c-0.375-0.18262-0.82031-0.02734-1.00293,0.34473   c-0.18164,0.37207-0.02734,0.82129,0.34473,1.00293l8.83008,4.31152c0.10645,0.05176,0.21777,0.07617,0.32813,0.07617   c0.27832,0,0.54492-0.1543,0.6748-0.4209C20.26907,54.40577,20.11477,53.95655,19.7427,53.77491z"/></g></svg>